<?xml version="1.0" encoding="utf-8"?>
<!-- Generator: Adobe Illustrator 21.1.0, SVG Export Plug-In . SVG Version: 6.00 Build 0)  -->
<svg version="1.1" id="basketball" xmlns="http://www.w3.org/2000/svg" xmlns:xlink="http://www.w3.org/1999/xlink" x="0px" y="0px"
	 viewBox="0 0 252 201.7" style="enable-background:new 0 0 252 201.7;" xml:space="preserve">
<style type="text/css">
	.st0{fill:#FCE8C9;}
	.st1{fill:#F5A572;}
	.st2{opacity:0.68;fill:url(#Tracé_9_1_);enable-background:new    ;}
	.st3{fill:url(#Tracé_10_1_);}
	.st4{fill:#FFFFFF;}
	.st5{fill:url(#Tracé_12_1_);}
	.st6{fill:#C58067;}
	.st7{fill:url(#Tracé_14_1_);}
	.st8{fill:url(#Tracé_15_1_);}
	.st9{fill:url(#Tracé_17_1_);}
	.st10{fill:#606161;}
	.st11{fill:#68E1FD;}
	.st12{opacity:0.37;fill:url(#Tracé_22_1_);enable-background:new    ;}
	.st13{opacity:0.28;fill:url(#Tracé_23_1_);enable-background:new    ;}
	.st14{fill:url(#Tracé_30_1_);}
	.st15{fill:url(#Tracé_31_1_);}
	.st16{fill:url(#Tracé_33_1_);}
	.st17{fill:url(#Tracé_37_1_);}
	.st18{fill:url(#Tracé_38_1_);}
	.st19{fill:url(#Tracé_39_1_);}
	.st20{fill:url(#Tracé_40_1_);}
	.st21{fill:url(#Tracé_41_1_);}
	.st22{fill:url(#Tracé_42_1_);}
	.st23{fill:none;stroke:#FFFFFF;stroke-width:0.98;stroke-miterlimit:10;}
</style>
<path id="Tracé_7" class="st0" d="M275.4,139.8c-0.5,7.6-3.5,14.7-7.4,21.2c-14.7,24-40.4,39.3-68.5,40.6
	c-19.9,0.8-39.3-5.6-59.1-7.6c-31.8-3.3-64.3,4.6-95.7-1.4c-28.5-5.4-53.8-23.3-70.3-47.1c-2.9-4.2-5.6-8.6-8-13.1
	c-0.4-0.9-0.9-1.7-1.3-2.6c-6.8-13.9-10.6-29.1-11-44.5c-0.5-23.7,7.3-48.3,24.6-64.5c15-14.1,35.5-20.6,52.8-31.6
	C44-18.7,55-29.2,63.6-41.5C71.7-53,77.9-66.3,88.9-75.1c12.3-9.8,29-12.5,44.8-11.7c42.2,2.2,95.3,31,115.3,69.4
	c19.6,37.6,7.7,84.2,19.4,125c2.1,7.4,5.1,14.7,6.4,22.3C275.3,133.1,275.6,136.5,275.4,139.8L275.4,139.8z"/>
<path id="Tracé_8" class="st1" d="M275.4,144.9c-0.5,6.9-3.5,13.5-7.3,19.5c-14,21.8-40.1,36.3-67.3,37.3
	c-19.5,0.7-38.6-5.1-58-6.9c-31.2-3-63.2,4.2-94-1.3c-28-5-52.8-21.3-69.1-43.2l-7.8-12l-1.5-2.4h304.4
	C275.4,138.8,275.6,141.9,275.4,144.9z"/>
<linearGradient id="Tracé_9_1_" gradientUnits="userSpaceOnUse" x1="-181.0889" y1="474.2162" x2="-180.9129" y2="472.0132" gradientTransform="matrix(305.1614 0 0 -65.9253 55373.668 31371.0996)">
	<stop  offset="0" style="stop-color:#FFFFFF;stop-opacity:0"/>
	<stop  offset="0.95" style="stop-color:#FFFFFF"/>
</linearGradient>
<path id="Tracé_9" class="st2" d="M275.4,144.9c-0.5,6.9-3.5,13.5-7.3,19.5c-14,21.8-40.1,36.3-67.3,37.3
	c-19.5,0.7-38.6-5.1-58-6.9c-31.2-3-63.2,4.2-94-1.3c-28-5-52.8-21.3-69.1-43.2l-7.8-12l-1.5-2.4h304.4
	C275.4,138.8,275.6,141.9,275.4,144.9z"/>
<linearGradient id="Tracé_10_1_" gradientUnits="userSpaceOnUse" x1="-179.5469" y1="462.442" x2="-181.8759" y2="472.813" gradientTransform="matrix(81.63 0 0 -19.6608 14776.5508 9282.3682)">
	<stop  offset="0" style="stop-color:#010101;stop-opacity:0"/>
	<stop  offset="0.95" style="stop-color:#010101"/>
</linearGradient>
<path id="Tracé_10" class="st3" d="M76.4,176.4c-0.5-0.1-0.9-0.3-1.2-0.7c-0.6-0.7-0.2-1.9,0.4-2.6c0.7-0.6,1.3-1.4,1.7-2.4
	c-7.1-2-14.2-3.6-21.4-4.8c1.4-2.4,4.6-3,7.3-3.2c5.1-0.4,10.1-0.5,15.2-0.6l26.1-0.5c1.2-0.1,2.3,0,3.4,0.4c1,0.6,1.9,1.2,2.8,1.9
	c2.2,1.4,5.1,1,7.7,0.6c6.3-0.8,12.8-0.8,19.1,0c-2.4,2.3-5.9,3.1-9.2,3.3s-6.7,0.1-9.9,1c-1.7,0.6-3.3,1-5.1,1.4
	c-2.4,0.2-4.7-0.6-7-1.2c-3.1-0.7-6.3-1-9.5-0.7c-0.7,0-1.3,0.2-1.7,0.7c-0.5,0.8,0.2,1.9,1,2.3c0.9,0.3,1.7,0.7,2.6,1.2
	c4.1,3.4-3.3,8.4-6.3,8.5C87.4,181.4,81,177.9,76.4,176.4L76.4,176.4z"/>
<path id="Tracé_11" class="st4" d="M144.6,155.6c-0.6,1.4-1.5,2.7-2.7,3.6c-0.5,0.3-1.1,0.5-1.7,0.6c-0.9,0.2-1.8-0.1-2.5-0.8
	c-1-1.1-0.9-2.7-1-4.1c-0.1-1.7-1-3.3-1.1-5c-0.1-1.3,1-2.4,1.4-3.7c0.7-1.9,1-4.2,2.7-5.3c1.2-0.7,2.8-0.7,4,0
	c0.3,0.2,0.6,0.4,0.9,0.7c0.7,0.7,1.3,1.6,1.7,2.6C147.6,148,146.4,152.1,144.6,155.6L144.6,155.6z"/>
<linearGradient id="Tracé_12_1_" gradientUnits="userSpaceOnUse" x1="-162.4715" y1="459.8626" x2="-163.9215" y2="462.2116" gradientTransform="matrix(7.294 0 0 -16.0984 1327.4304 7559.1675)">
	<stop  offset="0" style="stop-color:#010101;stop-opacity:0"/>
	<stop  offset="0.95" style="stop-color:#010101"/>
</linearGradient>
<path id="Tracé_12" class="st5" d="M143.1,142.3c0.2,0.9,0,1.8-0.5,2.5c-0.5,0.7-1,1.4-1.4,2.2c-0.3,1-0.3,2-0.2,3
	c0.2,1.7-0.2,3.4-1.1,4.8c-0.6,0.8-1.6,1.5-1.4,2.5c-0.8-1.2-0.2-2.9-0.8-4.3c-0.4-0.8-1.1-1.4-1.5-2.3c-0.4-1.3-0.4-2.7,0.1-3.9
	c0.2-1.3,0.8-2.5,1.6-3.4c0.5-0.4,1-0.8,1.5-1.2c0.3-0.4,0.7-0.7,1.2-0.9C141.7,140.9,142.7,141.4,143.1,142.3L143.1,142.3z"/>
<path id="Tracé_13" class="st6" d="M177.9,122.8c-0.5-0.7-0.9-1.5-1.4-2.2c-0.2-0.2-0.4-0.5-0.6-0.6c-0.4,0-0.7,0.2-0.7,0.6
	c0,0.3,0,0.7,0.1,1c0.1,0.7,0.1,1.3,0.1,2c0,0.6-0.2,1.3-0.8,1.5c-0.8-1.1-0.7-2.6-1.2-3.8c-0.1-0.3-0.3-0.6-0.6-0.9
	c-0.3-0.2-0.7-0.2-1-0.1c-0.3,0.2-0.4,0.6-0.3,1c0.1,0.4,0.3,0.7,0.5,1c0.6,1.1,1.2,2.2,1.5,3.4c0.1,0.4,0.2,0.8-0.2,1
	c-0.2,0.1-0.4,0-0.6-0.1c-0.6-0.4-1.1-0.9-1.4-1.5c-0.7-1.2-1.3-2.5-1.8-3.8c-0.5,0.4-0.9,1-1,1.7c-0.5,1.2-0.9,2.4-1.2,3.6
	c-0.1,0.4-0.3,0.9-0.7,1c-0.4,0-0.7-0.2-0.8-0.6c-0.1-0.3,0.2-1.2,0.2-1.6c0.1-1.6,0.6-3.6,0.8-5.2c-1.5,0.2-2.6,1.7-4.1,2
	c-0.6-0.5-0.6-1.3-0.2-1.8c0.1-0.1,0.1-0.1,0.2-0.2c0.5-0.4,1.2-0.7,1.7-1.1c1.6-1.1,2.3-3.2,2.9-5.1c0.8-2.8,0.1-6.1-0.9-8.9
	c-0.4-1.2-1-2.3-1.4-3.4c-0.5-1.3-0.7-2.7-0.6-4.1c0.1-0.3,0-0.7-0.2-0.9c-0.1-0.2-0.3-0.3-0.5-0.3c-3.3-1.3-6.5-2.6-9.8-4
	c0,3.7-0.3,7.4-0.7,11.1c-0.2,2-0.4,4-1.7,5.5c-1.8,2.1-4.9,2.4-7.6,2.3c-2.5-0.1-4.9-0.5-7.3-1.1c-2-0.4-3.9-1.4-5.4-2.8
	c-1.2-1.5-2-3.2-2.3-5.1c-0.6-2.7-1.3-5.3-2.2-7.9c-0.8-2.3-2.3-4.4-4.3-5.9c-0.2-0.1-0.4-0.3-0.6-0.4c-0.4-0.2,0,2.9-0.4,2.7
	c-3.3-2.1-4.1,2.1-4.5,2.6c-3.7,4.4-11.5,14.3-12.8,13.8c-1.5-0.6,1.4-0.6-0.1-0.6c-0.7-0.1-1.4-0.3-2-0.6c-2.1-0.8-4.2-1.7-6.3-2.5
	c0.5-0.4,6.2-5.1,6.6-5.4c7.3-6.4,4.4-15.6,15.7-23.8c4.2-3,10.5-3.9,15.6-3.9c4.8-1.3,10-0.8,14.5,1.6c1.6,0.9,3.2,2,4.6,3.2
	c3.7,3.2,7.1,6.6,10.3,10.2l4.7,5.1c0.8,0.9,4.5,4.1,5,5.5c0.5,1.5,0.6,3,0.4,4.5c-0.2,4-0.4,8.1-0.6,12.1c0.3,0.6,0.8,1.2,1.3,1.6
	c1.7,1.7,3.1,3.7,4,6c0.2,0.4,0.4,0.9,0.5,1.3C178.4,122,178.3,122.5,177.9,122.8L177.9,122.8z"/>
<linearGradient id="Tracé_14_1_" gradientUnits="userSpaceOnUse" x1="-176.421" y1="465.2192" x2="-175.314" y2="461.8392" gradientTransform="matrix(26.1866 0 0 -21.8576 4726.146 10256.0547)">
	<stop  offset="0" style="stop-color:#010101;stop-opacity:0"/>
	<stop  offset="0.24" style="stop-color:#010101;stop-opacity:0.239"/>
	<stop  offset="0.95" style="stop-color:#010101"/>
</linearGradient>
<path id="Tracé_14" class="st7" d="M122.2,88.5c-0.2-0.1-0.4-0.3-0.6-0.4c-0.4-0.2,0,2.9-0.4,2.7c-3.3-2.1-4,2.2-4.5,2.6
	c-4.1,3.8-9.4,12.7-12.5,13.6c-0.8,0.2-1.8-0.6-2.5-0.8h0c-0.8,0.2-1.6,0.1-2.3-0.2c-1-0.4-1.9-0.9-2.7-1.5
	c-0.3-0.1-0.4-0.4-0.5-0.7c0-0.2,0.1-0.4,0.2-0.6c0.3-0.7,0.8-1.3,1.4-1.7c1.1-0.5,2.3-0.6,3.4-0.2c0.7,0.1,2.9,0,3.8,0.5
	c3.4-2.3,6.2-5.4,8.2-9.1c0.9-1.7,1.6-3.5,3.1-4.8c0.9-0.8,3.3-2.8,4.6-2.8C122.4,85.2,122.6,86.8,122.2,88.5L122.2,88.5z"/>
<linearGradient id="Tracé_15_1_" gradientUnits="userSpaceOnUse" x1="-176.0135" y1="466.2543" x2="-178.1385" y2="464.4323" gradientTransform="matrix(26.0755 0 0 -24.1251 4749.3433 11326.4219)">
	<stop  offset="0" style="stop-color:#010101;stop-opacity:0"/>
	<stop  offset="0.24" style="stop-color:#010101;stop-opacity:0.239"/>
	<stop  offset="0.95" style="stop-color:#010101"/>
</linearGradient>
<path id="Tracé_15" class="st8" d="M155.4,85.2c-0.1-0.3-0.4-0.6-0.6-0.8c-0.6-0.3-6.1-0.2-6.8-2.9c-0.8,0.1-1.1,1.1-1.3,1.9
	s-0.7,1.8-1.5,1.7c-0.3-0.1-0.5-0.2-0.7-0.4c-2-1.6-2.4-4.4-2.7-7c-0.2-2-0.5-4.1-0.7-6.1c-1.3,4.8-1.7,9.8-1.2,14.7
	c0,1.3,0.5,2.6,1.2,3.7c1.6,1.9,4.5,1.8,6.9,1.8c3.5,0,6.9,0.6,10.1,1.9c2.9,1.1,5.6,4,7.6,0.4C161.4,91.9,157.8,89.6,155.4,85.2
	L155.4,85.2z"/>
<path id="Tracé_16" class="st6" d="M124.2,73.4c0,0.3,0.2,0.6,0.4,0.9c0.2,0.2,0.4,0.3,0.7,0.4c1.6,0.9,3.5,0.9,5.2,0.2
	c0.4-0.2,0.7-0.5,1-0.8c0.2-0.4,0.3-0.9,0.3-1.3c0.2-1.2,0-2.5-0.4-3.7c-0.4-0.8-1-1.5-1.7-2c-1.3-1.1-2.8-2.1-4.4-2.8
	c-0.8-0.4-2.2-0.9-3-0.2c-0.7,0.6-0.2,1.2,0,2C122.9,68.4,123.6,70.9,124.2,73.4L124.2,73.4z"/>
<linearGradient id="Tracé_17_1_" gradientUnits="userSpaceOnUse" x1="-166.5013" y1="434.3781" x2="-168.2073" y2="437.781" gradientTransform="matrix(9.343 0 0 -6.4968 1689.3167 2898.8691)">
	<stop  offset="0" style="stop-color:#010101;stop-opacity:0"/>
	<stop  offset="0.24" style="stop-color:#010101;stop-opacity:0.239"/>
	<stop  offset="0.95" style="stop-color:#010101"/>
</linearGradient>
<path id="Tracé_17" class="st9" d="M133.6,70.4c0,0,1.8,5.5-0.6,6.4s-8.1-6-8.1-6L133.6,70.4z"/>
<path id="Tracé_18" class="st6" d="M122.4,54.5c-1.8,3.9-0.9,8.5,0.3,12.7c0.5,1.8,2.9,5.1,4.9,5.5c2.8,0.5,7-1.5,7.7-3.9
	c0.5-1.8,0.5-6.2,0.8-8c0.2-1,0.3-2.1,0.2-3.2c-0.3-2.9-2.5-5.3-4.6-7.4c-0.3-0.3-0.7-0.6-1.1-0.9c-0.8-0.3-1.6-0.4-2.4-0.2
	c-1.7,0.3-3.2,1.1-4.4,2.3c-1.2,1.2-1.8,2.9-1.7,4.6"/>
<path id="Tracé_19" class="st6" d="M120.1,60.8c-0.6,0.1-1.1,0.6-1.1,1.2c0,0.6,0.2,1.2,0.6,1.6c0.3,0.4,0.7,0.8,1,1.2
	c0.2,0.2,0.4,0.4,0.6,0.5c0.2,0.1,0.5,0.2,0.8,0.1c0,0,0.1,0,0.1-0.1c0,0,0-0.1,0-0.1c0.2-1,0-2.1-0.4-3.1
	C121.6,61.4,120.9,60.9,120.1,60.8z"/>
<path id="Tracé_20" class="st10" d="M122,62.8c0.5-0.7,0.2-2.8,0.2-3.7c0-1.1,0.1-2.1,0.3-3.1c0.1-0.3,0.2-0.7,0.5-0.7
	c0.4-0.1,0.7,0.4,1,0.5c0.2,0,0.4,0,0.6,0c3.1-0.6,6.4-0.6,9.5-0.1c0.6,0.2,1.2,0.1,1.7-0.2c0.3-0.3,0.6-0.7,0.8-1.1
	c0.4-0.6,0.9-1.1,1.6-1.5c0.2-0.1,0.4-0.2,0.5-0.4c0-0.1,0-0.2-0.1-0.3c-0.3-0.7-1.2-0.7-1.8-1.2c-0.2-0.2-0.4-0.4-0.6-0.6
	c-0.4-0.3-0.8-0.5-1.2-0.7c-0.7-0.4-1.3-1.1-2.1-1.5c-0.8-0.3-1.6-0.5-2.4-0.5c-2.6-0.1-5.1,0.1-7.6,0.5c-1.4,0-2.5,1.1-2.5,2.5
	c0,0,0,0.1,0,0.1c0,0.3-0.1,0.6-0.4,0.8c-0.2,0.1-0.4,0.2-0.6,0.2c-0.3,0.2-0.5,0.5-0.6,0.9c-0.3,1.4-0.3,2.8,0.1,4.1
	c0.1,0.8,0.3,1.5,0.4,2.3c0.1,0.5,0.2,1.2,0.6,1.5c0.3,0.2,0.7,0.2,0.9,0.4c0.2,0.2,0.4,0.4,0.5,0.6C121.8,61.9,121.8,62.9,122,62.8
	"/>
<path id="Tracé_21" class="st6" d="M110.5,122.6c-1.5,1.4-2.7,3.1-3.7,5c-0.7,2-1.2,4.1-1.4,6.2c0,0.6-0.2,1.3-0.6,1.8
	c-0.3,0.4-0.7,0.6-1,1c-0.4,0.5-0.7,1.2-0.8,1.8c-2.4,8.5-3.5,17.3-3.3,26.1c0.1,2.7,0.2,5.7-1.5,7.9c-1.8,2.3-5.3,3.4-5.6,6.3
	c3.7,1.8,8.1,1.3,11.3-1.2c0.7-0.5,1.3-1.2,1.6-2c0.7-1.7-0.2-3.6-0.5-5.4c-0.8-4.6,2.1-8.9,3.9-13.2c1.7-3.8,2.6-8,2.7-12.2
	c0-0.7,0.1-1.5,0.4-2.2c0.3-0.5,0.8-0.9,1.3-1.2c7-5.1,10.6-13.9,17.4-19.4l-7.9,20.7c-0.8,1.9-1.4,3.8-1.8,5.8
	c-0.3,1.8-0.2,3.9,0.9,5.3c1.7,2,4.9,1.8,7.3,0.6s4.1-3.3,6.4-4.6l1.6,1.9c2.7-3,2.2-7.6,2.5-11.6c0-0.6,0.1-1.2,0.3-1.7
	c0.3-0.6,0.6-1.1,1-1.6c3.4-4.4,7-8.7,9.1-13.8s2.7-11.2-0.1-16c-0.3-0.5-0.6-1-1.1-1.3c-0.5-0.3-1.1-0.4-1.8-0.4
	c-3.9-0.3-7.8-0.3-11.7,0c-3.7,0.3-5.1,1.1-8,3.1C121.5,112.4,115.8,117.2,110.5,122.6L110.5,122.6z"/>
<ellipse id="Ellipse_1" class="st11" cx="94.3" cy="113.7" rx="12.4" ry="12.4"/>
<ellipse id="Ellipse_2" class="st1" cx="94.3" cy="113.7" rx="12.4" ry="12.4"/>
<linearGradient id="Tracé_22_1_" gradientUnits="userSpaceOnUse" x1="-176.133" y1="466.1764" x2="-175.295" y2="467.4444" gradientTransform="matrix(24.782 0 0 -24.8643 4456.3193 11709.376)">
	<stop  offset="0" style="stop-color:#010101;stop-opacity:0"/>
	<stop  offset="0.95" style="stop-color:#010101"/>
</linearGradient>
<path id="Tracé_22" class="st12" d="M106.8,113.7c0,3.7-1.6,7.2-4.5,9.6c-0.6,0.5-1.3,1-2,1.3c-0.2,0.1-0.4,0.2-0.5,0.3
	c-1.7,0.8-3.5,1.2-5.4,1.2c-0.3,0-0.5,0-0.8,0c-0.2,0-0.4,0-0.6-0.1c-1.9-0.2-3.8-0.9-5.4-1.9c-0.1-0.1-0.2-0.1-0.3-0.2
	c-1.6-1.1-2.9-2.6-3.9-4.4c-0.1-0.1-0.1-0.3-0.2-0.4c-0.8-1.7-1.3-3.6-1.3-5.5c0-0.3,0-0.7,0-1c0-0.5,0.1-1,0.2-1.5
	c0.3-1.3,0.7-2.6,1.4-3.7c1.8-3,4.7-5.2,8.2-5.9c0.2,0,0.4-0.1,0.5-0.1c0.7-0.1,1.3-0.2,2-0.2c2.5,0,5,0.8,7.1,2.2
	c0.2,0.1,0.4,0.3,0.6,0.4c2.1,1.6,3.5,3.8,4.3,6.3c0,0.1,0.1,0.3,0.1,0.4C106.7,111.6,106.8,112.6,106.8,113.7L106.8,113.7z"/>
<linearGradient id="Tracé_23_1_" gradientUnits="userSpaceOnUse" x1="-175.0659" y1="465.3043" x2="-175.8039" y2="463.2293" gradientTransform="matrix(21.9753 0 0 -21.4986 3945.4624 10103.9102)">
	<stop  offset="0" style="stop-color:#010101;stop-opacity:0"/>
	<stop  offset="0.95" style="stop-color:#010101"/>
</linearGradient>
<path id="Tracé_23" class="st13" d="M103.9,117c0,2.2-0.6,4.3-1.7,6.2c-5.3,4.3-13.1,3.6-17.5-1.7c-3.3-4-3.7-9.6-1.1-14.1
	c5.3-4.4,13.1-3.6,17.5,1.7C102.9,111.3,104,114.1,103.9,117L103.9,117z"/>
<path id="Tracé_24" class="st4" d="M93.6,126.1c-0.2,0-0.4,0-0.6-0.1c-1.3-1.1-2.4-2.4-3.3-3.8c-0.1-0.1-0.2-0.2-0.2-0.3
	c-0.4-0.7-0.8-1.4-1.1-2.1c-0.1-0.1-0.1-0.2-0.1-0.4c-0.4-1.1-0.7-2.3-0.9-3.5c-0.1-0.5-0.1-1-0.1-1.5c0-0.1,0-0.3,0-0.4
	c0.1-5.4,2.9-10.2,4.6-12.5c0.2,0,0.4-0.1,0.5-0.1c-1.6,2.2-4.6,7.1-4.7,12.5v0.4c0,0.5,0,1,0.1,1.5c0.1,1.2,0.4,2.4,0.9,3.5
	c0,0.1,0.1,0.2,0.1,0.4c0.3,0.7,0.7,1.4,1.1,2l0.2,0.3C91,123.6,92.2,124.9,93.6,126.1L93.6,126.1z"/>
<path id="Tracé_25" class="st4" d="M102,103.8c-2.9-0.4-4.9,2-7.2,4.8c-2,2.5-4.2,5-7.1,5.7c-0.1,0-0.2,0.1-0.4,0.1
	c-0.5,0.1-1,0.2-1.5,0.2h-0.1c-1.2,0.1-2.5-0.3-3.3-1.2c-0.2-0.2-0.3-0.4-0.4-0.7c0-0.5,0.1-1,0.2-1.5h0c-0.1,0.7,0,1.4,0.4,1.9
	c0.8,0.8,1.9,1.2,3,1.1h0.1c0.5,0,1-0.1,1.5-0.2c0.1,0,0.3,0,0.4-0.1c2.8-0.8,4.9-3.2,6.9-5.5c2.1-2.5,4.1-4.9,6.9-4.9
	C101.6,103.6,101.8,103.7,102,103.8L102,103.8z"/>
<path id="Tracé_26" class="st4" d="M106.4,110.6c-2.4,2.5-8.9,8.4-17.7,9.2c-0.1,0-0.3,0-0.4,0c-0.5,0-1,0.1-1.5,0.1
	c-1.2,0-2.3-0.1-3.5-0.3c-0.1-0.1-0.1-0.3-0.2-0.4c1.6,0.3,3.3,0.4,5,0.3c0.1,0,0.3,0,0.4,0c8.9-0.7,15.4-6.8,17.7-9.2
	C106.3,110.3,106.4,110.4,106.4,110.6z"/>
<path id="Tracé_27" class="st4" d="M100.3,124.6c-0.2,0.1-0.4,0.2-0.5,0.3c-1.2-0.3-2.3-0.7-3.4-1.3c-1.2-0.7-2.5-1.2-3.8-1.5
	c-0.8-0.2-1.7-0.2-2.5,0.1c-0.1,0-0.2,0.1-0.4,0.1c-0.8,0.4-1.6,1.1-2,1.9c-0.1-0.1-0.2-0.1-0.3-0.2c0.5-0.8,1.3-1.5,2.1-2
	c0.1,0,0.2-0.1,0.4-0.2c0.9-0.3,1.9-0.4,2.8-0.1c1.3,0.4,2.6,0.9,3.9,1.6C97.7,123.9,99,124.4,100.3,124.6L100.3,124.6z"/>
<path id="Tracé_28" class="st6" d="M91.4,101.2c-0.2,0.2-0.4,0.4-0.6,0.6c-0.7,0.7-1.3,1.6-1.9,2.4c-0.5,0.9-0.8,1.9-0.8,2.9
	c0,0.1,0,0.1,0,0.2c0.1,0.1,0.3,0,0.4-0.1c0.3-0.4,0.6-0.7,0.8-1.1c0.3-0.4,0.7-0.8,1.1-1.2c0,0.9,0,1.7,0.1,2.6
	c0,0.3,0.1,0.6,0.4,0.7c0.2,0.1,0.5,0,0.6-0.2c0.2-0.2,0.3-0.4,0.3-0.6c0.2-1,0.5-2.1,0.9-3c0,0.9,0.1,1.8,0.2,2.7
	c0,0.2,0.1,0.5,0.2,0.7c0.1,0.2,0.4,0.3,0.6,0.2c0.3-0.1,0.4-0.6,0.4-0.9c0-0.8,0.1-1.7,0.3-2.5l0.7,2.2c0.1,0.3,0.2,0.6,0.4,0.8
	c0.2,0.2,0.6,0.3,0.8,0.1c0.2-0.2,0.3-0.5,0.2-0.8c0-1.1,0.2-2.2,0.6-3.2c0.1-0.3,0.4-0.6,0.7-0.7c0.5-0.1,0.9,0.5,1.4,0.7
	c0.3,0.1,0.6,0.1,0.9,0.1h0.9c0.1,0,0.1,0,0.2,0c0.1-0.1,0.1-0.3,0.1-0.4c-0.1-0.3-0.4-0.5-0.7-0.6c-0.3-0.1-0.6-0.2-0.9-0.3
	c-0.6-0.2-1.1-0.5-1.6-0.8c-0.9-0.4-1.8-0.7-2.8-0.7c-0.5,0-1,0-1.4,0c-0.4-0.1-0.8-0.1-1.2-0.1C92.3,100.8,91.8,101,91.4,101.2
	L91.4,101.2z"/>
<path id="Tracé_29" class="st1" d="M155.1,98.5l-0.2,6c0,0.8-0.1,1.6-0.3,2.4v0c-0.1,0.8-0.5,1.5-1.1,2c-0.1,0.1-0.1,0.1-0.2,0.1
	c-0.7,0.4-1.5,0.6-2.2,0.6c-0.4,0-0.8,0-1.2-0.1c-0.2,0-0.5-0.1-0.7-0.1c-4.5-0.6-8.8-2.1-13.3-2.2c-2.1,0.1-4.3,0.1-6.4,0
	c-2.2-0.2-4.2-1.4-5.3-3.3c-1.2-2.5-0.2-4.9-1.1-7.5c-0.5-1.7-1.7-3.6-2-5.3c-0.1-0.9-0.1-1.8,0-2.8c0-0.9-0.1-1.7-0.3-2.6
	c-0.5-1.8-1.2-3.5-2.2-5.1c-0.9-1.4-3.2-3.6-3-5.3c0.1-1.3,1.7-2.3,2.9-2.6c1.8-0.5,2.7,0.2,3.6,1.7c1.3,2.2,2.9,4.2,4.8,6
	c1.4,1.2,3.1,2.4,4.9,2c1.3-0.4,2.4-1.2,3.1-2.3c0.5-0.6,1-1.3,1.3-2.1c0.3-1,0.4-2,0.3-3c0-1.5,0.1-3,0.3-4.5
	c-0.1-0.6,0.3-1.1,0.9-1.1c0.1,0,0.2,0,0.4,0c1.1,0,2.3,0,3.4,0.1c0.2,4.8,1.5,9.5,3.7,13.8c3.1,5.6,7.2,7.7,8.1,8.6
	C154.6,93.2,155.2,96.6,155.1,98.5L155.1,98.5z"/>
<linearGradient id="Tracé_30_1_" gradientUnits="userSpaceOnUse" x1="-171.2657" y1="467.9191" x2="-162.4497" y2="467.0071" gradientTransform="matrix(12.0107 0 0 -28.6172 2193.04 13483.2627)">
	<stop  offset="0" style="stop-color:#010101;stop-opacity:0"/>
	<stop  offset="0.95" style="stop-color:#010101"/>
</linearGradient>
<path id="Tracé_30" class="st14" d="M155.1,98.5l-0.2,6c0,0.8-0.1,1.6-0.3,2.4v0c-0.3,0.7-0.7,1.4-1.1,2c-0.7,0.8-1.5,1.2-2.4,0.7
	c-0.6-0.4-1.1-0.8-1.5-1.4c-2.4-3.5,0-9.7-1.2-13.8c-0.7-2.3-2.2-4.3-3.4-6.4s-2.2-4.4-1.9-6.8c0.6,0.7,1.3,1.4,1.9,2.1
	c3.1,5.6,7.2,7.7,8.1,8.6C154.6,93.2,155.2,96.6,155.1,98.5L155.1,98.5z"/>
<linearGradient id="Tracé_31_1_" gradientUnits="userSpaceOnUse" x1="-176.4566" y1="466.0981" x2="-178.5046" y2="463.6292" gradientTransform="matrix(28.5821 0 0 -23.577 5186.7612 11078.7021)">
	<stop  offset="0" style="stop-color:#010101;stop-opacity:0"/>
	<stop  offset="0.95" style="stop-color:#010101"/>
</linearGradient>
<path id="Tracé_31" class="st15" d="M149.3,109.5c-4.5-0.6-8.8-2.1-13.3-2.2c-2.1,0.1-4.3,0.1-6.4,0c-2.2-0.2-4.2-1.4-5.3-3.3
	c-1.2-2.5-0.2-4.9-1.1-7.5c-0.5-1.7-1.7-3.6-2-5.3c-0.1-0.9-0.1-1.8,0-2.8c0-0.9-0.1-1.7-0.3-2.6c0.9,0.3,1.7,0.9,2.2,1.8
	c0.4,0.8,0.5,1.8,0.8,2.6c0.8,2.1,3,3.3,5.1,4c0.8,0.2,1.6,0.5,2.3,0.9c0.7,0.4,1.2,1.2,1.2,2.1c-1.6,0.1-3.2,0.1-4.8-0.1
	c0.4,0.9,1.2,1.7,2.2,1.9c1,0.3,2,0.4,3,0.4c2.3,0.1,4.5,0.1,6.8,0.2c1.8-0.1,3.6,0.2,5.2,1c2.4,1.3,3.7,4.5,4.4,7
	C149.5,108.3,149.5,108.9,149.3,109.5L149.3,109.5z"/>
<path id="Tracé_32" class="st1" d="M151.8,121.3c-1.8,4-4.4,7.6-6.6,11.4c-1.1,2-2.1,4.1-2.9,6.2c-0.3,1.2-1,2.4-2,3.2
	c-0.7,0.4-1.4,0.6-2.1,0.6c-5.9,0.7-11.8-0.6-16.8-3.6c1.6-2.7,2.9-5.5,3.8-8.5c-4.2,2.9-7.8,6.6-10.9,10.7
	c-2.4-0.6-3.8-2.9-5.4-4.7c-2.1-2.3-4.7-4.1-7.7-5.1c-0.6-0.2-1.4-0.5-1.5-1.2c0-0.4,0.2-0.8,0.5-1.1c1.9-2.4,4.4-4.2,6.4-6.4
	c2.9-3.2,4.9-7.2,7.9-10.3c2-2,4.1-3.8,6.5-5.3c1.9-1.7,4.5-2.4,7-1.8c7.2,0.7,14.8,1.1,22,2.6C155.7,109.2,153.5,117.4,151.8,121.3
	z"/>
<linearGradient id="Tracé_33_1_" gradientUnits="userSpaceOnUse" x1="-178.763" y1="470.096" x2="-180.659" y2="470.746" gradientTransform="matrix(54.0291 0 0 -37.7054 9796.917 17851.3984)">
	<stop  offset="0" style="stop-color:#010101;stop-opacity:0"/>
	<stop  offset="0.95" style="stop-color:#010101"/>
</linearGradient>
<path id="Tracé_33" class="st16" d="M151.8,121.3c-1.8,4-4.4,7.6-6.6,11.4c-1.1,2-2.1,4.1-2.9,6.2c-0.3,1.3-1,2.4-2,3.2
	c-0.7,0.4-1.4,0.6-2.1,0.6c-0.5,0.1-1,0.1-1.6,0.1c-5.3,0.3-10.7-1-15.3-3.8c1.6-2.7,2.9-5.5,3.8-8.5c-4.2,2.9-7.9,6.5-10.9,10.7
	c-2.3-0.6-3.8-2.9-5.4-4.7c-2.1-2.3-4.7-4.1-7.7-5.1c-0.6-0.2-1.4-0.5-1.5-1.2c0-0.4,0.2-0.8,0.5-1.1c1.9-2.4,4.4-4.2,6.5-6.4
	c2.9-3.2,4.9-7.2,7.9-10.3c2-2,4.1-3.8,6.5-5.3c1.9-1.7,4.5-2.4,7-1.8c7.2,0.7,14.7,1.1,21.8,2.6c0.1,0,0.1,0,0.2,0
	C155.7,109.2,153.5,117.3,151.8,121.3L151.8,121.3z"/>
<path id="Tracé_34" class="st4" d="M106.7,177.1c-1.3,2.2-3.4,3.8-5.8,4.4c-2.4,0.6-4.9,0.9-7.4,0.7c-0.9,0.1-1.9-0.1-2.7-0.6
	c-0.7-0.5-1.1-1.4-1.1-2.3c0-0.6,0.1-1.1,0.3-1.7c0.7-1.3,1.6-2.4,2.8-3.3c1.2-0.8,2.2-1.9,3-3.1c0.4-0.6,0.6-1.4,1-2
	c0.4-0.7,1-1.1,1.8-1.2c0.9,0.2,1.7,0.6,2.2,1.3c0.7,0.6,1.7,1,2.4,0.5c0.3-0.2,0.5-0.5,0.7-0.8c0.4-0.6,1.6-1.8,2.5-1.6
	c0.9,0.3,1,1.7,1.2,2.6c0.1,0.7,0.2,1.4,0.3,2.1C107.8,173.8,107.5,175.6,106.7,177.1z"/>
<linearGradient id="Tracé_37_1_" gradientUnits="userSpaceOnUse" x1="-114.0046" y1="390.1645" x2="-110.9586" y2="391.1335" gradientTransform="matrix(1.9907 0 0 -3.181 346.2992 1305.118)">
	<stop  offset="0" style="stop-color:#010101;stop-opacity:0"/>
	<stop  offset="0.24" style="stop-color:#010101;stop-opacity:0.239"/>
	<stop  offset="0.95" style="stop-color:#010101"/>
</linearGradient>
<path id="Tracé_37" class="st17" d="M121,62.8c0-0.1,0-0.3,0-0.4c0-0.1-0.1-0.2-0.2-0.4c-0.1-0.2-0.3-0.3-0.5-0.4c0,0-0.1,0-0.1,0
	c0,0-0.1,0-0.1,0.1c-0.1,0.1-0.2,0.3-0.2,0.5c0,0.5,0.1,0.9,0.4,1.3c0.2,0.5,0.5,1,0.9,1.3c0.1,0.1,0.3,0.1,0.5,0
	c0.2-0.1,0.3-0.4,0.2-0.6C121.8,63.6,121.1,63.4,121,62.8z"/>
<linearGradient id="Tracé_38_1_" gradientUnits="userSpaceOnUse" x1="-162.1066" y1="437.5193" x2="-159.5186" y2="435.8293" gradientTransform="matrix(6.8701 0 0 -6.8848 1211.3618 3182.9473)">
	<stop  offset="0" style="stop-color:#010101;stop-opacity:0"/>
	<stop  offset="0.95" style="stop-color:#010101"/>
</linearGradient>
<path id="Tracé_38" class="st18" d="M102.7,170.9c-0.6,0.6-1.3,1-2,1.5c-0.6,0.5-1.2,1-1.7,1.6c-0.5,0.8-1.2,1.4-2,1.9l2.6-3.2
	c0.2-0.3,0.4-0.5,0.6-0.8c0.2-0.6,0.3-1.2,0.1-1.8c0-0.1,0-0.2,0-0.3c0.1-0.2,0.4-0.4,0.6-0.3c0.2,0,0.5,0.2,0.7,0.2
	c0.5,0.1,1.8-0.8,2.1-0.6C104.3,169.4,103.1,170.6,102.7,170.9L102.7,170.9z"/>
<linearGradient id="Tracé_39_1_" gradientUnits="userSpaceOnUse" x1="-174.002" y1="450.4234" x2="-173.5529" y2="447.6034" gradientTransform="matrix(18.0863 0 0 -10.1355 3245.3489 4739.8979)">
	<stop  offset="0" style="stop-color:#010101;stop-opacity:0"/>
	<stop  offset="0.95" style="stop-color:#010101"/>
</linearGradient>
<path id="Tracé_39" class="st19" d="M106.7,177.1c-1.3,2.2-3.4,3.8-5.8,4.4c-2.4,0.6-4.9,0.9-7.4,0.7c-0.9,0.1-1.9-0.1-2.7-0.6
	c-0.7-0.5-1.1-1.4-1.1-2.3c0.3-0.1,0.7-0.1,1-0.1c2.6,0.2,5.3,0,7.9-0.7c3-0.8,5.7-2.6,7.5-5.1c0.2-0.4,0.5-0.8,0.9-1.1
	c0.2-0.2,0.5-0.3,0.8-0.3C107.8,173.8,107.5,175.6,106.7,177.1L106.7,177.1z"/>
<linearGradient id="Tracé_40_1_" gradientUnits="userSpaceOnUse" x1="-161.8028" y1="462.282" x2="-156.5108" y2="461.8231" gradientTransform="matrix(6.6445 0 0 -18.14 1213.4734 8535.6436)">
	<stop  offset="0" style="stop-color:#010101;stop-opacity:0"/>
	<stop  offset="0.95" style="stop-color:#010101"/>
</linearGradient>
<path id="Tracé_40" class="st20" d="M144.6,155.6c-0.6,1.4-1.5,2.7-2.7,3.6c-0.5,0.3-1.1,0.5-1.7,0.6c0-0.5,0.1-1,0.4-1.3
	c2.6-4.1,4.7-9,3.7-13.7c-0.2-0.9-1.1-3,0.4-3.1c0.7,0.7,1.3,1.6,1.7,2.6C147.6,148,146.4,152.1,144.6,155.6z"/>
<linearGradient id="Tracé_41_1_" gradientUnits="userSpaceOnUse" x1="-174.0366" y1="465.1863" x2="-171.6376" y2="464.5243" gradientTransform="matrix(17.4797 0 0 -22.273 3154.5793 10488.957)">
	<stop  offset="0" style="stop-color:#010101;stop-opacity:0"/>
	<stop  offset="0.95" style="stop-color:#010101"/>
</linearGradient>
<path id="Tracé_41" class="st21" d="M126.7,119.5c-5.8,5.3-11.5,10.6-16.8,16.3c-0.3,0.3-0.6,0.7-0.6,1.2c0,0.4,0.2,0.7,0.5,1
	c1.2,1.4,2.5,2.7,4,3.8c-0.2-0.1,9.2-9.4,10-10.2C126.5,128.9,126.8,123.1,126.7,119.5L126.7,119.5z"/>
<linearGradient id="Tracé_42_1_" gradientUnits="userSpaceOnUse" x1="-175.1486" y1="469.9954" x2="-170.3366" y2="467.0334" gradientTransform="matrix(19.1381 0 0 -34.874 3481.6589 16500.7637)">
	<stop  offset="0" style="stop-color:#010101;stop-opacity:0"/>
	<stop  offset="0.95" style="stop-color:#010101"/>
</linearGradient>
<path id="Tracé_42" class="st22" d="M151.8,121.3c-1.8,4-4.4,7.6-6.6,11.4c-1.1,2-2.1,4.1-2.9,6.2c-0.3,1.3-1,2.4-2,3.2
	c-0.7,0.4-1.4,0.6-2.1,0.6c-0.5,0.1-1,0.1-1.6,0.1c-0.4-0.1-0.8-0.2-1.2-0.4c-0.2-0.1-0.5-0.2-0.6-0.4c-0.2-0.4-0.2-0.8-0.1-1.1
	c0.6-2.7,1.8-5.3,3.5-7.4c1.4-1.7,3-3.1,4.1-5c0.6-1.3,1.2-2.6,1.6-4c1.8-4.7,4.2-8.8,4.8-13.9c0.2-1.6,0.3-2.6,1-2.6
	c0.1,0,0.1,0,0.2,0C155.7,109.2,153.5,117.3,151.8,121.3L151.8,121.3z"/>
<path id="Tracé_43" class="st23" d="M137.6,69.6l0,7.4c0.1,1.5-0.1,3-0.7,4.4c-0.4,0.7-1,1.4-1.7,1.9c-0.3,0.3-0.7,0.6-1,0.7
	c-0.4,0.1-0.8,0.2-1.2,0.2c-1.2,0.1-2.5,0-3.7-0.1c-0.6,0-1.1-0.1-1.7-0.3c-0.9-0.4-1.7-1.1-2.2-1.9c-2.3-3-3.6-6.8-6.5-9.1"/>
<path id="Tracé_44" class="st23" d="M140,69.4c0,0,0.4,16,10.3,20.7"/>
<path id="Tracé_45" class="st23" d="M115.8,74.7c0,0,5.9,7.5,6.2,10.4c0.1,2.4,0,4.8-0.4,7.2"/>
<path id="Tracé_46" class="st23" d="M100.1,129.3c0,0,7.1,1.2,9.3,4s5.8,6.7,5.8,6.7"/>
<path id="Tracé_47" class="st23" d="M122.8,137c0,0,4.2,2.5,8.2,2.6c3.8,0,7.5-0.2,11.3-0.6"/>
</svg>
