<?xml version="1.0" encoding="utf-8"?>
<!-- Generator: Adobe Illustrator 21.1.0, SVG Export Plug-In . SVG Version: 6.00 Build 0)  -->
<svg version="1.1" id="competition" xmlns="http://www.w3.org/2000/svg" xmlns:xlink="http://www.w3.org/1999/xlink" x="0px"
	 y="0px" viewBox="0 0 244 199.3" style="enable-background:new 0 0 244 199.3;" xml:space="preserve">
<style type="text/css">
	.st0{fill:#FCE8C9;}
	.st1{fill:#FFFFFF;}
	.st2{fill:#F5A572;}
	.st3{fill:#2E2E3F;}
	.st4{fill:#F3BD8F;}
	.st5{fill:#F5A472;}
	.st6{fill:url(#Tracé_62_1_);}
	.st7{fill:url(#Tracé_63_1_);}
	.st8{fill:url(#Tracé_64_1_);}
	.st9{fill:#68E1FD;}
	.st10{fill:url(#Tracé_77_1_);}
	.st11{fill:url(#Tracé_78_1_);}
	.st12{fill:url(#Tracé_79_1_);}
	.st13{fill:url(#Tracé_92_1_);}
	.st14{fill:url(#Tracé_93_1_);}
	.st15{fill:url(#Tracé_94_1_);}
</style>
<path id="Tracé_48" class="st0" d="M280.7,126.2c0,7.5,1.9,23.2-4.8,28.8c-12.1,10.1-24.9,19.3-38.4,27.5c-5.7,3.4-11.5,6.7-18,8.9
	c-0.9,0.3-1.8,0.6-2.7,0.8c-1.1,0.3-2.1,0.6-3.2,0.8c-0.7,0.2-1.4,0.3-2.1,0.4c-6,1-12,1.6-18,1.8l-3.9,0.2l-3,0.2l-2.3,0.1
	c-4.5,0.2-9.1,0.4-13.8,0.5c-8.7,0.3-17.6,0.5-26.5,0.7l-48.7,1.2c-11.5,0-22.9,0.4-34.4,0.5h-5.3c-2.6,0-5.1,0-7.7-0.1
	c-4.8-0.2-9.5-0.9-14.1-2.2h-0.1c-1-0.3-2-0.6-3-0.9l-2.3-0.7c-2.3-0.8-4.6-1.5-6.8-2.4c-4.9-1.8-9.8-3.7-14.5-5.3
	c-9.1-3.1-18.2-6.2-26.4-10.7c-25.9-14-41.2-40.8-41.8-67.5S-22-16.6-2.1-36.7c30.3-21.3,238.7-5.7,252.1,5.3
	c20.5,14.9,32.2,99,28,111.3C278,79.9,275.9,112.6,280.7,126.2z"/>
<path id="Tracé_49" class="st1" d="M24.6,123c2.4,0.7,5.2,1.4,7.3,0c1.3-0.9,1.9-2.5,3.1-3.5c1.8-1.4,4.1-1.8,6.3-1.1
	c2.1,0.7,4.1,1.8,5.9,3.2c1.9-2.7,5.9-2.9,8.8-1.5c2.9,1.4,5.1,3.9,7.4,6.2c0.8,0.9,1.7,1.5,2.8,2c1,0.2,1.9,0.3,2.9,0.2
	c3.9,0,7.7,1.2,10.8,3.5c0.8,0.5,1.4,1.2,1.9,2c0.8,1.8-0.4,3.8-1.8,5c-4.1,3.7-10.2,3.6-15.6,3.4l-40.6-1.6c-3.1,0-6.2-0.4-9.2-1.1
	c-5.3-1.5-9.8-7.2-6.3-12.7C11.6,121.7,19.3,121.5,24.6,123L24.6,123z"/>
<path id="Tracé_50" class="st2" d="M63.1,60.3v137.1c-1.2-0.4-2.4-0.8-3.6-1.2V60.3H63.1z"/>
<path id="Tracé_51" class="st2" d="M81.4,60.3v138.9h-3.6V60.3H81.4z"/>
<path id="Rectangle_22" class="st2" d="M61,65h18.3v2.9H61V65z"/>
<path id="Rectangle_23" class="st2" d="M61,75.8h18.3v2.9H61V75.8z"/>
<path id="Rectangle_24" class="st2" d="M61,86.6h18.3v2.9H61V86.6z"/>
<path id="Rectangle_25" class="st2" d="M61,97.4h18.3v2.9H61V97.4z"/>
<path id="Rectangle_26" class="st2" d="M61,108.2h18.3v2.9H61V108.2z"/>
<path id="Rectangle_27" class="st2" d="M61,119h18.3v2.9H61V119z"/>
<path id="Rectangle_28" class="st2" d="M61,129.8h18.3v2.9H61V129.8z"/>
<path id="Rectangle_29" class="st2" d="M61,140.6h18.3v2.9H61V140.6z"/>
<path id="Rectangle_30" class="st2" d="M61,151.4h18.3v2.9H61V151.4z"/>
<path id="Rectangle_31" class="st2" d="M61,162.2h18.3v2.9H61V162.2z"/>
<path id="Rectangle_32" class="st2" d="M61,173h18.3v2.9H61V173z"/>
<path id="Rectangle_33" class="st2" d="M61,183.8h18.3v2.9H61V183.8z"/>
<path id="Tracé_52" class="st2" d="M79.3,194.6v2.9H63.1c-0.7-0.2-1.4-0.4-2-0.7v-2.2H79.3z"/>
<path id="Tracé_53" class="st2" d="M168.2,126.2v70.5l-2,0.1l-1.5,0.1v-70.7L168.2,126.2L168.2,126.2z"/>
<path id="Tracé_54" class="st2" d="M186.5,126.2v68c-0.7,0.2-1.4,0.4-2.2,0.6c-0.5,0.1-0.9,0.2-1.4,0.3v-68.9
	C182.9,126.2,186.5,126.2,186.5,126.2z"/>
<path id="Rectangle_34" class="st2" d="M166.1,130.8h18.3v2.9h-18.3V130.8z"/>
<path id="Rectangle_35" class="st2" d="M166.1,141.6h18.3v2.9h-18.3V141.6z"/>
<path id="Rectangle_36" class="st2" d="M166.1,152.4h18.3v2.9h-18.3V152.4z"/>
<path id="Rectangle_37" class="st2" d="M166.1,163.2h18.3v2.9h-18.3V163.2z"/>
<path id="Rectangle_38" class="st2" d="M166.1,173.6h18.3v2.9h-18.3V173.6z"/>
<path id="Rectangle_39" class="st2" d="M166.1,183.9h18.3v2.9h-18.3V183.9z"/>
<path id="Tracé_55" class="st2" d="M184.4,194.3v0.5c-0.5,0.1-0.9,0.2-1.4,0.3c-4,0.8-8.1,1.3-12.1,1.4l-2.7,0.2l-2,0.1v-2.6
	L184.4,194.3z"/>
<path id="Rectangle_40" class="st2" d="M113,0h3.6v197.2H113V0z"/>
<path id="Rectangle_41" class="st2" d="M131.4,0h3.6v197.2h-3.6V0z"/>
<path id="Rectangle_42" class="st2" d="M114.6,4.7h18.3v2.9h-18.3C114.6,7.6,114.6,4.7,114.6,4.7z"/>
<path id="Rectangle_43" class="st2" d="M114.6,15.5h18.3v2.9h-18.3C114.6,18.4,114.6,15.5,114.6,15.5z"/>
<path id="Rectangle_44" class="st2" d="M114.6,26.3h18.3v2.9h-18.3C114.6,29.2,114.6,26.3,114.6,26.3z"/>
<path id="Rectangle_45" class="st2" d="M114.6,37h18.3v3h-18.3C114.6,40,114.6,37,114.6,37z"/>
<path id="Rectangle_46" class="st2" d="M114.6,47.8h18.3v2.9h-18.3C114.6,50.7,114.6,47.8,114.6,47.8z"/>
<path id="Rectangle_47" class="st2" d="M114.6,58.6h18.3v2.9h-18.3C114.6,61.5,114.6,58.6,114.6,58.6z"/>
<path id="Rectangle_48" class="st2" d="M114.6,69.4h18.3v2.9h-18.3C114.6,72.3,114.6,69.4,114.6,69.4z"/>
<path id="Rectangle_49" class="st2" d="M114.6,80.2h18.3v2.9h-18.3C114.6,83.1,114.6,80.2,114.6,80.2z"/>
<path id="Rectangle_50" class="st2" d="M114.6,91h18.3v2.9h-18.3C114.6,93.9,114.6,91,114.6,91z"/>
<path id="Rectangle_51" class="st2" d="M114.6,101.8h18.3v2.9h-18.3C114.6,104.7,114.6,101.8,114.6,101.8z"/>
<path id="Rectangle_52" class="st2" d="M114.6,112.6h18.3v2.9h-18.3C114.6,115.5,114.6,112.6,114.6,112.6z"/>
<path id="Rectangle_53" class="st2" d="M114.6,123.4h18.3v2.9h-18.3C114.6,126.3,114.6,123.4,114.6,123.4z"/>
<path id="Rectangle_54" class="st2" d="M114.6,134.2h18.3v2.9h-18.3C114.6,137.1,114.6,134.2,114.6,134.2z"/>
<path id="Rectangle_55" class="st2" d="M114.6,144.7h18.3v2.9h-18.3C114.6,147.6,114.6,144.7,114.6,144.7z"/>
<path id="Rectangle_56" class="st2" d="M114.6,155.3h18.3v2.9h-18.3C114.6,158.2,114.6,155.3,114.6,155.3z"/>
<path id="Rectangle_57" class="st2" d="M114.6,165.8h18.3v2.9h-18.3C114.6,168.7,114.6,165.8,114.6,165.8z"/>
<path id="Rectangle_58" class="st2" d="M114.6,176.4h18.3v2.9h-18.3C114.6,179.3,114.6,176.4,114.6,176.4z"/>
<path id="Rectangle_59" class="st2" d="M114.6,186.9h18.3v2.9h-18.3C114.6,189.8,114.6,186.9,114.6,186.9z"/>
<path id="Tracé_56" class="st3" d="M67.7,83.1c-2.3,1.7-0.7,10.7-0.3,12.1c0.1,0.2,0.3,0.4,0.5,0.5c0.8,0.2,1.4,0,1.3-1
	c-0.2-1.6-0.3-3.3-0.3-4.9c0-0.4,0.2-0.8,0.5-1.1c0.2-0.1,0.4-0.1,0.6-0.1c0.6,0,1-0.1,1.3,0.4c0.4,0.7,0.7,1.6,0.7,2.4
	c0.1,1.1,0.2,2.2,0.3,3.3c0.3,2.2,0.5,4.4,0.5,6.7c-0.1,1.1,0,2.1,0.4,3.1c0.2,0.4,0.5,0.7,0.9,0.8c1.4,0.2,1.2-4.8,1.2-5.7
	c0.1-2.4,0.1-4.8,0.2-7.2c0-1.6,0-3.2,0.1-4.9c0-0.2,0-0.5,0-0.7c-0.1-0.2-0.7-0.2-0.9-0.4c-0.8-0.7-1.7-1.3-2.7-1.8
	C71.3,84.2,68.5,82.5,67.7,83.1z"/>
<path id="Tracé_57" class="st2" d="M73.2,73.3c1.2,0,2.3,0.6,2.9,1.6c0.2,0.4,0.3,0.9,0.3,1.3c0.2,2.2,0.3,4.4,0.3,6.5
	c0,0.6,0,1.1-0.1,1.7c-0.1,0.5-0.2,0.9-0.3,1.3c-0.2,0.5-0.5,1-1,1.3c-0.6,0.3-1.3,0.4-2,0.3c-0.7,0-1.4-0.1-2-0.3
	c-0.7-0.2-1.2-0.7-1.4-1.4c-0.1-0.4-0.1-0.8-0.1-1.3l0.3-5.9c0-1,0.1-2,0.1-3c0-0.6,0.4-3.1,1-3.5C71.9,71.6,72.6,73.2,73.2,73.3z"
	/>
<path id="Tracé_58" class="st4" d="M68.8,64.3c0-0.2,0-0.4,0.1-0.6c0.2-0.1,0.3-0.1,0.5-0.1l0.8,0.1c0.1,0,0.1,0,0.2,0.1
	s0.2,0.3,0.2,0.4s0.1,0.4,0.3,0.4c0.1,0,0.1,0,0.2,0c0.1,0,0.1,0.1,0.1,0.2s-0.1,0.3-0.2,0.3c-0.1,0.1-0.2,0.1-0.3,0.2
	c-0.2,0.1-0.3,0.3-0.4,0.6c0,0.1-0.1,0.3-0.1,0.4c-0.1,0.2-0.4,0.3-0.6,0.3c-0.4-0.1-0.5-0.4-0.5-0.7C68.9,65.4,68.9,64.9,68.8,64.3
	L68.8,64.3z"/>
<path id="Tracé_59" class="st2" d="M71.6,71.6c-0.2-0.2-0.3-0.4-0.4-0.6s-0.1-0.4-0.1-0.6l-0.2-2.8c0-0.7-0.1-1.4-0.3-2.1
	c-0.2-0.2-0.6-0.3-0.9-0.2H69c-0.1,0-0.2,0-0.4,0.1c-0.1,0.5-0.2,1.1-0.2,1.6v3.8c0,0.8,0.1,1.5,0.2,2.3c0.2,0.7,0.5,1.3,0.9,2
	c0.3,0.6,0.7,1.2,1,1.8c0.1,0.2,0.3,0.5,0.6,0.4c0.1,0,0.2-0.1,0.3-0.2c0.7-0.9,1.1-2,1.1-3.2c0.1-0.3,0.1-0.6-0.1-0.9
	C72.3,72.5,71.9,72,71.6,71.6z"/>
<path id="Tracé_60" class="st4" d="M81.2,74.8c-0.1,0-0.2-0.1-0.3-0.1s-0.3,0.2-0.3,0.3s0,0.3,0,0.5c0,0.3-0.1,0.5-0.2,0.8
	s-0.1,0.5,0,0.8c0.1,0.2,0.3,0.4,0.5,0.3s0.3-0.3,0.4-0.4c0.2-0.4,0.7-0.6,0.8-1c0-0.3-0.1-0.6-0.1-0.9c0-0.1,0-0.2,0-0.3
	C81.9,74.4,81.4,74.9,81.2,74.8L81.2,74.8z"/>
<path id="Tracé_61" class="st5" d="M76.2,74.7c1.1,1.2,2,2.6,2.7,4c0.6-0.5,0.7-1.4,1.1-2.1c0.1-0.2,0.2-0.3,0.4-0.3
	c0.2,0,0.3,0.1,0.4,0.2c0.5,0.6,0.7,1.4,0.7,2.2c-0.1,0.8-0.3,1.5-0.6,2.3c-0.2,0.5-0.5,1-0.9,1.4c-0.1,0.1-0.3,0.2-0.5,0.3
	c-0.2,0-0.4,0-0.6-0.1c-0.3-0.2-0.6-0.4-0.8-0.6c-0.7-0.6-1.4-1.3-2-2.1c-1-1-1.7-2.4-1.9-3.8c-0.1-0.7,0.1-1.4,0.6-1.8
	C75.3,73.8,75.8,74.4,76.2,74.7L76.2,74.7z"/>
<linearGradient id="Tracé_62_1_" gradientUnits="userSpaceOnUse" x1="-336.4926" y1="73.9442" x2="-335.7666" y2="72.5522" gradientTransform="matrix(13.0561 0 0 22.0804 4461.9648 -1539.4764)">
	<stop  offset="1.000000e-02" style="stop-color:#000000"/>
	<stop  offset="0.13" style="stop-color:#000000;stop-opacity:0.69"/>
	<stop  offset="1" style="stop-color:#000000;stop-opacity:0"/>
</linearGradient>
<path id="Tracé_62" class="st6" d="M81.5,78.7c-0.1,0.8-0.3,1.5-0.6,2.3c-0.2,0.5-0.5,1-0.9,1.4c-0.1,0.1-0.3,0.2-0.5,0.3
	c-0.2,0-0.4,0-0.6-0.1c-0.3-0.2-0.6-0.4-0.8-0.6c-0.5-0.4-0.9-0.9-1.3-1.3v2c0,0.6,0,1.1-0.1,1.7c-0.1,0.5-0.2,0.9-0.3,1.3
	c-0.2,0.5-0.5,1-1,1.3c-0.3,0.2-0.6,0.3-0.9,0.3c-0.4,0-0.8,0-1.1,0c-0.7,0-1.4-0.1-2-0.3c-0.7-0.2-1.2-0.7-1.4-1.4
	c-0.1-0.4-0.1-0.8-0.1-1.3c0.1-2,0.2-4,0.3-5.9l0.1-2.3l-0.6-1c-0.4-0.6-0.7-1.3-0.9-2c-0.2-0.7-0.3-1.5-0.2-2.3c0-1.3,0-2.6,0-3.8
	c0-0.6,0.1-1.1,0.2-1.6c0.1-0.1,0.2-0.1,0.4-0.1H70h0.3c0.2,0,0.4,0.1,0.6,0.2c0.2,0.7,0.3,1.4,0.3,2.1l0.2,2.8c0,0.2,0,0.4,0.1,0.6
	s0.2,0.4,0.4,0.6c0.2,0.3,0.4,0.5,0.6,0.8c0.4,0.4,0.7,0.8,1.1,0.9c1,0,1.9,0.4,2.6,1.1c0.1,0.1,0.3,0.2,0.4,0.3
	c1.1,1.2,2,2.5,2.7,4c0.6-0.5,0.7-1.4,1.1-2.1c0.1-0.2,0.2-0.3,0.4-0.3c0.2,0,0.3,0.1,0.4,0.2C81.3,77.1,81.5,77.9,81.5,78.7
	L81.5,78.7z"/>
<linearGradient id="Tracé_63_1_" gradientUnits="userSpaceOnUse" x1="-332.1527" y1="87.165" x2="-331.2157" y2="85.694" gradientTransform="matrix(11.022 0 0 14.7183 3732.3833 -1203.4854)">
	<stop  offset="2.000000e-02" style="stop-color:#FFFFFF;stop-opacity:0"/>
	<stop  offset="0.58" style="stop-color:#FFFFFF;stop-opacity:0.388"/>
	<stop  offset="0.68" style="stop-color:#FFFFFF;stop-opacity:0.678"/>
	<stop  offset="1" style="stop-color:#FFFFFF"/>
</linearGradient>
<path id="Tracé_63" class="st7" d="M80.8,76.5c-1.2,4.3-1.6,3.4-1.6,3.4s-0.9-0.4-2.4-2.9s-2.8-2.5-4.1-3c-1.1-0.6-2-1.6-2.3-2.9
	c-0.3-0.8-0.6-5.9-0.6-5.9h0.3c0.2,0,0.4,0.1,0.6,0.2c0.2,0.7,0.3,1.4,0.3,2.1l0.2,2.8c0,0.2,0,0.4,0.1,0.6s0.2,0.4,0.4,0.6
	c0.2,0.3,0.4,0.5,0.6,0.8c0.4,0.4,0.7,0.8,1.1,0.9c1,0,1.9,0.4,2.6,1.1c0.1,0.1,0.3,0.2,0.4,0.3c1.1,1.2,2,2.5,2.7,4
	c0.6-0.5,0.7-1.4,1.1-2.1c0.1-0.2,0.2-0.3,0.4-0.3C80.6,76.3,80.7,76.3,80.8,76.5z"/>
<linearGradient id="Tracé_64_1_" gradientUnits="userSpaceOnUse" x1="-284.6677" y1="125.664" x2="-280.7027" y2="126.468" gradientTransform="matrix(3.9306 0 0 7.4765 1187.2104 -858.2886)">
	<stop  offset="1.000000e-02" style="stop-color:#000000"/>
	<stop  offset="0.13" style="stop-color:#000000;stop-opacity:0.69"/>
	<stop  offset="1" style="stop-color:#000000;stop-opacity:0"/>
</linearGradient>
<path id="Tracé_64" class="st8" d="M76.7,84.4c-0.1,0.5-0.2,0.9-0.3,1.3c-0.2,0.5-0.5,1-1,1.3c-0.3,0.2-0.6,0.3-0.9,0.3
	c-1.9,0.2-2.7,0.1,0.3-1.3c1.2-0.5,1.2-6.1,1.2-6.1l0.8,0.7v2C76.7,83.2,76.7,83.8,76.7,84.4L76.7,84.4z"/>
<path id="Tracé_65" class="st4" d="M72.8,71.9c0.1-0.9,0.4-1.7,0.9-2.5c0.1-0.1,0.2-0.2,0.3-0.2c0.1,0,0.2,0,0.3,0l1.3,0.3
	c0.1,0,0.2,0,0.3,0.1c0.2,0.1,0.3,0.3,0.4,0.6c0.2,0.5,0.3,1,0.3,1.5c0,0.4-0.1,0.7-0.3,1c-0.4,0.5-1.2,0.4-1.6,0.9
	c-0.2,0.2-0.2,0.5-0.4,0.7c-0.1,0-0.2,0.1-0.3,0.1c-0.4,0-0.8,0-1.1-0.2c-0.3-0.2-0.3-0.6-0.2-1S72.6,72.3,72.8,71.9L72.8,71.9z"/>
<path id="Tracé_66" class="st3" d="M73.9,68.2c-0.5,0.1-0.9,0.3-1.2,0.7c-0.3,0.5-0.4,1.1-0.3,1.7s0.1,1.2,0,1.8
	c0,0.1-0.1,0.2,0,0.3c0.1,0.1,0.3,0.1,0.4,0c0,0.1,0.1,0.3,0.2,0.3s0.3,0,0.4-0.1c0,0.2,0.2,0.3,0.4,0.2c0.1-0.1,0.3-0.2,0.3-0.4
	l0.3-0.7v-0.1c0-0.1,0-0.1-0.1-0.2c-0.1-0.2-0.2-0.4-0.2-0.6c0-0.1,0.1-0.2,0.2-0.3c0.1,0,0.3,0,0.3,0.1c0.1,0.1,0.1,0.2,0.1,0.4
	l0.1,0.6c0,0.1,0,0.2,0.1,0.1s0,0,0.1-0.1c0.1-0.5,0.1-0.9,0.1-1.4c0,0,0,0,0-0.1h0.1c0.4,0,0.7-0.1,1-0.3c0.3-0.2,0.5-0.5,0.6-0.9
	c0-0.2-0.1-0.3-0.2-0.5l-0.1-0.1l-0.1-0.1c-0.1-0.2-0.1-0.3-0.2-0.5c-0.2-0.4-0.6-0.3-0.9-0.2C74.8,68.2,74.3,68.2,73.9,68.2
	L73.9,68.2z"/>
<path id="Tracé_67" class="st1" d="M67.8,94.1c-0.1,0.3-0.2,0.6-0.2,1c0,0.8,0,1.5,0.2,2.3c0,0.3,0.2,0.5,0.4,0.6
	c0.2,0.1,0.5,0,0.6-0.2c0.4-0.5,0.5-1.1,0.4-1.7c0-0.6-0.1-1.2-0.2-1.8c0-0.2-0.1-0.3-0.2-0.5C68.7,93.3,68,93.8,67.8,94.1
	L67.8,94.1z"/>
<path id="Tracé_68" class="st3" d="M68.7,95.8c-0.5,0.1-0.9,0.5-1.1,1c-0.1,0.2,0,0.5-0.1,0.7s-0.2,0.5-0.3,0.7S67,98.7,66.9,99
	c-0.1,0.2-0.1,0.5,0,0.8c0.1,0.2,0.3,0.4,0.5,0.5c0.1,0,0.3,0,0.4,0c0.6-0.2,1.1-0.6,1.3-1.1c0.3-0.5,0.5-1.1,0.5-1.7
	c0.1-0.5,0.2-0.9,0-1.4C69.5,95.6,69,95.7,68.7,95.8L68.7,95.8z"/>
<path id="Tracé_69" class="st1" d="M73.7,103.4c-0.2,0.1-0.3,0.2-0.4,0.3c-0.1,0.2-0.2,0.5-0.1,0.8l0.1,1.3c0,0.2,0.1,0.5,0.2,0.6
	c0.4,0.2,1,0.1,1.3-0.3c0-0.1,0.1-0.2,0.1-0.3c0-0.6,0-1.2-0.1-1.8c0-0.2,0-0.5-0.2-0.6C74.3,103.2,74,103.2,73.7,103.4z"/>
<path id="Tracé_70" class="st3" d="M73.1,106.5c0-0.2,0.1-0.5,0.4-0.6c0.1,0,0.2-0.1,0.3-0.1l0.7-0.1c0.1,0,0.1,0,0.2,0
	s0.1,0.1,0.2,0.1c0.2,0.4,0.3,0.8,0.2,1.3c0.1,0.3,0.2,0.7,0.3,1c0.1,0.3,0.2,0.7,0.1,1c0,0.1-0.1,0.2-0.1,0.2
	c-0.1,0.1-0.3,0.2-0.4,0.2c-0.2,0-0.3,0-0.5,0c-0.1,0-0.3-0.1-0.4-0.1c-0.1-0.1-0.2-0.2-0.3-0.3c-0.2-0.2-0.3-0.4-0.4-0.6
	s-0.1-0.4-0.2-0.6c-0.1-0.5-0.1-1.1-0.1-1.7"/>
<path id="Tracé_71" class="st3" d="M178.3,149.4c2.3,1.7,0.7,10.6,0.3,12c-0.1,0.2-0.3,0.4-0.5,0.5c-0.8,0.2-1.3,0-1.3-0.9
	c0.2-1.6,0.3-3.2,0.3-4.9c0-0.4-0.2-0.8-0.5-1c-0.2-0.1-0.4-0.1-0.5-0.1c-0.6,0-1-0.1-1.3,0.4c-0.4,0.7-0.6,1.5-0.7,2.4
	c-0.1,1.1-0.2,2.2-0.3,3.3c-0.3,2.2-0.5,4.4-0.5,6.6c0.1,1,0,2.1-0.4,3.1c-0.2,0.4-0.5,0.7-0.9,0.8c-1.4,0.2-1.2-4.8-1.2-5.6
	c-0.1-2.4-0.1-4.8-0.2-7.1c0-1.6,0-3.2-0.1-4.8c0-0.2,0-0.5,0-0.7c0.1-0.2,0.7-0.2,0.8-0.4c0.8-0.7,1.7-1.3,2.6-1.8
	C174.8,150.5,177.5,148.8,178.3,149.4L178.3,149.4z"/>
<path id="Tracé_72" class="st9" d="M172.8,139.7c-1.2,0-2.3,0.6-2.9,1.6c-0.2,0.4-0.3,0.8-0.3,1.3c-0.2,2.1-0.3,4.3-0.3,6.5
	c0,0.6,0,1.1,0.1,1.7c0.1,0.5,0.2,0.9,0.3,1.3c0.2,0.5,0.5,1,1,1.3c0.6,0.3,1.3,0.4,2,0.3c0.7,0,1.3-0.1,2-0.3s1.2-0.7,1.4-1.4
	c0.1-0.4,0.1-0.8,0.1-1.2l-0.3-5.9l-0.1-3c0-0.6-0.4-3.1-1-3.4S173.5,139.6,172.8,139.7L172.8,139.7z"/>
<path id="Tracé_73" class="st4" d="M177.2,130.8c0-0.2,0-0.4-0.1-0.6c-0.2-0.1-0.3-0.1-0.5-0.1l-0.8,0.1c-0.1,0-0.1,0-0.2,0.1
	c-0.1,0.1-0.1,0.3-0.2,0.4s-0.1,0.4-0.3,0.4c-0.1,0-0.1,0-0.2,0c-0.1,0-0.1,0.1-0.1,0.2c0,0.1,0.1,0.3,0.2,0.3
	c0.1,0.1,0.2,0.1,0.3,0.2c0.2,0.1,0.3,0.3,0.4,0.6c0,0.1,0.1,0.3,0.1,0.4c0.1,0.2,0.4,0.3,0.6,0.3c0.4-0.1,0.5-0.4,0.5-0.7
	C177.1,131.9,177.2,131.4,177.2,130.8L177.2,130.8z"/>
<path id="Tracé_74" class="st9" d="M174.5,138c0.2-0.2,0.3-0.4,0.4-0.6c0.1-0.2,0.1-0.4,0.1-0.6l0.2-2.7c0-0.7,0.1-1.4,0.3-2.1
	c0.2-0.2,0.5-0.3,0.8-0.2h0.8c0.1,0,0.2,0,0.3,0.1c0.1,0.5,0.2,1.1,0.2,1.6c0,1.3,0,2.5,0,3.8c0,0.8-0.1,1.5-0.2,2.3
	c-0.2,0.7-0.5,1.3-0.9,1.9c-0.3,0.6-0.7,1.2-1,1.8c-0.1,0.2-0.3,0.5-0.5,0.4c-0.1,0-0.2-0.1-0.3-0.2c-0.7-0.9-1.1-2-1.1-3.1
	c-0.1-0.3-0.1-0.6,0.1-0.9C173.8,139,174.1,138.5,174.5,138L174.5,138z"/>
<path id="Tracé_75" class="st4" d="M165,141.2c0.1,0,0.2-0.1,0.3-0.1s0.3,0.2,0.3,0.3s0,0.3,0,0.5c0,0.3,0.1,0.5,0.2,0.8
	c0.1,0.3,0.1,0.5,0,0.8c-0.1,0.2-0.3,0.4-0.5,0.3c-0.2-0.1-0.2-0.3-0.3-0.4c-0.2-0.4-0.7-0.6-0.8-1c0-0.3,0.1-0.6,0.1-0.9
	c0-0.1,0-0.2,0-0.3C164.3,140.8,164.8,141.3,165,141.2z"/>
<path id="Tracé_76" class="st9" d="M169.9,141.2c-1.1,1.2-2,2.5-2.6,4c-0.6-0.5-0.7-1.4-1.1-2.1c-0.1-0.2-0.2-0.3-0.4-0.3
	s-0.3,0.1-0.4,0.2c-0.5,0.6-0.7,1.4-0.7,2.2c0.1,0.8,0.3,1.5,0.6,2.2c0.2,0.5,0.5,1,0.9,1.4c0.1,0.1,0.3,0.2,0.5,0.3
	c0.2,0,0.4,0,0.6-0.1c0.3-0.2,0.6-0.4,0.8-0.6c0.7-0.6,1.4-1.3,2-2c1-1,1.6-2.3,1.9-3.7c0.1-0.7-0.1-1.3-0.6-1.8
	C170.8,140.3,170.3,140.8,169.9,141.2L169.9,141.2z"/>
<linearGradient id="Tracé_77_1_" gradientUnits="userSpaceOnUse" x1="-304.3759" y1="13.6766" x2="-303.6479" y2="12.2846" gradientTransform="matrix(12.8927 0 0 21.8452 4499.501 -1462.2888)">
	<stop  offset="1.000000e-02" style="stop-color:#000000"/>
	<stop  offset="0.13" style="stop-color:#000000;stop-opacity:0.69"/>
	<stop  offset="1" style="stop-color:#000000;stop-opacity:0"/>
</linearGradient>
<path id="Tracé_77" class="st10" d="M164.7,145c0.1,0.8,0.3,1.5,0.6,2.2c0.2,0.5,0.5,1,0.9,1.4c0.1,0.1,0.3,0.2,0.5,0.3
	c0.2,0,0.4,0,0.6-0.1c0.3-0.2,0.6-0.4,0.8-0.6c0.5-0.4,0.9-0.8,1.3-1.3v2c0,0.6,0,1.1,0.1,1.7c0.1,0.4,0.2,0.9,0.3,1.3
	c0.2,0.5,0.5,1,1,1.3c0.3,0.2,0.6,0.3,0.9,0.3c0.4,0,0.7,0,1.1,0c0.7,0,1.3-0.1,2-0.3s1.2-0.7,1.4-1.4c0.1-0.4,0.1-0.8,0.1-1.2
	c-0.1-2-0.2-3.9-0.3-5.9c0-0.8-0.1-1.5-0.1-2.3c0.2-0.3,0.4-0.7,0.6-1c0.4-0.6,0.7-1.3,0.9-1.9c0.2-0.7,0.3-1.5,0.2-2.3
	c0-1.3,0-2.5,0-3.8c0-0.5-0.1-1.1-0.2-1.6c-0.1-0.1-0.2-0.1-0.4-0.1h-0.8H176c-0.2,0-0.4,0.1-0.6,0.2c-0.2,0.7-0.3,1.4-0.3,2.1
	l-0.2,2.7c0,0.2,0,0.4-0.1,0.6c-0.1,0.2-0.2,0.4-0.4,0.6c-0.2,0.3-0.4,0.5-0.6,0.8c-0.3,0.4-0.7,0.8-1.1,0.9c-1,0-1.9,0.4-2.6,1.1
	c-0.1,0.1-0.2,0.2-0.4,0.3c-1.1,1.2-2,2.5-2.6,4c-0.6-0.5-0.7-1.4-1.1-2.1c-0.1-0.2-0.2-0.3-0.4-0.3s-0.3,0.1-0.4,0.2
	C164.9,143.5,164.6,144.3,164.7,145L164.7,145z"/>
<linearGradient id="Tracé_78_1_" gradientUnits="userSpaceOnUse" x1="-281.4962" y1="8.6639" x2="-280.5582" y2="7.1899" gradientTransform="matrix(10.906 0 0 14.5353 3786.2927 -1128.6222)">
	<stop  offset="2.000000e-02" style="stop-color:#FFFFFF;stop-opacity:0"/>
	<stop  offset="0.58" style="stop-color:#FFFFFF;stop-opacity:0.388"/>
	<stop  offset="0.68" style="stop-color:#FFFFFF;stop-opacity:0.678"/>
	<stop  offset="1" style="stop-color:#FFFFFF"/>
</linearGradient>
<path id="Tracé_78" class="st11" d="M165.4,142.9c1.2,4.2,1.5,3.4,1.5,3.4s0.9-0.4,2.4-2.8s2.8-2.5,4-2.9s2.1-2.1,2.3-2.8
	c0.3-1.9,0.5-3.9,0.6-5.9H176c-0.2,0-0.4,0.1-0.6,0.2c-0.2,0.7-0.3,1.4-0.3,2.1l-0.2,2.7c0,0.2,0,0.4-0.1,0.6
	c-0.1,0.2-0.2,0.4-0.4,0.6c-0.2,0.3-0.4,0.5-0.6,0.8c-0.3,0.4-0.7,0.8-1.1,0.9c-1,0-1.9,0.4-2.6,1.1c-0.1,0.1-0.2,0.2-0.4,0.3
	c-1.1,1.2-2,2.5-2.6,4c-0.6-0.5-0.7-1.4-1.1-2.1c-0.1-0.2-0.2-0.3-0.4-0.3C165.6,142.6,165.5,142.7,165.4,142.9L165.4,142.9z"/>
<linearGradient id="Tracé_79_1_" gradientUnits="userSpaceOnUse" x1="183.1866" y1="221.8329" x2="187.1346" y2="222.638" gradientTransform="matrix(3.9048 0 0 7.3967 1274.5125 -788.2894)">
	<stop  offset="1.000000e-02" style="stop-color:#000000"/>
	<stop  offset="0.13" style="stop-color:#000000;stop-opacity:0.69"/>
	<stop  offset="1" style="stop-color:#000000;stop-opacity:0"/>
</linearGradient>
<path id="Tracé_79" class="st12" d="M169.5,150.7c0.1,0.4,0.2,0.9,0.3,1.3c0.2,0.5,0.5,1,1,1.3c0.3,0.2,0.6,0.3,0.9,0.3
	c1.8,0.2,2.6,0.1-0.3-1.3c-1.1-0.5-1.2-6-1.2-6l-0.8,0.7v2C169.4,149.6,169.4,150.1,169.5,150.7L169.5,150.7z"/>
<path id="Tracé_80" class="st4" d="M173.3,138.3c-0.1-0.9-0.4-1.7-0.9-2.4c-0.1-0.1-0.2-0.2-0.3-0.2s-0.2,0-0.3,0l-1.3,0.3
	c-0.3,0-0.6,0.3-0.7,0.6c-0.2,0.5-0.3,1-0.3,1.5c0,0.4,0.1,0.7,0.3,1c0.4,0.5,1.2,0.4,1.6,0.9c0.1,0.2,0.2,0.5,0.4,0.7
	c0.1,0,0.2,0.1,0.3,0.1c0.4,0,0.8,0,1.1-0.2s0.3-0.6,0.2-1S173.4,138.7,173.3,138.3L173.3,138.3z"/>
<path id="Tracé_81" class="st3" d="M172.2,134.7c0.5,0.1,0.9,0.3,1.2,0.7c0.3,0.5,0.4,1.1,0.3,1.7c-0.1,0.6-0.1,1.2,0,1.8
	c0,0.1,0.1,0.2,0,0.3s-0.3,0.1-0.4,0c0,0.1-0.1,0.3-0.2,0.3c-0.1,0-0.3,0-0.4-0.1c0,0.2-0.2,0.3-0.4,0.2c-0.1-0.1-0.2-0.2-0.3-0.4
	l-0.3-0.7v-0.1c0-0.1,0-0.1,0.1-0.2c0.1-0.2,0.2-0.4,0.2-0.6c0-0.1-0.1-0.2-0.2-0.3c-0.1,0-0.3,0-0.3,0.1c-0.1,0.1-0.1,0.2-0.1,0.4
	l-0.1,0.6c0,0.1,0,0.1-0.1,0.1s0,0-0.1-0.1c-0.1-0.5-0.1-0.9-0.1-1.4c0,0,0,0,0-0.1h-0.1c-0.4,0-0.7-0.1-1-0.3s-0.5-0.5-0.6-0.9
	c0-0.2,0-0.3,0.2-0.4c0,0,0.1,0,0.1-0.1c0,0,0-0.1,0.1-0.1c0.1-0.2,0.1-0.3,0.2-0.5c0.2-0.4,0.6-0.3,0.9-0.2
	C171.3,134.6,171.8,134.7,172.2,134.7L172.2,134.7z"/>
<path id="Tracé_82" class="st1" d="M178.2,160.3c0.1,0.3,0.2,0.6,0.2,1c0,0.7,0,1.5-0.2,2.2c0,0.3-0.2,0.5-0.4,0.6s-0.5,0-0.6-0.2
	c-0.4-0.5-0.5-1.1-0.4-1.7c0-0.6,0.1-1.2,0.2-1.8c0-0.2,0.1-0.3,0.2-0.5C177.4,159.5,178,160,178.2,160.3z"/>
<path id="Tracé_83" class="st3" d="M177.3,162c0.5,0.1,0.9,0.5,1.1,1c0.1,0.2,0,0.5,0.1,0.7s0.2,0.4,0.3,0.6
	c0.1,0.2,0.2,0.5,0.3,0.8c0.1,0.2,0.1,0.5,0,0.7s-0.3,0.4-0.5,0.5c-0.1,0-0.2,0-0.4,0c-0.6-0.2-1.1-0.6-1.3-1.1
	c-0.3-0.5-0.4-1.1-0.5-1.7c-0.1-0.5-0.2-0.9,0-1.4C176.5,161.7,177.1,161.9,177.3,162L177.3,162z"/>
<path id="Tracé_84" class="st1" d="M172.3,169.4c0.2,0.1,0.3,0.2,0.4,0.3c0.1,0.2,0.2,0.5,0.1,0.8l-0.1,1.2c0,0.2-0.1,0.5-0.2,0.6
	c-0.2,0.2-0.5,0.2-0.8,0.1c-0.2,0-0.4-0.2-0.5-0.4c0-0.1-0.1-0.2-0.1-0.3c0-0.6,0-1.2,0.1-1.8c0-0.2,0-0.5,0.2-0.6
	C171.8,169.3,172.1,169.3,172.3,169.4L172.3,169.4z"/>
<path id="Tracé_85" class="st3" d="M172.9,172.6c0-0.2-0.1-0.5-0.3-0.6c-0.1,0-0.2-0.1-0.3-0.1l-0.7-0.1c-0.1,0-0.1,0-0.2,0
	c-0.1,0-0.1,0.1-0.2,0.1c-0.2,0.4-0.2,0.8-0.2,1.2c-0.1,0.3-0.2,0.7-0.3,1s-0.2,0.7-0.1,1c0,0.1,0.1,0.2,0.1,0.2
	c0.1,0.1,0.3,0.2,0.4,0.2c0.2,0,0.3,0,0.5,0c0.3,0,0.5-0.2,0.7-0.4s0.3-0.4,0.4-0.6c0.1-0.2,0.1-0.4,0.2-0.6
	c0.1-0.5,0.1-1.1,0.1-1.6"/>
<path id="Tracé_86" class="st3" d="M130,46.1c2.3,1.7,0.7,10.6,0.3,12c-0.1,0.2-0.3,0.4-0.5,0.5c-0.8,0.2-1.3,0-1.3-0.9
	c0.2-1.6,0.3-3.2,0.3-4.9c0-0.4-0.2-0.8-0.5-1c-0.2-0.1-0.4-0.1-0.5-0.1c-0.6,0-1-0.1-1.3,0.4c-0.4,0.7-0.6,1.5-0.7,2.4
	c-0.1,1.1-0.2,2.2-0.3,3.3c-0.3,2.2-0.5,4.4-0.5,6.6c0.1,1,0,2.1-0.4,3.1c-0.2,0.4-0.5,0.7-0.9,0.8c-1.4,0.2-1.2-4.8-1.2-5.6
	c-0.1-2.4-0.1-4.8-0.2-7.1c0-1.6,0-3.2-0.1-4.8c0-0.2,0-0.5,0-0.7c0.1-0.2,0.7-0.2,0.8-0.3c0.8-0.7,1.7-1.3,2.6-1.8
	C126.5,47.2,129.2,45.5,130,46.1L130,46.1z"/>
<path id="Tracé_87" class="st9" d="M124.6,36.4c-1.2,0-2.3,0.6-2.9,1.6c-0.2,0.4-0.3,0.8-0.3,1.3c-0.2,2.1-0.3,4.3-0.3,6.5
	c0,0.6,0,1.1,0.1,1.7c0.1,0.4,0.2,0.9,0.3,1.3c0.2,0.5,0.5,1,1,1.3c0.6,0.3,1.3,0.4,2,0.3c0.7,0,1.3-0.1,2-0.3s1.2-0.7,1.4-1.4
	c0.1-0.4,0.1-0.8,0.1-1.2l-0.3-5.9l-0.1-3c0-0.6-0.4-3.1-1-3.4S125.2,36.3,124.6,36.4L124.6,36.4z"/>
<path id="Tracé_88" class="st4" d="M128.9,27.5c0-0.2,0-0.4-0.1-0.6c-0.2-0.1-0.3-0.1-0.5-0.1l-0.8,0.1c-0.1,0-0.1,0-0.2,0.1
	s-0.1,0.3-0.2,0.4s-0.1,0.4-0.3,0.4c-0.1,0-0.1,0-0.2,0s-0.1,0.1-0.1,0.2s0.1,0.3,0.2,0.3c0.1,0.1,0.2,0.1,0.3,0.2
	c0.2,0.1,0.3,0.3,0.4,0.6c0,0.1,0.1,0.3,0.1,0.4c0.1,0.2,0.4,0.3,0.6,0.3c0.4-0.1,0.5-0.4,0.5-0.7C128.8,28.6,128.9,28.1,128.9,27.5
	L128.9,27.5z"/>
<path id="Tracé_89" class="st9" d="M126.2,34.7c0.2-0.2,0.3-0.4,0.4-0.6c0.1-0.2,0.1-0.4,0.1-0.6l0.2-2.7c0-0.7,0.1-1.4,0.3-2.1
	c0.2-0.2,0.5-0.3,0.8-0.2h0.8c0.1,0,0.2,0,0.3,0.1c0.1,0.5,0.2,1.1,0.2,1.6c0,1.3,0,2.5,0,3.8c0,0.8-0.1,1.5-0.2,2.3
	c-0.2,0.7-0.5,1.3-0.9,1.9c-0.3,0.6-0.7,1.2-1,1.8c-0.1,0.2-0.3,0.5-0.5,0.4c-0.1,0-0.2-0.1-0.3-0.2c-0.7-0.9-1.1-2-1.1-3.1
	c-0.1-0.3-0.1-0.6,0.1-0.9C125.5,35.7,125.8,35.2,126.2,34.7L126.2,34.7z"/>
<path id="Tracé_90" class="st4" d="M116.7,37.9c0.1,0,0.2-0.1,0.3-0.1s0.3,0.2,0.3,0.3s0,0.3,0,0.5c0,0.3,0.1,0.5,0.2,0.8
	s0.1,0.5,0,0.8c-0.1,0.2-0.3,0.4-0.5,0.3c-0.2-0.1-0.2-0.3-0.3-0.4c-0.2-0.4-0.7-0.6-0.8-1c0-0.3,0.1-0.6,0.1-0.9c0-0.1,0-0.2,0-0.3
	C116,37.5,116.5,38,116.7,37.9z"/>
<path id="Tracé_91" class="st9" d="M121.6,37.8c-1.1,1.2-2,2.5-2.6,4c-0.6-0.5-0.7-1.4-1.1-2.1c-0.1-0.2-0.3-0.4-0.5-0.3
	c-0.1,0-0.2,0.1-0.3,0.2c-0.5,0.6-0.7,1.4-0.7,2.2c0.1,0.8,0.3,1.5,0.6,2.2c0.2,0.5,0.5,1,0.9,1.4c0.1,0.1,0.3,0.2,0.5,0.3
	c0.2,0,0.4,0,0.6-0.1c0.3-0.2,0.6-0.4,0.8-0.6c0.7-0.6,1.4-1.3,2-2c1-1,1.6-2.3,1.9-3.7c0.1-0.7-0.1-1.3-0.6-1.8
	C122.5,37,122,37.5,121.6,37.8L121.6,37.8z"/>
<linearGradient id="Tracé_92_1_" gradientUnits="userSpaceOnUse" x1="-302.801" y1="10.6466" x2="-302.0729" y2="9.2536" gradientTransform="matrix(12.892 0 0 21.8177 4450.9673 -1564.267)">
	<stop  offset="1.000000e-02" style="stop-color:#000000"/>
	<stop  offset="0.13" style="stop-color:#000000;stop-opacity:0.69"/>
	<stop  offset="1" style="stop-color:#000000;stop-opacity:0"/>
</linearGradient>
<path id="Tracé_92" class="st13" d="M116.4,41.7c0.1,0.8,0.3,1.5,0.6,2.2c0.2,0.5,0.5,1,0.9,1.4c0.1,0.1,0.3,0.2,0.5,0.3
	c0.2,0,0.4,0,0.6-0.1c0.3-0.2,0.6-0.4,0.8-0.6c0.5-0.4,0.9-0.8,1.3-1.3v2c0,0.6,0,1.1,0.1,1.7c0.1,0.4,0.2,0.9,0.3,1.3
	c0.2,0.5,0.5,1,1,1.3c0.3,0.2,0.6,0.3,0.9,0.3c0.4,0,0.7,0,1.1,0c0.7,0,1.3-0.1,2-0.3c0.6-0.2,1.2-0.7,1.4-1.4
	c0.1-0.4,0.1-0.8,0.1-1.2c-0.1-2-0.2-3.9-0.3-5.9c0-0.8-0.1-1.5-0.1-2.3c0.2-0.3,0.4-0.6,0.6-1c0.4-0.6,0.7-1.3,0.9-1.9
	c0.2-0.7,0.3-1.5,0.2-2.3c0-1.3,0-2.5,0-3.8c0-0.5-0.1-1.1-0.2-1.6c-0.1-0.1-0.2-0.1-0.4-0.1h-1.1c-0.2,0-0.4,0.1-0.6,0.2
	c-0.2,0.7-0.3,1.4-0.3,2.1l-0.2,2.7c0,0.2,0,0.4-0.1,0.6c-0.1,0.2-0.2,0.4-0.4,0.6c-0.2,0.3-0.4,0.5-0.6,0.8
	c-0.3,0.4-0.7,0.8-1.1,0.8c-1,0-1.9,0.4-2.6,1.1c-0.1,0.1-0.2,0.2-0.4,0.3c-1.1,1.2-2,2.5-2.6,4c-0.6-0.5-0.7-1.4-1.1-2.1
	c-0.1-0.2-0.2-0.3-0.4-0.3c-0.2,0-0.3,0.1-0.4,0.2C116.6,40.2,116.3,41,116.4,41.7L116.4,41.7z"/>
<linearGradient id="Tracé_93_1_" gradientUnits="userSpaceOnUse" x1="-278.9763" y1="4.669" x2="-278.0393" y2="3.1959" gradientTransform="matrix(10.906 0 0 14.5341 3737.9988 -1231.9034)">
	<stop  offset="2.000000e-02" style="stop-color:#FFFFFF;stop-opacity:0"/>
	<stop  offset="0.58" style="stop-color:#FFFFFF;stop-opacity:0.388"/>
	<stop  offset="0.68" style="stop-color:#FFFFFF;stop-opacity:0.678"/>
	<stop  offset="1" style="stop-color:#FFFFFF"/>
</linearGradient>
<path id="Tracé_93" class="st14" d="M117.1,39.5c1.2,4.2,1.5,3.4,1.5,3.4s0.9-0.4,2.4-2.8s2.8-2.5,4-2.9s2.1-2.1,2.3-2.8
	c0.3-1.9,0.5-3.9,0.6-5.9h-0.3c-0.2,0-0.4,0.1-0.6,0.2c-0.2,0.7-0.3,1.4-0.3,2.1l-0.2,2.7c0,0.2,0,0.4-0.1,0.6
	c-0.1,0.2-0.2,0.4-0.4,0.6c-0.2,0.3-0.4,0.5-0.6,0.8c-0.3,0.4-0.7,0.8-1.1,0.8c-1,0-1.9,0.4-2.6,1.1c-0.1,0.1-0.2,0.2-0.4,0.3
	c-1.1,1.2-2,2.5-2.6,4c-0.6-0.5-0.7-1.4-1.1-2.1c-0.1-0.2-0.2-0.3-0.4-0.3C117.3,39.3,117.2,39.4,117.1,39.5L117.1,39.5z"/>
<linearGradient id="Tracé_94_1_" gradientUnits="userSpaceOnUse" x1="208.4374" y1="226.7148" x2="212.3944" y2="227.5198" gradientTransform="matrix(3.8951 0 0 7.3967 1222.7402 -891.6102)">
	<stop  offset="1.000000e-02" style="stop-color:#000000"/>
	<stop  offset="0.13" style="stop-color:#000000;stop-opacity:0.69"/>
	<stop  offset="1" style="stop-color:#000000;stop-opacity:0"/>
</linearGradient>
<path id="Tracé_94" class="st15" d="M121.2,47.4c0.1,0.4,0.2,0.9,0.3,1.3c0.2,0.5,0.5,1,1,1.3c0.3,0.2,0.6,0.3,0.9,0.3
	c1.8,0.2,2.6,0.1-0.3-1.3c-1.1-0.5-1.2-6-1.2-6l-0.8,0.7v2C121.1,46.3,121.1,46.8,121.2,47.4L121.2,47.4z"/>
<path id="Tracé_95" class="st1" d="M129.9,57c0.1,0.3,0.2,0.6,0.2,1c0,0.7,0,1.5-0.2,2.2c0,0.3-0.2,0.5-0.4,0.6s-0.5,0-0.6-0.2
	c-0.4-0.5-0.5-1.1-0.4-1.7c0-0.6,0.1-1.2,0.2-1.8c0-0.2,0.1-0.3,0.2-0.5C129.1,56.2,129.7,56.7,129.9,57L129.9,57z"/>
<path id="Tracé_96" class="st3" d="M129.1,58.7c0.5,0.1,0.9,0.5,1.1,1c0.1,0.2,0,0.5,0.1,0.7c0.1,0.2,0.2,0.4,0.3,0.6
	c0.1,0.2,0.2,0.5,0.3,0.8c0.1,0.2,0.1,0.5,0,0.7c-0.1,0.2-0.3,0.4-0.5,0.5c-0.1,0-0.2,0-0.4,0c-0.6-0.2-1.1-0.6-1.3-1.1
	c-0.3-0.5-0.4-1.1-0.5-1.7c-0.1-0.5-0.2-0.9,0-1.4C128.3,58.4,128.8,58.6,129.1,58.7L129.1,58.7z"/>
<path id="Tracé_97" class="st1" d="M124,66.1c0.2,0.1,0.3,0.2,0.4,0.3c0.1,0.2,0.2,0.5,0.1,0.8l-0.1,1.3c0,0.2-0.1,0.5-0.2,0.6
	c-0.4,0.2-1,0.1-1.3-0.3c0-0.1-0.1-0.2-0.1-0.3c0-0.6,0-1.2,0.1-1.8c0-0.2,0-0.5,0.2-0.6C123.5,66,123.8,66,124,66.1L124,66.1z"/>
<path id="Tracé_98" class="st3" d="M124.6,69.3c0-0.2-0.1-0.5-0.4-0.6c-0.1,0-0.2-0.1-0.3-0.1l-0.7-0.1c-0.1,0-0.1,0-0.2,0
	s-0.1,0.1-0.2,0.1c-0.2,0.4-0.2,0.8-0.2,1.2c-0.1,0.3-0.2,0.7-0.3,1c-0.1,0.3-0.2,0.7-0.1,1c0,0.3,0.3,0.4,0.5,0.4s0.3,0,0.5,0
	c0.1,0,0.3-0.1,0.4-0.1c0.1-0.1,0.2-0.2,0.3-0.3c0.2-0.2,0.3-0.4,0.4-0.6s0.1-0.4,0.2-0.6c0.1-0.5,0.1-1.1,0.1-1.6"/>
<path id="Tracé_99" class="st4" d="M122.6,36.1c0,0.3,0,0.5,0.1,0.8c0.1,0.2,0.2,0.5,0.4,0.6c0.1,0.1,0.3,0.1,0.5,0.1
	c0.3,0,0.6-0.1,0.8-0.3c0.2-0.2,0.3-0.5,0.3-0.7c0.1-0.7,0.2-1.4,0.2-2.1c0-0.1,0-0.3-0.1-0.4c-0.2-0.3-0.6-0.5-1-0.4
	c-0.5,0.1-0.9,0.4-1.1,0.8C122.6,35,122.6,35.6,122.6,36.1z"/>
<path id="Tracé_100" class="st4" d="M121.5,33.9c0,0.3,0.1,0.7,0.2,1c0.2,0.5,0.6,1,1.2,1.2c0.5,0.2,1.1,0.2,1.7,0
	c0.3-0.1,0.5-0.3,0.7-0.6c0.1-0.2,0.2-0.5,0.2-0.8c0.1-0.6,0.1-1.1,0.1-1.7c0-0.3,0-0.7-0.1-1s-0.3-0.6-0.6-0.8
	c-0.3-0.1-0.5-0.1-0.8-0.1c-0.9-0.1-1.7,0-2.5,0.4c-0.3,0.2-0.2,0.5-0.2,0.8C121.4,32.9,121.4,33.4,121.5,33.9L121.5,33.9z"/>
<path id="Tracé_101" class="st3" d="M125.1,33.5c0.1,0.3,0.1,0.6-0.2,0.8l-0.2,1.1c0,0.2-0.1,0.3-0.2,0.4h-0.2
	c-0.2,0-0.5,0.3-0.7,0.2c-0.1,0-0.1-0.1-0.2-0.1s-0.2,0-0.3,0.1c-0.3,0.1-0.7,0-0.8-0.3c-0.2-0.3-0.3-0.5-0.5-0.8
	c-0.2-0.2-0.3-0.5-0.5-0.8c-0.1-0.3-0.1-0.7-0.2-1c0-0.1-0.1-0.1-0.1-0.2c0-0.1,0-0.2,0-0.3c0-0.4,0-0.8,0.1-1.2
	c0.1-0.4,0.3-0.7,0.5-1c0.3-0.3,0.8-0.5,1.3-0.4c0.6-0.3,1.3-0.4,2-0.3c0.1,0,0.1,0,0.2,0.1s0,0.2-0.1,0.4c0.4,0.2,0.7,0.5,0.7,0.9
	c-0.1,0-0.2,0.1-0.2,0.2s0,0.2,0.1,0.3c0.1,0.2,0.1,0.4,0.1,0.6c0,0.1,0,0.2,0,0.3s-0.1,0.2-0.2,0.2C125.3,33,125.2,33.2,125.1,33.5
	L125.1,33.5z"/>
<path id="Tracé_102" class="st1" d="M142.8,75.4c-1.4,0.6-2.7,1.7-3.6,3c-1.5,2.7-0.1,6.3,2.3,8s5.8,1.8,8.8,1.3s5.8-1.7,8.8-2.4
	c0.4-0.1,0.8-0.2,1.3-0.1c0.9,0.2,1.4,1.1,2.1,1.8c1.9,2.1,5,2.2,7.8,2.2l26.5-0.1c7.8,0,15.9-0.1,22.7-3.9c1-0.4,1.9-1.2,2.3-2.3
	c0.4-1.2,0-2.5-0.8-3.5c-0.9-0.9-1.9-1.6-3.1-2.1c-2.9-1.6-6.1-2.5-9.4-2.7c0.5-2.3,0-4.8-1.5-6.7c-1.5-1.9-3.4-3.3-5.7-4
	c-4.9-1.8-10.9-1.1-14.5,2.8c-2.6-3.7-6.4-6.4-10.8-7.7c-4.4-1.3-9.1-0.5-12.9,2.1c-1.8,1.3-3.3,3.1-4.3,5.2
	c-0.7,1.5-0.6,4.8-1.7,5.9s-4.9,0.4-6.6,0.7C147.9,73.3,145.3,74.1,142.8,75.4L142.8,75.4z"/>
<path id="Tracé_103" class="st1" d="M199.1,115.5c-0.7,0-1.4,0.1-2.1,0.3c-1.1,0.5-1.9,1.4-2.6,2.4c-1.2,1.6-2.3,3.8-1.1,5.4
	c0.8,1,2.3,1.2,3.6,1.1c3.6-0.1,7.1-0.6,10.6-1.6c1-0.4,2.1-0.5,3.1-0.2c0.6,0.4,1.2,0.9,1.8,1.4c1,0.5,2.1,0.8,3.3,0.7h6.2
	c5,0,10.8-0.4,13.7-4.6c0.9-1.2,1.2-2.6,0.8-4c-0.7-2.2-3.2-3-5.4-3.5c-4.9-1.1-14.2-5.5-18-1.4c-1.3,1.4-1.9,3.3-3.9,3.9
	C206.2,116.4,202,115.4,199.1,115.5L199.1,115.5z"/>
</svg>
