<svg xmlns="http://www.w3.org/2000/svg" id="bxl-instagram" width="30" height="30" viewBox="0 0 30 30">
    <defs>
        <style>
            .cls-1{fill:#fff}
        </style>
    </defs>
    <path id="Tracé_376" d="M14.985 7.377a7.586 7.586 0 1 0 7.609 7.585 7.6 7.6 0 0 0-7.609-7.585zm0 12.514a4.927 4.927 0 1 1 4.941-4.927 4.936 4.936 0 0 1-4.941 4.927z" class="cls-1" transform="translate(.003 -.001)"/>
    <circle id="Ellipse_5" cx="1.819" cy="1.819" r="1.819" class="cls-1" transform="translate(21.164 5.186)"/>
    <path id="Tracé_377" d="M32.207 8.171a7.666 7.666 0 0 0-4.386-4.378 11.021 11.021 0 0 0-3.642-.7c-1.6-.07-2.112-.09-6.181-.09s-4.59 0-6.181.09a10.934 10.934 0 0 0-3.638.7 7.657 7.657 0 0 0-4.386 4.378 10.938 10.938 0 0 0-.7 3.636C3.024 13.408 3 13.915 3 17.978s0 4.579.093 6.171a10.956 10.956 0 0 0 .7 3.638 7.674 7.674 0 0 0 4.388 4.378 10.983 10.983 0 0 0 3.64.749c1.6.07 2.112.091 6.181.091s4.59 0 6.181-.091a11.035 11.035 0 0 0 3.642-.7 7.678 7.678 0 0 0 4.386-4.38 10.938 10.938 0 0 0 .7-3.636c.072-1.6.093-2.107.093-6.171s0-4.579-.093-6.171a10.932 10.932 0 0 0-.704-3.685zm-2.029 15.855a8.377 8.377 0 0 1-.518 2.808 4.972 4.972 0 0 1-2.852 2.846 8.317 8.317 0 0 1-2.782.517c-1.583.073-2.029.091-6.087.091s-4.476 0-6.089-.091a8.273 8.273 0 0 1-2.78-.517 4.968 4.968 0 0 1-2.864-2.846 8.44 8.44 0 0 1-.518-2.776c-.072-1.58-.088-2.026-.088-6.078s0-4.468.088-6.08a8.368 8.368 0 0 1 .518-2.806 4.971 4.971 0 0 1 2.863-2.847 8.356 8.356 0 0 1 2.78-.517c1.584-.072 2.029-.091 6.089-.091s4.476 0 6.087.091a8.275 8.275 0 0 1 2.782.517 4.98 4.98 0 0 1 2.853 2.847 8.44 8.44 0 0 1 .518 2.776c.072 1.582.09 2.026.09 6.08s0 4.488-.072 6.078h-.018z" class="cls-1" transform="translate(-3.002 -3.005)"/>
</svg>
