<svg xmlns="http://www.w3.org/2000/svg" id="Groupe_94" width="183" height="48.382" viewBox="0 0 183 48.382">
    <defs>
        <style>
            .cls-2{fill:#fff}
        </style>
    </defs>
    <text id="Sakana" fill="#fff" font-family="Gelion-Bold, Gelion" font-size="35px" font-weight="700" transform="translate(64 34.264)">
        <tspan x="0" y="0">Sakana</tspan>
    </text>
    <g id="Groupe_43">
        <path id="path4569" d="M2373.849 365.912a7.167 7.167 0 0 1-1.854-2.212c0-.887 14.914-16.367 15.767-16.367 1.145 0 4.174 2.862 4.023 3.8-.158.987-14.735 16.486-15.505 16.486a7.528 7.528 0 0 1-2.431-1.709z" class="cls-2" transform="translate(-2371.994 -319.239)"/>
        <path id="path4593" d="M2903.11-2230.619c-1.483-1.165-2.57-2.447-2.587-3.051-.024-.854 14.561-16.3 15.39-16.3a50.922 50.922 0 0 1 5.887 5.073c2.977 2.79 5.645 5.241 5.926 5.448.364.267 2.152-1.328 6.152-5.486 3.1-3.224 5.947-5.861 6.322-5.861.808 0 3.717 2.894 3.717 3.7 0 1.057-14.336 16.59-15.312 16.59a57.142 57.142 0 0 1-6.194-5.369 58.081 58.081 0 0 0-6.208-5.383c-.264-.008-2.475 2.142-4.914 4.778s-5.014 5.238-5.723 5.785l-1.289.994z" class="cls-2" transform="translate(-2894.712 2250.795)"/>
        <path id="path4615" d="M3879.712-269.146c-.664-.41-1.327-2.4-1.327-3.983s-.1-1.523 9.006-4.535a24.383 24.383 0 0 0 4.658-1.824 49.042 49.042 0 0 0-4.168-4.417 59.765 59.765 0 0 1-4.564-4.847c-.306-.554-.058-1.085 1.111-2.381a5.451 5.451 0 0 1 2.136-1.667c.733 0 4.321 3.073 10.336 8.851 3.9 3.75 4.258 4.218 4.258 5.63a3 3 0 0 1-.794 2.258c-.84.761-12.412 5.031-17.305 6.388a9.2 9.2 0 0 1-3.347.527z" class="cls-2" transform="translate(-3862.119 313.854)"/>
    </g>
</svg>
