<svg xmlns="http://www.w3.org/2000/svg" width="45.363" height="44.605" viewBox="0 0 45.363 44.605">
    <defs>
        <style>
            .cls-1{fill:#fff}
        </style>
    </defs>
    <g id="Groupe_45" transform="translate(-2186.275 -1787.655)">
        <g id="Groupe_44" transform="translate(2186.275 1787.655)">
            <path id="path4569" d="M2373.7 364.461a6.6 6.6 0 0 1-1.71-2.04c0-.818 13.75-15.089 14.537-15.089 1.056 0 3.848 2.638 3.708 3.506-.146.91-13.585 15.2-14.294 15.2a6.936 6.936 0 0 1-2.241-1.576z" class="cls-1" transform="translate(-2371.994 -321.433)"/>
            <path id="path4593" d="M2902.909-2232.194c-1.368-1.075-2.369-2.256-2.385-2.813-.023-.787 13.424-15.026 14.188-15.026a46.888 46.888 0 0 1 5.427 4.677c2.745 2.572 5.2 4.832 5.464 5.022.335.246 1.984-1.225 5.672-5.058 2.859-2.972 5.482-5.4 5.828-5.4.745 0 3.426 2.668 3.426 3.409 0 .975-13.217 15.295-14.116 15.295a52.712 52.712 0 0 1-5.71-4.949 53.514 53.514 0 0 0-5.723-4.963 32.891 32.891 0 0 0-4.53 4.4c-2.249 2.429-4.623 4.829-5.276 5.333l-1.188.917z" class="cls-1" transform="translate(-2895.166 2250.795)"/>
            <path id="path4615" d="M3879.609-270.992c-.612-.378-1.223-2.213-1.223-3.672s-.1-1.4 8.3-4.181a22.472 22.472 0 0 0 4.294-1.681 45.222 45.222 0 0 0-3.843-4.072 55.162 55.162 0 0 1-4.208-4.468c-.282-.511-.054-1 1.025-2.195a5.024 5.024 0 0 1 1.969-1.537c.676 0 3.983 2.833 9.529 8.16 3.6 3.457 3.925 3.889 3.925 5.19a2.762 2.762 0 0 1-.733 2.081c-.774.7-11.443 4.639-15.954 5.889a8.483 8.483 0 0 1-3.081.486z" class="cls-1" transform="translate(-3863.389 312.21)"/>
        </g>
    </g>
</svg>
