<svg xmlns="http://www.w3.org/2000/svg" width="35" height="28.428" viewBox="0 0 35 28.428">
    <path fill="#fff" d="M33.4 11.1c.023.312.023.622.023.931 0 9.484-7.218 20.412-20.41 20.412A20.27 20.27 0 0 1 2 29.225a14.992 14.992 0 0 0 1.733.089 14.371 14.371 0 0 0 8.907-3.065 7.188 7.188 0 0 1-6.709-4.974 9.136 9.136 0 0 0 1.355.11 7.633 7.633 0 0 0 1.89-.244A7.172 7.172 0 0 1 3.423 14.1v-.089a7.239 7.239 0 0 0 3.241.91A7.184 7.184 0 0 1 4.442 5.33a20.4 20.4 0 0 0 14.793 7.507 8.152 8.152 0 0 1-.178-1.644 7.181 7.181 0 0 1 12.415-4.909 14.172 14.172 0 0 0 4.552-1.733 7.16 7.16 0 0 1-3.154 3.954A14.378 14.378 0 0 0 37 7.394a15.4 15.4 0 0 1-3.6 3.706z" transform="translate(-2 -4.019)"/>
</svg>
