<?xml version="1.0" encoding="utf-8"?>
<!-- Generator: Adobe Illustrator 21.1.0, SVG Export Plug-In . SVG Version: 6.00 Build 0)  -->
<svg version="1.1" id="Calque_1" xmlns="http://www.w3.org/2000/svg" xmlns:xlink="http://www.w3.org/1999/xlink" x="0px" y="0px"
	 viewBox="0 0 249.2 191.5" style="enable-background:new 0 0 249.2 191.5;" xml:space="preserve">
<style type="text/css">
	.st0{fill:#FCE8C9;}
	.st1{fill:#F5A572;}
	.st2{fill:url(#Rectangle_62_1_);}
	.st3{fill:#F6A672;}
	.st4{fill:#FFFFFF;}
	.st5{fill:#EEA886;}
	.st6{fill:url(#Rectangle_64_1_);}
	.st7{fill:url(#Rectangle_65_1_);}
</style>
<g id="world_map_2">
	<path id="Tracé_104" class="st0" d="M269.2,139.6c-5.2,10.5-12.8,19.6-22.2,26.6c-2.6,1.9-5.3,3.6-8.1,5.1
		c-20.4,10.7-44.6,9.9-67.6,11c-28.3,1.4-56.4,5.9-84.7,8.3c-12.6,1.1-25.4,1.6-37.8-0.5c-13.9-2.4-27.1-8-40.8-11.5
		c-17.3-4.4-35.3-5.3-53.2-4.8c-12.8,0.4-27.1,1-36.5-7.7c-1.9-1.7-3.5-3.7-5.7-4.8c-2.2-1.1-5.1-1.1-7.7-1l-28.1,0.9
		c-4.8,0.2-9.7,0.3-14.6-0.1c-8.1-0.5-15.9-2.3-22.4-7c-0.4-0.3-0.8-0.6-1.2-1c-10.8-8.9-13.9-24.7-13.1-38.9
		c2.7-46.6,39.1-85.8,81.2-105.6S-3.5-15,42.9-18.6c57.7-4.6,117.6-14.6,175.4-13.8c21.3,0.3,27.1,12.4,35.4,30.5
		c10.3,22.6,25.6,51.1,25.6,76.6C282.2,96.5,279.1,120.3,269.2,139.6L269.2,139.6z"/>
	<path id="Rectangle_61" class="st1" d="M13.5,26h220.6v152.6H13.5V26z"/>
	
		<linearGradient id="Rectangle_62_1_" gradientUnits="userSpaceOnUse" x1="-385.0294" y1="-28.7722" x2="-385.0684" y2="-25.0602" gradientTransform="matrix(220.639 0 0 152.561 85078.4766 4349.4287)">
		<stop  offset="0" style="stop-color:#000000;stop-opacity:0"/>
		<stop  offset="0.99" style="stop-color:#000000"/>
	</linearGradient>
	<path id="Rectangle_62" class="st2" d="M13.5,26h220.6v152.6H13.5V26z"/>
	<path id="Rectangle_63" class="st3" d="M19.4,30.6h208.9V173H19.4V30.6z"/>
	<path id="Tracé_105" class="st4" d="M21,166.8c0.2,0.2,0.5,0.4,0.9,0.4c0.3,0.1,0.6,0.1,1,0.2c0.9,0.2,1.8,0.3,2.6,0.1
		c0.2,0,0.4,0,0.5,0.2c0.4,0.3,0.8,0.5,1.3,0.5c0.6,0,1.2,0.2,1.7,0.3c1.2,0.1,2.4,0.3,3.6,0.4c0.6,0.1,1.2,0.1,1.8-0.1
		c0.1,0,0.2,0,0.2,0c0.4,0,0.7,0.1,1.1,0s0.4-0.1,0.5,0.4c0.5-0.2,1-0.2,1.5,0.1c0.2,0.1,0.5,0.1,0.7,0.1c0.3-0.1,0.6,0,0.8,0.2
		c0.3,0.2,0.7,0.3,1,0.2c0.1,0,0.3,0,0.4,0c1.1,0.2,2.2,0.3,3.4,0.1c0.3,0,0.6,0,0.8,0.1l1.4,0.1l-0.2-1l-0.3-0.1
		c-0.8-0.2-1.5-0.4-2.3-0.7c-0.5-0.2-0.8-0.5-1-0.9s-0.4-0.7-0.8-0.9c-0.1,0-0.1-0.1-0.2-0.1c-0.3-0.2-0.4-0.4-0.3-0.7
		s0.3-0.5,0.6-0.5c0.8-0.1,1.7-0.3,2.5-0.5c0.4-0.1,0.9-0.2,1.3-0.3c-0.6-0.7-1.6-0.9-2.4-0.4c-0.1,0.1-0.3,0.1-0.4,0.1
		c0-0.1-0.1-0.2-0.1-0.3c0.1-0.4-0.1-0.6-0.5-0.8c-0.3-0.2-0.7-0.3-1.1-0.4c-0.4-0.1-0.8-0.3-1.1-0.6l1.2-0.1v-0.1
		c-0.2,0-0.3-0.1-0.5-0.1s-0.4-0.1-0.5-0.4c-0.1-0.2-0.3-0.3-0.5-0.5l0.1-0.5c0.6,0,1.2,0,1.8,0c0.3,0.1,0.6,0.2,0.9,0.4
		c0.5,0.4,1.2,0.5,1.8,0.4c0.2-0.1,0.3-0.1,0.5-0.3c0.1-0.1,0.3-0.2,0.5-0.1c0.1,0,0.1,0.1,0.1,0.1c0.3-0.1,0.7-0.2,1.1-0.3
		c0-0.2-0.1-0.4-0.1-0.6c-0.1-0.4,0-0.5,0.4-0.6c0.2-0.1,0.4-0.2,0.6-0.3c0.1-0.1,0.3-0.1,0.4-0.1c0.5,0,0.9,0,1.3-0.2
		c0.3-0.1,0.6-0.1,0.8-0.2c0.3-0.1,0.6-0.2,0.9-0.3c0.6-0.4,1.3-0.4,1.9,0c0.4,0.2,0.7,0.4,1.1,0.6c1.2,0.8,2,0.4,2.8-0.6
		c0.4-0.5,0.6-1,1-1.4c0.3-0.3,0.6-0.6,0.8-0.9c0.5-0.5,1.2-0.6,1.8-0.4c0.7,0.3,1.4,0.6,2.1,0.9c1.1,0.4,2.2,0.7,3.4,0.9
		c0.7,0.1,1.3-0.2,1.8-0.8c0.3-0.4,0.7-0.7,1-0.9c0.3-0.1,0.7-0.2,1-0.1c0.4,0.1,0.6,0,0.8-0.4c0.1-0.2,0.3-0.4,0.4-0.5
		c0.1,0,0.3,0.1,0.4,0.1c0.3,0,0.5,0.2,0.5,0.4l0,0c0,0.4,0.3,0.7,0.7,0.7l0,0c0.1,0,0.2,0.1,0.3,0.1c0.3,0.1,0.5,0.2,0.8,0.2
		c0.2,0,0.4,0.1,0.6,0.1c1,0.1,2,0.2,3,0.3c0.3,0,0.6-0.1,0.9-0.1c0.4,0,0.9,0,1.3,0.1c0.3,0.1,0.7,0.2,1.1,0.2h0.6
		c0.1-0.1,0.2-0.3,0.3-0.4c0.1-0.1,0.3-0.2,0.4-0.3c0.1,0,0.3,0,0.4,0.1c0.4,0.3,0.9,0.5,1.4,0.5c0.2,0.1,0.5,0.1,0.7,0.3
		c0.3,0.3,0.5,0.2,0.8,0.2c0.4-0.1,0.8-0.2,1.2-0.3c0.4-0.1,0.6-0.3,0.8-0.6c0.1-0.1,0.2-0.2,0.2-0.4s0.1-0.3,0.2-0.5
		c-0.7-0.6-1-1.4-1-2.3c0.1,0,0.3-0.1,0.4-0.1c0.1-0.1,0.2-0.2,0.2-0.2c0-0.2,0-0.2,0.2-0.3c0.1-0.1,0.1-0.2,0.1-0.2
		c-0.2-0.3,0-0.6,0.2-0.8l-0.5-0.2v-0.7l0.5,0.5l0.2-0.6c0.1-0.1,0.4,0,0.3-0.3c0,0,0.1-0.1,0.2-0.2c0.2-0.1,0.4-0.2,0.6-0.3
		c0.1,0,0.2-0.1,0.2-0.1c0.1-0.5,0.5-0.4,0.8-0.6c0.2-0.1,0.4-0.2,0.5-0.3c0.5-0.4,1.1-0.7,1.7-1c0.1-0.1,0.3-0.1,0.4,0
		c0,0,0,0,0,0.1c-0.4,0.2-0.9,0.4-0.9,0.9c-0.2-0.1-0.5-0.1-0.7,0.1c-0.2,0.2-0.5,0.4-0.8,0.6l-0.5,1.2l-0.4-0.4l-0.2,0.6
		c-0.5,0.1-0.9,0.6-0.9,1.1c0.1,0.3,0.3,0.5,0.5,0.7c0.1,0,0.3,0,0.4-0.1s0.3-0.2,0.4-0.4c0,0.5,0.2,0.9,0.4,1.3
		c0.1,0.1,0,0.3,0,0.6l0.3,0.2l-0.1,0.3c0.1,0.1,0.3,0.2,0.4,0.2c0.1,0.1,0.2,0.3,0.2,0.3c-0.2,0.2,0.1,0.3,0.1,0.5l-0.5,0.3
		l0.5,0.1l-0.1,0.9h0.4v0.1l-0.5,0.4c0,0.2,0.4,0.4-0.1,0.5l0.2,0.5c-0.3,0.1-0.5,0.6-1,0.4c-0.1,0.4-0.1,0.4,0.3,0.5
		c0.2,0,0.4,0.2,0.5,0.3c0.1,0.3,0.3,0.3,0.5,0.4c0.5,0.1,0.9,0.3,0.9,1c0,0.4,0.4,0.6,0.7,0.7c0.6,0.3,1.3,0.5,2,0.4
		c0.4,0,0.8,0,1.2,0.1c0.8,0.2,1.6,0.4,2.4,0.4c0.5,0.1,1,0.1,1.5,0.3c0.2,0,0.4,0,0.6,0c0.5-0.2,1.1-0.2,1.6,0
		c0.1,0,0.3,0.1,0.4,0.1c0.2,0,0.5-0.1,0.6-0.3c0.2-0.2,0.5-0.4,0.7-0.5c0.1,0,0.2-0.1,0.2-0.1c0.4-0.7,1.1-0.5,1.7-0.7
		c0.1,0,0.2,0,0.3,0c0.6-0.4,1.3-0.6,2.1-0.8c0.2,0,0.3-0.1,0.5-0.2l-0.2-0.5c0.5-0.3,1-0.6,1.5-0.7l0.1-0.4l-1.3-0.5
		c0.1-0.1,0.1-0.2,0.2-0.2c0.5-0.1,1.1-0.4,1.6,0c0.3,0.2,0.6,0.3,1,0.3l0.1-0.6h0.4c-0.2-0.5,0.5-0.4,0.5-0.8l0.9,0.4
		c0.3-0.5,0.8-0.5,1.3-0.5c0.6,0,1.1-0.2,1.6-0.6c0.1-0.1,0.2-0.3,0.3-0.4c0.1-0.4,0.2-0.5,0.6-0.5c0.3,0,0.6,0.1,0.8,0.2
		c0.2,0.1,0.4,0.1,0.5,0c0.4-0.2,0.4-0.1,0.3-0.6c0.2,0,0.4,0,0.6,0c0.3,0.2,0.8,0,0.9-0.3v-0.1c0.5,0.1,1-0.2,1.5,0
		c0.1,0,0.2-0.1,0.3-0.2c-0.1-0.2-0.1-0.5,0.1-0.6s0.5-0.1,0.6,0.1l0,0c0.6,0.7,1.5,1,2.4,0.9c0.1,0,0.1,0,0.2-0.1
		c0.3-0.3,0.8-0.4,1.2-0.2s0.8,0.2,1.2,0.3c0.1,0,0.1,0.1,0.2,0.1c0.5,0,1-0.1,1.5-0.1l0.6-1l0.7,0.5c0.4-0.2,0.9-0.1,1.4,0.1
		c0.3,0.1,0.5,0.2,0.8,0.3c0.4,0.1,0.8,0,1.2,0.3c0.1,0,0.2,0,0.2,0c0.4-0.1,0.8-0.3,1.2-0.4c0.3-0.1,0.6-0.1,0.8,0
		c0.4,0.1,0.9,0,1.1-0.3c0.1-0.1,0.2-0.1,0.3-0.2c0.6-0.1,1.2-0.4,1.8-0.9c0.4-0.3,0.5-0.3,0.8,0.2c0.2,0.3,0.3,0.6,0.6,0.6
		c0.2,0.1,0.3,0.1,0.5,0c0.4-0.2,0.8,0,1,0.3l0,0l0.1,0.2c0.3-0.2,0.5-0.6,0.6-0.9c0-0.1,0-0.1,0.1-0.2c0.5-0.7,1.3-1.2,2.1-1.4
		c0.4,0,0.7-0.2,1-0.2s0.7,0,1,0c0.2,0.1,0.4,0.2,0.6,0.3c0.1-0.1,0.1-0.2,0.1-0.4c0-0.6,0.4-1.1,1-1.2c0.1,0,0.2-0.1,0.3-0.1
		c0.5-0.4,1.1-0.5,1.6-0.3s0.9,0.4,1.3,0.8l0.1,0.2l-0.5,0.2l0.1,0.2c0.5-0.1,0.9,0.1,1.3,0.3h0.1c0.6-0.1,1.1-0.1,1.7,0.1
		c0.1,0,0.2,0,0.2,0c0.4-0.2,0.9-0.2,1.3-0.1c0.5,0.1,1,0.2,1.5,0.3c0.2,0,0.4,0,0.6,0l0.4,1.2l1.3-0.2c0.3,0.4,0.5,0.8,0.6,1.3
		c0.2-0.1,0.4-0.2,0.6-0.3s0.5-0.2,0.7-0.3s0.6-0.1,0.7-0.6c0.1-0.3,0.3-0.5,0.6-0.6c0.2-0.1,0.5-0.2,0.7-0.3c0.1,0,0.3-0.1,0.3-0.2
		c0.2-0.4,0.6-0.5,0.9-0.6c0.6-0.3,1.2-0.5,1.8-0.8c0.1,0,0.2,0,0.3,0c0.4,0.1,0.8,0.2,1.2,0.3c0.2,0.1,0.4,0.1,0.6,0.1
		c0.4-0.1,0.8-0.1,1.2-0.1c0.2,0,0.5,0.2,0.6-0.1c0,0,0.2-0.1,0.2,0c0.4,0.2,0.7,0.2,1.1,0.1c0.2,0,0.4,0,0.6,0.1c0.1,0,0.2,0,0.2,0
		c0.3-0.3,0.5-0.1,0.8,0c0.1,0,0.3,0.1,0.4,0l1.6,0.1c0.2,0,0.4,0,0.6,0c0.7-0.1,1.4-0.2,2-0.3c0.4-0.1,0.9-0.3,1.3-0.5
		c0.2-0.2,0.5-0.2,0.8-0.1c0.6,0.1,1.1,0.3,1.6,0.6c0.5,0.1,0.9,0.3,1.4,0.4c0.3,0.1,0.5,0.2,0.7,0.3c0.7,0.4,1.6,0.5,2.4,0.3
		c0.4-0.1,0.8-0.3,1.2-0.5s0.7-0.5,1.2-0.2c0.1,0,0.1,0,0.2,0c0.5-0.1,1-0.3,1.5-0.4c0.7-0.3,1.4-0.2,2,0.3c0.2,0.2,0.4,0.2,0.7,0.2
		c0.7,0,1.4,0,2,0.2c0.3,0.1,0.6,0.1,0.9,0c0.3-0.1,0.7,0,1,0.2c0.3,0.3,0.7,0.4,1.1,0.4c0.3,0,0.6,0.1,0.7,0.4
		c0.2,0.2,0.3,0.4,0.6,0.3c0.1,0,0.2,0.1,0.3,0.1s0.2,0.1,0.3,0.1c0.7-0.1,1.2,0.4,1.8,0.6c0.1,0,0.1,0.1,0.2,0.1
		c0.6-0.1,1.1,0.2,1.6,0.3c0.2,0,0.3,0,0.5,0c0.5-0.1,0.9,0.1,1.2,0.5c0.2,0.2,0.5,0.4,0.7,0.6l0.5-0.6h0.1l0.2,0.7
		c0.3,0.1,0.7,0.1,1,0c0.2-0.1,0.5,0,0.6,0.1c0.4,0.3,0.9,0.5,1.4,0.7c0.1,0.1,0.2,0.2,0.3,0.2c0.2,0.1,0.4,0.1,0.5,0.1
		c0.2,0.2,0.2,0.4,0.1,0.6c-0.2,0.6-0.7,0.9-1.3,0.9c-0.2,0-0.4,0-0.6,0.1c-0.1,0.4-0.2,0.6-0.3,1c0,0.1-0.1,0.2-0.2,0.2
		c-0.4,0.1-0.8,0.2-1.3,0.3c-0.2,0.2-0.3,0.6-0.6,0.8c-0.2,0.1-0.2,0.5-0.2,0.7s0.1,0.4,0.1,0.6c0,0.2,0,0.3,0,0.5l0.3,0.1
		c0.1,0.2,0.2,0.4,0.3,0.5s0.1,0.3,0.4,0.2c0.1,0,0.4,0.3,0.4,0.3c-0.1,0.4,0.2,0.4,0.4,0.7c-0.3-0.1-0.5-0.1-0.7-0.2
		c-0.1,0-0.1-0.1-0.2-0.1c-0.7,0-1.3,0.1-1.9,0.4c-0.2,0.2-0.4,0.4-0.5,0.6c0.3,0.6,0.4,1.3,0.4,2c0.3,0.2,0.6,0.4,1,0.5
		c0.3,0,0.4,0.3,0.4,0.6c0.7,0.1,1.3,0.4,1.7,0.9c0.1,0.1,0.3,0.2,0.4,0.2c0.8,0.2,1.6,0.3,2.3,0.5c0.6,0.1,1.2,0.1,1.8-0.1
		c0.3,0.4,0.8,0.6,1.3,0.5c0.5,0,0.9,0.2,1.3,0.2c0.8,0.1,1.7,0.2,2.5,0.3c0.5,0.1,1,0.2,1.5,0.2c0.3,0,0.5,0,0.8,0
		c0.5-0.1,1.1-0.1,1.6,0c0.2,0,0.5,0,0.7,0c0.3,0,0.6,0,0.6,0.4c0.5-0.2,1-0.1,1.4,0.1c0.2,0.1,0.5,0.1,0.7,0.1
		c0.3-0.1,0.6,0,0.8,0.2v1.6H21V166.8z M46.5,164.5v-0.1h-0.3L46.5,164.5z"/>
	<path id="Tracé_106" class="st4" d="M29.5,52.9c-0.1,0.1-0.1,0.2-0.2,0.4c-0.2,0.5-0.8,0.7-1.3,0.4c-0.2-0.1-0.4-0.2-0.6,0
		l0.4,0.1L27.7,54c0.2,0.1,0.4,0.2,0.4,0.3c0.1,0.4,0.6,0.7,0.4,1.3c-0.2,0-0.4,0-0.5,0c-0.4-0.1-0.8-0.1-1.2,0.2
		c-0.1,0.1-0.2,0.1-0.4,0.2c-0.7,0.3-1.3,0.6-1.8,1.1c-0.1,0.2-0.3,0.4-0.4,0.6c-0.3-0.1-0.6-0.3-1-0.4c-0.2-0.2-0.5-0.1-0.7,0.1
		l0,0c-0.4,0.4-0.9,0.7-1.5,0.6V47.8h0.6c0,0.3,0.1,0.5,0.3,0.7c0.5,0.3,0.6,0.3,1,0.2l0.5,0.9c0.4,0,0.9-0.2,1.1-0.5l-0.3-0.9
		c0.1,0,0.3,0,0.4,0c0.6,0.1,1.2,0.2,1.7,0.1c0.3,0,0.6,0.1,0.8,0.3c0.2,0.2,0.4,0.2,0.6,0.2c0.4,0,0.8,0.1,1.1,0.5
		c0.2,0.3,0.5,0.5,0.8,0.6c0.3,0.2,0.6,0.4,0.8,0.6c0.2,0.1,0.3,0.2,0.5,0.3c0.5,0.1,0.8,0.6,0.7,1.1c0.1-0.3,0.3-0.5,0.6-0.4l0,0
		c0.3,0,0.5,0.1,0.8,0.3c0.3,0.2,0.6,0.5,0.9,0.7C33.7,53,33.7,53,32.8,53c0.3,0.4-0.2,0.6-0.2,1c-0.3,0-0.7-0.1-0.9-0.3
		c-0.1-0.1-0.4-0.1-0.6-0.1c0-0.1-0.1-0.2-0.1-0.3c-0.2-0.5-0.5-0.7-0.9-0.4C29.9,53.3,29.7,53,29.5,52.9c0.1-0.2,0.3-0.3,0-0.6
		C29.2,52.7,29.2,52.7,29.5,52.9L29.5,52.9z"/>
	<path id="Tracé_107" class="st4" d="M21,153.8c0.7,0.2,1.3,0.5,1.9,0.9c0.2,0.1,0.4,0.2,0.6,0.3c0.1,0.4,0,0.8-0.3,1
		c-0.5,0.3-1.1,0.4-1.6,0.3c0.1,0.3,0,0.7-0.1,1c0,0.2-0.3,0.3-0.5,0.3l0,0L21,153.8z"/>
	<path id="Tracé_108" class="st4" d="M21,115l0.8,0.5l-0.1,0.1l-0.7-0.2V115z"/>
	<path id="Tracé_109" class="st4" d="M145.6,92.9c0,0.2-0.1,0.5-0.1,0.8c0,0.1,0.1,0.2,0.2,0.4c0.2,0.3,0.4,0.4,0.8,0.3
		c0.2,0,0.4,0,0.6,0c0.2,0,0.3,0,0.5-0.1c0.4-0.2,0.8-0.3,1.2-0.3c0.3-0.1,0.6-0.2,0.9-0.3c0,0.8-0.1,1.5-0.4,2.2
		c-0.2,0.4-0.3,0.8-0.5,1.1c-0.2,0.5-0.4,1-0.6,1.5c-0.4,0.7-1,1.3-1.7,1.8s-1.2,1.2-1.6,2c-0.2,0.3-0.4,0.6-0.7,0.9
		c-0.2,0.2-0.3,0.4-0.4,0.6c-0.2,0.4-0.2,0.8-0.4,1.2c-0.1,0.3,0,0.5,0.2,0.7s0.2,0.4,0.1,0.6c-0.2,0.5-0.1,1.1,0.3,1.5
		c0.1,0.1,0.2,0.2,0.2,0.4c0.1,0.6,0.1,1.2,0.1,1.8c0,0.4,0,0.9-0.1,1.3c-0.1,0.5-0.4,0.9-0.8,1.1c-0.5,0.3-1,0.5-1.5,0.7
		c-0.2,0.3-0.4,0.6-0.6,0.8c-0.2,0.2-0.3,0.5-0.2,0.8c0.3,0.7,0.4,1.5,0.4,2.3c0,0.2-0.1,0.5-0.4,0.5c-0.2,0.1-0.5,0.2-0.7,0.3
		s-0.4,0.2-0.5,0.3c0.2,0.4,0.2,0.9,0,1.3c-0.1,0.2-0.1,0.5-0.1,0.7c-0.4,0.2-0.7,0.6-0.8,1c-0.3,0.5-0.7,1-1.1,1.5
		c-0.1,0.1-0.2,0.1-0.2,0.2c-0.4,0.6-1.1,1-1.9,1c-0.5,0-1.1,0.1-1.6,0.2c-0.2,0.1-0.4,0-0.6,0.1c-0.2,0.2-0.6,0.2-0.8,0
		c-0.1-0.1-0.3-0.1-0.4-0.1c-0.1-0.2-0.2-0.4-0.2-0.6c0-0.2-0.1-0.4,0.1-0.6c0.1-0.2,0.1-0.5,0-0.8c-0.2-0.6-0.5-1.3-0.8-1.9
		c0-0.1-0.1-0.2-0.1-0.2c-0.5-0.2-0.5-0.7-0.6-1.1c-0.1-0.7-0.2-1.5-0.3-2.2c0-0.6-0.2-1.2-0.6-1.7c-0.1-0.2-0.2-0.4-0.2-0.6
		c0-0.3-0.2-0.7-0.4-0.9c-0.1-0.1-0.2-0.1-0.2-0.2c-0.1-0.6-0.1-1.2,0.1-1.9c0.1-0.3,0.2-0.6,0.3-0.9c0.1-0.3,0.2-0.6,0.4-0.9
		c0.3-0.5,0.4-1,0.1-1.5c-0.1-0.3-0.1-0.6-0.1-0.9c0.1-0.4,0-0.7-0.1-1.1c-0.2-0.5-0.4-1.1-0.5-1.6c-0.1-0.1-0.1-0.3-0.2-0.4
		c-0.3-0.4-0.6-0.8-1-1.2c-0.2-0.3-0.4-0.6-0.6-0.9c0.2-0.4,0.3-0.9,0.3-1.4c0-0.4,0.1-0.7,0.2-1.1c0.1-0.6-0.3-1.1-0.8-1.2l0,0
		c-0.1,0-0.2-0.1-0.4,0c-0.1,0.1-0.3,0.1-0.4,0.1c-0.3,0.1-0.7-0.1-0.6-0.5c0.1-0.5-0.3-0.6-0.5-0.8c-0.3-0.2-0.8-0.2-1.1,0
		c-0.4,0.3-0.9,0.3-1.3,0.5c-0.4,0.2-0.8,0.3-1.3,0.4c-0.2,0.1-0.5,0.1-0.7,0c-0.4-0.2-0.9-0.2-1.3,0.1c-0.6,0.5-1.1,0.3-1.6-0.3
		c-0.4-0.4-0.8-0.8-1.3-1.2c-0.4-0.3-0.5-0.8-0.7-1.2c-0.2-0.6-0.5-1.2-1-1.7c-0.2-0.2-0.3-0.4-0.5-0.6c-0.1-0.1-0.2-0.3-0.2-0.4
		c-0.1-0.4-0.2-0.8-0.3-1.2c0.4-0.9,0.6-1.9,0.4-2.9c0-0.1,0-0.2,0-0.3c0.1-0.3,0-0.6-0.2-0.9c-0.1-0.3-0.1-0.6,0.1-0.8
		c0.4-0.8,0.7-1.6,1.2-2.3c0.2-0.5,0.6-0.9,1-1.3c0.6-0.3,1-0.8,1.4-1.4c0.2-0.3,0.2-0.6,0.1-0.9c-0.2-0.8,0.2-1.5,0.9-1.9
		c0.5-0.2,0.8-0.6,1-1.1c0.1-0.3,0.1-0.6,0.5-0.7c0.2,0.5,0.6,0.5,1,0.4c0.2,0,0.3-0.1,0.5,0c0.1,0,0.3,0,0.4-0.1
		c0.3-0.3,0.6-0.4,1-0.5l0.6-0.3c0.1,0,0.2-0.1,0.3-0.1l1.7-0.1h0.2c0.2,0,0.5-0.1,0.6,0s0.4-0.2,0.6,0c0.1,0,0.2,0,0.2,0
		c0.5-0.2,1-0.1,1.4,0.2c-0.2,0.3-0.3,0.7-0.2,1c0,0.2,0,0.5-0.2,0.7s-0.2,0.4,0.1,0.6c0.1,0.1,0.2,0.2,0.3,0.2
		c0.2,0.1,0.4,0.3,0.6,0.3c0.6,0,1.2,0.3,1.5,0.8c0.3,0.4,0.8,0.5,1.2,0.6c0.3,0.1,0.5,0.1,0.8,0.2c0.5-0.4,0.5-0.4,0.3-1
		c0.1-0.2,0.2-0.3,0.4-0.5c0.3-0.3,0.9-0.3,1.2,0c0.2,0.2,0.5,0.3,0.8,0.3c0.6,0.3,1.1,0.5,1.7,0.6c0.6,0.2,1.3,0.2,2-0.1
		c0.1,0,0.2-0.1,0.2,0c0.3,0.3,0.6,0.1,0.9,0.1c0.5,0.1,0.7-0.2,0.9-0.9c0.1-0.4,0.3-0.8,0.4-1.2c0-0.2,0-0.4,0-0.6
		c0-0.4-0.1-0.7-0.1-1.2l-0.8,0.4c-0.3,0.2-0.7,0.2-1,0c-0.2-0.1-0.4-0.2-0.6-0.3l-0.5,0.6l-1.4-0.9c-0.1-0.5-0.1-0.5-0.4-0.6
		c0.1-0.2,0.1-0.4,0.2-0.5c0.1-0.2,0-0.4-0.2-0.4l0,0c-0.1,0-0.1-0.2-0.1-0.3c0.1-0.3-0.1-0.5-0.2-0.7h-1.2l0.3,0.4l-0.4,0.2
		l-0.3-0.3c-0.1,0.1-0.1,0.2-0.1,0.3c0,0.1,0.1,0.3,0.2,0.4c0,0.1,0,0.3,0.1,0.4c0.3,0.2,0.6,0.4,0.8,0.7l-0.3-0.1
		c-0.1,0.1,0,0.5-0.4,0.2c0,0.1,0,0.3-0.1,0.4c-0.3,0.1-0.5,0.3-0.9,0.2c0.2-0.2-0.4-0.6,0.2-0.8l-0.3-0.1c-0.2-0.4-0.4-0.8-0.7-1.2
		c-0.3-0.2-0.4-0.6-0.3-1c0-0.1,0-0.3,0-0.4c-0.6-0.3-1.2-0.9-1.9-1.2c-0.4-0.2-0.5-0.6-0.6-1c0-0.1,0-0.2,0-0.4l-0.5,0.5l-0.2-0.8
		l-0.5,0.1c0,0.2-0.1,0.4-0.1,0.6c-0.1,0.2-0.1,0.5,0.2,0.6s0.6,0.4,0.7,0.7c0.2,0.4,0.4,0.7,0.9,0.8c0.1,0,0.1,0,0.2,0.1
		c0.1,0.5,0.8,0.5,1,0.9c0.1,0.1,0.2,0.2,0.1,0.4l-0.6-0.3c-0.2,0.1-0.3,0.3-0.2,0.6c0,0,0,0.1,0.1,0.1c0.3,0.4,0,1-0.6,1.3
		c0.1-0.2,0.1-0.4,0.1-0.5c0.1-0.4,0.1-0.9-0.4-1.1c-0.2-0.1-0.3-0.4-0.5-0.5c-0.1-0.1-0.3-0.2-0.4-0.2c-0.5-0.2-1-0.6-1.2-1.1
		c-0.1-0.2-0.1-0.3-0.2-0.5c-0.1-0.4-0.5-0.7-0.9-0.8c-0.4,0.3-0.7,0.6-1.1,0.8c-0.1,0.1-0.3,0.1-0.4,0.1c-0.1-0.1-0.3-0.1-0.4-0.2
		c-0.3-0.2-0.7,0-0.9,0.3c-0.1,0.1-0.1,0.3-0.1,0.5s-0.1,0.4-0.2,0.5c-0.3,0.2-0.6,0.4-0.9,0.6c-0.2,0.3-0.5,0.6-0.7,0.9l0.2,0.4
		c-0.4,0.3-0.5,0.9-1,1.1c-0.1,0-0.2,0.1-0.2,0.2c-0.1,0.2-0.4,0.4-0.6,0.3c-0.3,0-0.6,0-0.9,0.2c-0.4,0.2-0.4,0.2-0.6-0.2
		c-0.1-0.3-0.4-0.4-0.7-0.3l0,0c-0.2,0-0.4,0-0.6-0.1c-0.1-0.4-0.2-0.8-0.2-1.2c0-0.2,0-0.4,0.1-0.5c0.3-0.8,0.3-1.8-0.1-2.6
		c0.5-0.1,0.8-0.6,1.4-0.4c0.4,0.1,0.8,0.1,1.3,0.1c0.3,0,0.6,0.1,0.9,0.2c0.3,0.1,0.6,0,0.7-0.3c0-0.1,0-0.1,0-0.2
		c0-0.4,0-0.8,0-1.2c0-0.2-0.1-0.3-0.3-0.4s-0.4-0.3-0.5-0.6c-0.3-0.4-0.7-0.8-1.2-0.9v-0.5c0.3,0,0.5-0.3,0.8,0
		c0.1,0.1,0.5-0.1,0.8-0.1l-0.1-0.8c0.1,0,0.2,0,0.2,0c0,0.2,0.2,0.2,0.4,0.2l0,0c0.1,0,0.3-0.1,0.4-0.1c0.2-0.2,0.4-0.3,0.6-0.5V66
		c0.4-0.3,0.9-0.4,1.4-0.4l0.2-0.5c0.1-0.5,0.6-0.8,1.1-0.8c0.3,0,0.6-0.1,0.9-0.2c0.1-0.1,0.2-0.2,0.2-0.4c0-0.4-0.1-0.9-0.2-1.3
		c-0.1-0.3-0.2-0.7-0.2-1c0.3,0,0.6-0.2,0.8-0.5l-0.6,0.3V61c0.1-0.1,0.3-0.2,0.4-0.3c0.1-0.1,0.3-0.1,0.4-0.2s0.2-0.2,0.4-0.3
		c0.1,0.5-0.5,1,0.2,1.3l-0.5,0.6c0.3,0.2,0.3,0.2,0.3,0.5l-0.4-0.2c0.1,0.7,0.1,0.7,0.8,1.2c0.1,0,0.1-0.1,0.2-0.1
		c0.2-0.3,0.6-0.3,0.9-0.1c0.5,0.2,1.1,0.2,1.5-0.1c0.3-0.1,0.6-0.2,0.9-0.3c0.2-0.1,0.3,0,0.2,0.3c0.4,0,0.7,0,0.7-0.6
		c0-0.1,0.3-0.2,0.5-0.3c0.1-1.3,0.2-1.7,0.7-2c0.4,0.6,0.4,0.6,0.9,0.5c0.2-0.6-0.1-1.2-0.1-1.8c0.4-0.2,0.9-0.3,1.3-0.3
		c0.2,0,0.5-0.2,0.7,0c0,0,0.1,0,0.2-0.1c0.3-0.4,0.8-0.2,1.2-0.4c-0.3-0.4-1-0.1-1.1-0.7c-0.4,0.1-0.8,0.2-1.3,0.4
		c-0.1,0.1-0.3,0.1-0.4,0.2c-0.2,0.2-0.5,0.4-0.8,0c0,0-0.2,0-0.3,0.1c-0.2-0.3,0.1-0.3,0.3-0.4c-0.1-0.1-0.2-0.2-0.4-0.3
		c-0.3-0.1-0.5-0.3-0.4-0.6c0.1-0.4,0-0.8-0.2-1.2c0.2-0.3,0.5-0.6,0.8-0.8c0.3-0.2,0.5-0.5,0.6-0.7c0.1-0.1,0.1-0.2,0.1-0.2
		c0.4-0.2,0.3-0.5,0.2-0.9c-0.4-0.3-0.8-0.1-1.2-0.2c-0.4,0.4-0.9,0.8-0.6,1.4c-0.2,0.4-0.5,0.7-0.9,0.7c-0.6,0.2-0.6,0.8-1.1,1
		c0,0.4-0.1,0.7-0.1,1.1c0,0.2,0,0.4,0.1,0.6c0.2,0.1,0.4,0.1,0.5,0.2c0.2,0.2,0.4,0.3,0.3,0.6c-0.1,0.3-0.2,0.7-0.7,0.8
		s-0.4,0.1-0.5,0.5c0,0.2-0.1,0.5-0.1,0.7s-0.1,0.5-0.1,0.9c-0.1,0-0.3,0.1-0.4,0.1c-0.6,0.1-0.6,0.1-0.8,0.7l-0.7,0.1
		c0-0.2,0-0.4,0-0.6c0.2-0.3,0-0.6-0.2-0.8c-0.2-0.3-0.5-0.4-0.3-0.9c0-0.2-0.2-0.4-0.3-0.7c-0.5,0.3-1.1,0.5-1.6,0.8
		c-0.3,0.1-0.5,0.1-0.7,0c-0.2,0-0.4-0.2-0.4-0.4l0.3-0.6l-0.6-0.1l0.6-0.7c-0.4,0.1-0.5-0.1-0.7-0.3c0.2-0.2-0.1-0.5,0.4-0.6h-0.4
		v-0.3l0.3-0.1l-0.1-0.2l0.7-0.2l-0.1-0.3c0.2-0.1,0.6,0,0.5-0.4l0.8-0.4l-0.1-0.4c0.2,0.1,0.5,0.2,0.7,0.3c0.2,0.1,0.3,0.1,0.4-0.1
		l-0.4-0.1c0.4-0.5,0.7-1,1.3-1.1c-0.1-0.5,0.5-0.4,0.7-0.8v-0.5c0.5-0.2,0.9-0.6,1.2-0.9l-0.2-0.6l0.5,0.1l-0.2-0.3l0.5-0.3
		l0.2-0.7l0.6-0.3c0.1-0.1-0.3-0.5,0.2-0.3c0.1,0,0.2-0.1,0.4-0.2l0.4,0.2c0.1-0.2,0.1-0.4,0.4-0.3l-0.3-0.2
		c0.1-0.2,0.3-0.2,0.9,0.2c0.1-0.1,0.3-0.2,0.4-0.3s0.2-0.4,0.4-0.1l0.1-0.4l0.6,0.2l-0.4,0.6l0.1,0.1l0.7-1V49l0.6-0.9
		c0.4,0.2,0.4,0.2,0.2,0.6l0.4-0.2l1,0.6l-0.8,0.4c0.5,0.1,1.1-0.1,1.6,0.1l-0.1,0.2c1.4,0.3,2.8,0.9,4,1.7c0.5,0.4,0.5,0.7,0.1,1.1
		c-0.3,0.4-0.8,0.5-1.3,0.4c-1-0.2-1.9-0.6-2.8-1.1c0,0.1,0.1,0.2,0.1,0.3c0.1,0.1,0.2,0.3,0.3,0.4c0.1,0.2,0.3,0.3,0.6,0.4
		c0.4,0.2,0.4,0.2,0.5,0.6c0,0.3,0.1,0.6,0.2,0.9c0.1,0,0.3,0,0.3,0.1c0.1,0.4,0.5,0.3,0.7,0.4c0.1,0,0.3-0.1,0.3-0.1
		c0-0.2,0-0.3-0.1-0.5c-0.1-0.1-0.3-0.3-0.4-0.4l0.2-0.5c0.1,0,0.1,0,0.2,0c0.4,0.4,0.9,0.6,1.4,0.6l-0.5-0.8l1.1-0.9l0.7,0.5
		c0.1-0.2,0.2-0.5,0.3-0.7c0-0.1,0.1-0.1,0-0.2c-0.4-0.5,0.1-0.7,0.2-1.2l-0.3-0.5c0.8,0.1,1.4,0.2,1.6,1.1
		c-0.8,0.3-0.8,0.3-0.5,1.1l0.8-0.2c0,0,0.1-0.1,0.1-0.2c0-0.4,0.2-0.7,0.5-0.8c0.5-0.2,1-0.5,1.5-0.6c0.4-0.1,0.7-0.3,0.9-0.5
		l0.4,0.5l-0.4,0.2c0.4,0.1,0.7,0,1-0.2c0.3-0.3,0.8-0.3,1.1-0.1l0.8-0.4l0.3,0.7l0.2-0.4l0.4,0.1c0.3-0.4,0-0.6-0.1-1
		c0.2-0.2,0.5-0.3,0.8-0.2c0.2,0,0.3-0.1,0.5-0.1l0.8,0.3c0.1,0,0.1,0,0.2,0.1c0.1,0.2,0.2,0.2,0.4,0.3c0.3,0.1,0.6,0.3,0.9,0.6
		c0.2,0.1,0.3,0.3,0.4,0.5c0.2-0.2,0.3-0.4,0.1-0.7c-0.1-0.2-0.1-0.4-0.1-0.6l-0.5-0.2c0.3-0.5,0.3-1.1,0.1-1.6
		c0.5-0.3,0.8-0.8,1.1-1.3c0.1-0.2,0.2-0.5,0.5-0.5c0.4,0,0.8-0.2,1.1,0.1c0.2,0.1,0.2,0.3,0.2,0.5c0,0.4-0.1,0.8-0.3,1.1
		c-0.1,0.2-0.1,0.5,0.1,0.6c0.2,0.2,0.3,0.5,0.2,0.7c-0.2,0.5-0.1,1.1,0.4,1.5c-0.2,0.5,0,1.1-0.5,1.5c-0.2,0.1-0.4,0.2-0.6,0.3
		c-0.3,0-0.5,0-0.8,0c0,0.3,0.3,0.4,0.5,0.4l0,0c0.5-0.1,0.8,0.1,1,0.6c0.1-0.3,0-0.6-0.2-0.8c0.2-0.1,0.3-0.1,0.5-0.2
		c0.3,0,0.5-0.2,0.5-0.5c0.1-0.3,0.3-0.6,0.2-1c0-0.2,0-0.3,0.2-0.4c0.3-0.2,0.6-0.3,1-0.3c0.3,0.4,0.3,0.9,0.2,1.3
		c-0.1,0.3,0.1,0.4,0.5,0.4c0.1,0,0.2,0,0.2,0c0.1,0,0.2,0,0.2,0l-0.2-0.1c-0.5-0.2-0.6-0.3-0.1-0.8c-0.1-0.2-0.2-0.5-0.4-0.7
		c-0.3-0.3-0.7-0.4-1-0.3l-0.7,0.2c-0.1-0.3-0.2-0.7-0.1-1c0.1-0.2-0.1-0.5-0.2-0.7h-0.1c0.2-0.2,0.3-0.5,0.4-0.8
		c0.1-0.2,0.2-0.5,0.2-0.7s0-0.4,0-0.5c0.3,0.2,0.4,0.5,0.3,0.8c-0.2,0.4,0.2,0.7,0.2,1.1c0,0.1,0.2,0.2,0.3,0.2
		c0.3,0,0.6-0.1,1.1-0.1L163,48c0.2-0.5,0.3-0.5,0.9-0.1c0.3-0.1,0.2-0.3,0-0.4c0.6-0.4,0.8-0.4,1.3,0c0.3,0.3,0.7,0.4,1.1,0.4
		c0.1,0,0.2,0.1,0.3,0.1c-0.6,0.4-0.4,1-0.7,1.5c0.5-0.2,0.5,0.6,1,0.4l-0.5-0.4c0.3-0.3,0.3-0.3,0.2-0.8c0-0.2,0-0.4,0.1-0.6
		c0-0.1,0-0.3-0.1-0.4c-0.2-0.2-0.5-0.3-0.7-0.4c-0.5-0.2-0.6-0.4-0.5-0.9c0-0.1,0-0.2,0.1-0.3c0-0.4,0.2-0.5,0.6-0.5
		c0.5,0,1-0.3,1.5-0.1c0.1,0.1,0.3,0,0.4-0.1c0.5-0.1,0.5-0.1,0.6,0.3c0.2-0.3,0.1-0.5-0.4-0.9l0.3-0.2l-0.3-0.3l0.5,0.1
		c-0.1-0.3,0.4-0.3,0.2-0.6c0.4-0.1,0.7-0.3,1.1-0.4c0.4-0.1,0.9-0.1,1.3-0.2c0.5-0.2,1.1-0.3,1.7-0.3c0.3,0,0.1-0.3,0.3-0.3h0.5
		l-0.2,0.6c0.6,0.1,0.9-0.3,1.3-0.5c0.1,0,0.1-0.1,0.1-0.1h1l-0.2-0.4c0.2-0.2,0.4-0.5,0.6-0.6c0.1-0.1,0.2-0.1,0.3-0.1
		c0.3,0,0.6-0.1,0.9-0.1c0.3,0,0.5,0.1,0.8,0.3l-0.1,0.4l0.9,0.2v0.5c0.4-0.2,0.7-0.4,1.1-0.5c0.4,0,0.8,0,1.2,0
		c0,0.3,0.2,0.5,0.5,0.6c0.2,0.2,0.4,0.5,0.5,0.8c-0.1,0.1-0.1,0.2-0.2,0.3c0.1,0.1,0.1,0.1,0.1,0.2s0.1,0.2,0.1,0.3
		c-0.3,0.1-0.6,0.2-1,0.3s-0.7,0.2-1.1,0.3c-0.1,0-0.3,0.2-0.4,0.3c-0.1,0.6-0.5,0.8-1,1c-0.3,0.2-0.6,0.3-0.8,0.6
		c0.5,0,0.7-0.4,1.2-0.3c0.3-0.1,0.7-0.2,1-0.3c-0.2-0.3,0-0.5,0.2-0.7c0.2,0,0.5-0.1,0.6,0.2c0.1,0.2,0.5,0.1,0.8-0.1l0.2,0.3
		c0.1,0,0.1-0.1,0.1-0.1c0.4-0.4,0.9-0.5,1.4-0.3c0.3,0.1,0.6,0.1,0.9,0.1v0.6c0.3,0.2,0.6,0.3,1,0.3c0.5,0,0.9,0.1,1.3,0.3
		c0.4,0.2,0.6,0,0.8-0.4c-0.2-0.1-0.4-0.2-0.6-0.3c-0.1-0.1-0.2-0.3-0.1-0.5l0.1-0.1c0.3-0.2,0.7-0.2,1,0c0.2,0.1,0.4,0.3,0.7,0.4
		c-0.1,0.4-0.5,0.4-0.8,0.6c0,0.6,0,0.6,0.6,0.4c0.1,0.1,0.1,0.5,0.4,0.4l0.6-0.1l-0.2-0.3h0.4l-0.1,0.4c0.3,0.7,0.9,1.2,1.7,1.3
		v0.4c0.6-0.4,0.5-1.1,0.8-1.6l0.4,0.6c0.1,0,0.3-0.1,0.4-0.2c0.3-0.2,0.7-0.2,0.9,0s0.5,0.3,0.7,0.4c0.1,0,0.2,0,0.3,0l0.2-0.5
		l0.6,0.3l0.1-0.1c-0.3-0.4,0-0.7-0.1-1.2l0.5-0.1v-0.3l2.3,0.5v0.1l-0.5,0.1c0.1,0.3,0.4,0.2,0.5,0.2c0.2,0,0.4,0,0.6,0
		c0,0.1-0.1,0.2-0.1,0.3c-0.4-0.1-0.4,0.3-0.6,0.6c0.3,0,0.5,0,0.6-0.3c0.1-0.1,0.1-0.2,0.2-0.3c0.1-0.2,0.2-0.4,0.5-0.4
		c0.4,0,0.8,0.1,1.2,0.3c0.1,0.1,0.1,0.2,0.1,0.3c-0.1,0.1-0.3,0.1-0.4,0.1c0.1,0.2,0.3,0.3,0.5,0.3c-0.1,0.3-0.2,0.5-0.6,0.4
		c0.7,0.2,1.4,0.2,2.1,0c0.2,0,0.4,0,0.5,0s0.2,0.1,0.2,0c0.6-0.3,1.3,0.1,1.9-0.2c0.2-0.1,0.4,0.1,0.6,0.2c0.2,0.1,0.4,0.3,0.5,0.4
		c-0.2,0.5,0.4,0.7,0.4,1.2c0-0.4,0.3-0.7,0.7-0.8c0.4-0.1,0.8-0.1,1.1,0.1c0.1,0,0.2,0,0.3,0c0.2,0,0.3,0,0.5,0
		c0.3,0.2,0.7,0.2,1.1-0.1l0.5,1c0.3,0,0.5-0.1,0.7-0.3c0.3-0.3,0.3-0.3,0.1-0.7c0-0.2-0.1-0.3-0.1-0.5c0.8,0,1.5,0,2.2,0.1
		c0.3,0.1,0.7,0.2,1,0.4c0.1,0.1,0.3,0.1,0.5,0.1c0.4,0,0.7,0.1,1,0.4c0.2,0.4,0.5,0.7,0.9,0.8c0.2,0,0.3,0.2,0.4,0.4
		c0.3,0.2,0.6,0.5,1,0.6s0.6,0.5,0.6,0.8c0.1-0.1,0.3-0.2,0.4-0.2c0.3-0.1,0.7-0.1,0.9,0.2c0.3,0.3,0.6,0.6,1,0.9l-0.3,0.5l-0.9-0.1
		l0.3,0.3c-0.1,0.2-0.5,0.4,0,0.6c-0.4,0.1-0.7,0.1-1.1-0.1c-0.2-0.1-0.4-0.2-0.6-0.2c-0.2,0-0.3-0.2-0.4-0.3
		c-0.2-0.6-0.4-0.6-0.9-0.4c-0.3,0.1-0.3,0.1-0.7-0.1c0.1-0.2,0.2-0.5-0.1-0.6c-0.1,0.2-0.3,0.4,0,0.6c0.1,0.1,0,0.6-0.3,0.6
		c-0.3,0.2-0.8,0.2-1.1,0h-0.5c0.2,0.3,0.4,0,0.5,0l-0.3,0.5h0.3c0.2,0.4,0.4,0.7,0.6,1.1c0.1,0.1,0,0.3-0.1,0.4h-0.1
		c-0.1,0-0.2,0-0.3,0c-0.3-0.1-0.6-0.1-0.9,0c-0.9,0.3-1.8,0.9-2.5,1.5c-0.2,0.2-0.4,0.4-0.6,0.7c-0.1-0.1-0.2-0.2-0.3-0.3
		c-0.4-0.5-0.8-0.5-1.2,0c-0.1,0.2-0.3,0.3-0.5,0.5l-0.1-0.6l-0.6,0.5l-0.5-0.1c-0.3,0.4-0.6,0.8-0.9,1.3c-0.2,0.3-0.1,0.4,0.2,0.6
		c0.1,0,0.2,0.1,0.3,0.1c-0.1,0.2-0.1,0.3-0.2,0.4c-0.3,0.4-0.2,0.5,0.1,0.8c0.1,0.1,0.1,0.1,0.1,0.2c0,0-0.1,0.1-0.2,0.1
		c-0.8,0.2-0.9,0.5-0.4,1.2c-0.1,0.1-0.2,0.2-0.4,0.3c-0.7,0.1-0.9,0.4-0.9,1.1v0c-0.1,0-0.2,0.1-0.3,0.1c-0.1,0.1-0.3,0.2-0.3,0.3
		c0,0.6-0.4,0.8-0.9,1.2c-0.1-0.6-0.2-1.3-0.4-1.9c-0.1-0.4-0.1-0.8-0.2-1.2c-0.1-0.5,0-1.1,0.1-1.6c0-0.1,0.1-0.1,0.1-0.2
		c0.5-0.2,0.4-0.6,0.4-0.9c0.5-0.1,0.9-0.3,1.2-0.6c0.3-0.4,0.6-0.7,1-1c0.2-0.3,0.3-0.5,0.5-0.8c0.1,0,0.2-0.1,0.3-0.1
		c0.2-0.1,0.5-0.1,0.6-0.2c0.1-0.3,0.2-0.6,0.2-0.8c0-0.2,0.1-0.5,0.4-0.5c-0.1-0.2-0.3-0.2-0.5-0.1s-0.3,0.3-0.3,0.8
		c-0.5-0.1-0.6-0.1-1,0.4c-0.2,0.2-0.3,0.4-0.5,0.6l-0.3-0.4l0.2-0.5c-0.2-0.1-0.4-0.2-0.6-0.2c-0.6-0.1-1.1,0.1-1.5,0.6
		c-0.1,0.3-0.3,0.5-0.6,0.6c-0.3,0.2-0.5,0.5-0.5,0.9h0.5v0.2c0,0-0.2,0.2-0.3,0.2c-0.4-0.1-0.7,0.2-1.1,0.3
		c-0.2,0.1-0.5,0.1-0.6-0.3l0.5-0.1l-0.3-0.4c-0.2,0-0.4,0-0.6,0c-0.2,0-0.4-0.1-0.6-0.1l-0.2,0.5l-1.2-0.2l-0.2,0.1h-0.1
		c-0.4-0.7-1.1-0.1-1.5-0.4c-0.3,0.1-0.5,0.3-0.8,0.5c-0.2,0.3-0.4,0.6-0.6,0.9c-0.2,0.2-0.3,0.4-0.5,0.5c-0.4,0.3-0.7,0.6-0.9,1
		c-0.1,0.3-0.5,0.5-0.8,0.8l-0.8,0.8l0.9,0.1c0,0.1,0,0.2,0.1,0.3c0,0.1,0,0.2,0,0.4l0.4-0.2l0.1,0.5c0.1-0.1,0.2-0.2,0.3-0.3
		c0.2-0.3,0.6-0.3,0.8-0.2c0.1,0,0.1,0.1,0.2,0.2c0.2,0.2,0.5,0.5,0.7,0.7l-0.3,0.1c0.1,0.4,0,0.8-0.2,1.1c-0.1,0.2-0.1,0.6-0.1,0.9
		c0,0.4-0.1,0.9-0.3,1.2c-0.2,0.3-0.4,0.5-0.6,0.8l-0.1,0.1c-0.4,0.8-0.9,1.6-1.5,2.2c-0.2,0.4-0.5,0.7-0.8,1
		c-0.3,0.4-0.5,0.4-0.8,0l-0.3-0.3h-0.1c-0.3,0.3-0.6,0.6-1,0.9c-0.2,0.1-0.3,0.4-0.3,0.6c0.1,0.2,0,0.4-0.2,0.5
		c-0.2,0.2-0.4,0.3-0.6,0.5c-0.2,0.1-0.3,0.4-0.3,0.6c0.1,0.2,0.3,0.5,0.4,0.7c0.1,0.2,0.2,0.3,0.3,0.5c0.2,0.4,0.3,0.8,0.3,1.3
		c0,0.3-0.2,0.6-0.5,0.6c-0.3,0.1-0.5,0.3-0.8,0.4c-0.1,0-0.2,0-0.2,0c0.2-0.8,0.3-1.6,0.2-2.4H188l-0.4-0.5
		c0.1-0.1,0.1-0.2,0.2-0.3c0.2-0.2,0.2-0.5,0-0.6l-0.1-0.1c-0.3-0.2-0.6-0.2-0.9,0l-0.8,0.6c-0.2-0.5,0.2-0.9,0.4-1.3
		c-0.5-0.3-0.6-0.3-0.9,0.2c-0.1,0.2-0.3,0.3-0.4,0.4c-0.1,0.1-0.2,0.1-0.3,0.2c-0.1,0.3-0.5,0.4-0.8,0.4c-0.2,0.6,0.4,0.9,0.5,1.4
		c0.3-0.2,0.7-0.3,1-0.4c0.4,0,0.8,0.1,1.2,0.2c-0.2,0.2-0.3,0.3-0.4,0.4c-0.6,0.2-1.1,0.6-1.4,1.2c-0.1,0.3-0.1,0.6,0,0.8
		c0.2,0.4,0.5,0.8,0.7,1.2l0.2,0.4l-0.6,0.1c0.5,0,0.8,0.2,0.8,0.6l-0.4,0.4l0.7,0.2c-0.3,0.2-0.1,0.6-0.4,0.7c-0.1,0,0,0.3,0,0.4
		c-0.2,0.3-0.3,0.5-0.5,0.7c-0.1,0.1-0.2,0.2-0.3,0.3c-0.2,0.1-0.3,0.3-0.2,0.5c0,0,0,0,0,0.1c0.1,0.2,0,0.3-0.1,0.4
		c-0.4,0.5-0.8,0.9-1.3,1.2c-0.1,0.1-0.2,0.1-0.2,0.1c-0.1,0.7-0.7,0.4-1.1,0.6c-0.1,0-0.2-0.1-0.3-0.1c-0.2,0.3-0.5,0.5-0.9,0.6
		s-0.7,0.3-0.9,0.6c-0.1,0.1,0,0.3-0.1,0.4c-0.4,0-0.4-0.1-0.5-0.8c-0.3-0.2-0.5-0.1-0.8,0.1c-0.4,0.3-0.8,0.7-1.1,1.1
		c-0.2,0.2-0.2,0.6-0.1,0.9c0.1,0.2,0.2,0.5,0.4,0.6c0.5,0.4,0.9,1,1.1,1.6c0.4,0.6,0.5,1.4,0.4,2.1c-0.1,0.3-0.2,0.5-0.5,0.7
		c-0.3,0.3-0.8,0.5-1.3,0.5l0.2,0.4c-0.4,0-0.3,0.6-0.7,0.6c-0.2-0.2-0.2-0.4-0.2-0.6c0.1-0.2,0-0.5-0.3-0.5l0,0
		c-0.3-0.1-0.4-0.3-0.6-0.6c-0.3-0.4-0.7-0.9-1-1.3c-0.1-0.1-0.2,0-0.3-0.1c-0.1,0.8-0.3,1.5-0.4,2.3c0,0.2,0,0.4,0.1,0.5
		c0.1,0.3,0.2,0.5,0.4,0.8c0,0.1,0.1,0.2,0.1,0.2c0.4,0.2,0.6,0.6,0.9,1c0.4,0.3,0.6,0.8,0.5,1.3s0.2,0.9,0.4,1.3l-0.4,0.2l-0.1-0.1
		c-0.8-0.5-1.3-1.4-1.3-2.3c0-0.3-0.1-0.6-0.2-1c-0.1-0.3-0.3-0.6-0.5-0.8c-0.3-0.3-0.4-0.6-0.3-1c0.2-0.5,0.2-1.1,0-1.6
		c0-0.7-0.2-1.4-0.4-2c-0.1-0.5-0.1-1-0.6-1.3c-0.2,0.2-0.4,0.5-0.7,0.6c-0.1,0.1-0.4,0-0.6,0c0-0.2,0-0.4,0.1-0.6
		c0.1-0.3,0.1-0.7-0.1-1c-0.1-0.3-0.2-0.7-0.3-1l-0.4,0.1c-0.2-0.3-0.4-0.7-0.4-1.1s-0.3-0.7-0.6-0.8c-0.3,0.1-0.2,0.4-0.2,0.6
		c-0.3,0.1-0.5,0.2-0.7,0.3c-0.1,0-0.2,0-0.3,0c-0.4-0.1-0.7,0.1-0.8,0.5c0,0.3-0.2,0.6-0.5,0.6c-0.4,0.1-0.6,0.4-0.8,0.7
		c-0.2,0.4-0.5,0.6-0.9,0.8c-0.1,0-0.3,0.1-0.3,0.2c-0.1,0.4-0.5,0.7-0.9,0.8c-0.2,0.1-0.3,0.2-0.3,0.4c0,0.6,0,1.1,0,1.7
		c0,0.2,0,0.3-0.1,0.4c-0.2,0.3-0.3,0.7-0.1,1.1c-0.2,0.3-0.4,0.6-0.5,0.8c-0.1,0.2-0.4,0.4-0.6,0.8c-0.2-0.5-0.5-0.8-0.6-1.3
		c-0.1-0.4-0.3-0.9-0.6-1.3c-0.1-0.3-0.2-0.6-0.3-1s-0.3-0.8-0.3-1.2c-0.2-0.8-0.3-1.5-0.5-2.3c0-0.1,0-0.3-0.1-0.4
		c0-0.1-0.1-0.3,0-0.4c0.3-0.5,0-0.9-0.1-1.4c0,0.2-0.1,0.5-0.2,0.7c-0.2,0.2-0.4,0.3-0.6,0.4l-0.9-1l0.7-0.4v-0.1l-0.4-0.1
		c-0.2-0.1-0.5-0.1-0.5-0.4c0-0.1-0.1-0.1-0.1-0.2c-0.3-0.2-0.5-0.4-0.8-0.7c-0.1-0.2-0.2-0.4-0.3-0.6c-0.5,0.1-1,0.1-1.5,0.2
		c-0.9,0.1-1.8,0-2.7-0.2c-0.2,0-0.4-0.2-0.5-0.5c0-0.3-0.2-0.5-0.5-0.6l-0.4,0.2c-0.5,0.4-1.3,0.2-1.6-0.3l0,0
		c-0.4-0.5-0.8-1.1-1-1.7c0-0.1-0.1-0.2-0.1-0.2c-0.2-0.1-0.4-0.1-0.6-0.1c-0.2,0-0.4,0-0.5,0.2c-0.2,0.2-0.1,0.3,0,0.5
		c0.2,0.6,0.6,1.2,1,1.7c0.1,0.1,0.1,0.3,0.1,0.4s0,0.3,0.1,0.6l0.5-0.5v0.9c0.2,0.5,0.6,0,0.9,0.2c0.4,0.2,0.6-0.1,0.9-0.3
		c0.3-0.3,0.5-0.5,0.7-0.8c0,0.1,0,0.2,0,0.2c0,0.5,0.3,1,0.7,1.2c0.5,0.2,0.9,0.6,1.1,1.2c-0.2,0.4-0.4,0.9-0.7,1.3
		c-0.2,0.3-0.3,0.6-0.3,1c-0.3,0.1-0.6,0.2-0.7,0.5c-0.4,0.1-0.6,0.5-1,0.6c-0.2,0.1-0.5,0.2-0.7,0.3c-0.2,0.1-0.4,0.2-0.5,0.4
		c-0.1,0.2-0.3,0.4-0.5,0.5c-0.6,0.3-1.2,0.6-1.8,0.9c-0.3,0.2-0.7,0.3-1.1,0.4h-0.1c-0.3,0.4-0.7,0.3-1.1,0.3
		c-0.2-0.7-0.3-1.4-0.3-2.1c0-0.4-0.1-0.8-0.3-1s-0.3-0.5-0.4-0.8c-0.1-0.4-0.4-0.7-0.7-0.9c-0.2-0.2-0.3-0.4-0.4-0.6
		c-0.1-0.4-0.2-0.8-0.2-1.2c0-0.2,0-0.4-0.1-0.6c-0.3-0.5-0.6-1-0.9-1.5c-0.2-0.4-0.5-0.7-0.6-1.1c-0.1-0.2-0.4-0.4-0.5-0.4
		c-0.3,0.3-0.5,0-0.7,0c0-0.3-0.1-0.6-0.4-0.7c0,0.3,0.2,0.6,0.4,0.7c0.1,0.6,0.3,1.2,0.6,1.7c0.3,0.4,0.4,0.8,0.5,1.2
		c0,0.3,0.1,0.5,0.3,0.7c0.5,0.5,0.7,1.2,0.6,1.9c-0.1,0.3,0,0.6,0.3,0.8c0.5,0.3,0.8,0.9,0.8,1.5c0,0.2,0.1,0.5,0.2,0.6
		c0.6,0.4,1,1,1.4,1.5C145.2,92.8,145.4,92.9,145.6,92.9L145.6,92.9z M167.2,49.6l0.4,0.2C167.5,49.5,167.4,49.6,167.2,49.6
		c-0.1-0.2-0.1-0.2-0.4,0H167.2z M176.8,43.3c-0.3,0.2-0.6,0.3-1,0.2l-0.1,0.4L176,44l0.3-0.2c0.1-0.1,0.2-0.1,0.3-0.2
		C176.8,43.5,176.8,43.4,176.8,43.3h0.4l-0.1-0.2L176.8,43.3z M163.9,68.9h-0.8c-0.5-0.1-0.9,0-1.4,0.2c-0.3,0.2-0.6,0.5-0.9,0.8
		l0.3,0.4c0.3-0.4,0.6-0.8,1.1-1c0.3-0.2,0.6-0.3,0.9-0.2c0.2,0,0.4,0,0.6,0C163.8,69.1,163.8,69,163.9,68.9
		c0.4,0.1,0.4,0.1,0.5-0.3L163.9,68.9z M142.4,70.5L142.4,70.5c0.3-0.2,0.4-0.4,0.5-0.6l-0.2-0.2l0.7-0.5c-0.2,0-0.4,0-0.6,0.1
		c-0.7,0.2-1.3,0.7-2.1,0.6c0.2,0.2,0.4,0.4,0.5,0.6c0.1,0,0.1,0.1,0.2,0.1C141.7,70.4,142,70.4,142.4,70.5l-1.8,0.6
		c0-0.4-0.1-0.7-0.5-0.8l0.6-0.4c-0.1-0.1-0.3-0.2-0.5-0.2c-0.3,0-0.5-0.1-0.5-0.4c-0.7,0-0.9,0.6-1.2,1c-0.1,0.2-0.1,0.4-0.3,0.5
		c-0.2,0.2-0.1,0.3-0.2,0.5c0,0.1-0.1,0.3-0.2,0.4c-0.1,0.2-0.2,0.4-0.4,0.7l0.7,0.8c-0.2,0-0.3,0.1-0.5,0.1
		c-0.1,0.1-0.3,0.1-0.4,0.2c0.4-0.2,1.1,0.3,1.1-0.5c0.1,0,0.3,0,0.4,0c0.4,0.1,0.8,0,1.1-0.3c0.6-0.4,1.3-0.5,1.9-0.1
		c0.4,0.2,0.8,0.2,1.2,0.4c0.1,0.1,0.4,0,0.6,0c0.1,0,0.2,0,0.4,0c0.3,0,0.6-0.1,0.8-0.4c0.1-0.3,0.1-0.6-0.1-0.8
		c-0.1-0.1-0.2-0.2-0.4-0.3C143.4,71.6,142.8,71.1,142.4,70.5L142.4,70.5z M151.1,70.7c0-0.2,0.1-0.4,0.1-0.4
		c-0.1-0.3-0.3-0.5-0.5-0.7c-0.4-0.3-0.7-0.5-1.1-0.7c-0.4,0.2-0.6,0.3-0.8,0.4s-0.4,0.2-0.5,0.3c-0.1,0.1-0.2,0.2-0.4,0.1
		c-0.1,0-0.2,0-0.3,0.1c-0.1,0.4-0.2,0.8-0.4,1.2l0.4,0.2c-0.1,1.1,0.7,1.8,1.4,2.6c-0.4,0.1-0.3,0.6-0.5,0.9
		c-0.2,0.4-0.2,1,0.1,1.4c0.6-0.1,0.8,0.5,1.3,0.6l1.1-0.2c0-0.1,0-0.2,0-0.3c-0.1-0.3-0.2-0.6,0.1-1c0,0,0-0.2-0.1-0.3
		c-0.1-0.2-0.2-0.4-0.4-0.6h-0.3l0.2-0.7c0.6,0.3,0.6,0.3,0.9-0.1c-0.1-0.1-0.2-0.3-0.3-0.4c-0.2-0.3-0.3-0.3-0.5-0.1l-0.2,0.2
		l-0.1-0.1l0.1-0.7c-0.6-0.1-0.7-0.7-1.2-1.1h0.6l-0.2-0.3l0.7-0.4L151.1,70.7z M153.8,71.7c0.1,0,0.2-0.1,0.3,0
		c0.2,0.2,0.4,0.1,0.5,0c0.2-0.3,0.4-0.5,0.6-0.8c-0.3-0.2-0.5-0.4-0.4-0.7c0.1-0.3,0.1-0.5,0.2-0.7c-0.6,0-0.8,0.4-1.2,0.7
		l-0.2-0.1c-0.3,0.4-0.5,1-0.3,1.5c0,0,0,0.1,0.1,0.1H153.8L153.8,71.7z M140.5,101.2c-0.1,0-0.3,0-0.5,0c-0.4,0-0.5,0.1-0.5,0.5
		c0,0.3,0,0.6,0,0.9c-0.1,0.2,0,0.5,0.2,0.7c0.3-0.2,0.5-0.4,0.8-0.1l0.3-0.3c-0.3-0.4,0.1-0.8,0.1-1.1L140.5,101.2z M176.9,65.7
		c0.2,0.2,0.6,0.2,0.8,0l0,0c0.1-0.1,0.3-0.3,0.4-0.5c0.1-0.2,0.2-0.3,0.5-0.4c0.2-0.1,0.5-0.2,0.6-0.4c0.3-0.2,0.2-0.7,0.6-0.9
		c0.1,0,0.1-0.1,0.1-0.2c0,0,0,0,0-0.1v-1.1l-0.2,0.4c-0.3,0.7-0.7,1.2-1.2,1.7c-0.2,0.2-0.4,0.4-0.6,0.6
		C177.6,65.2,177.3,65.6,176.9,65.7z M140.2,57.7c-0.6-1.1-0.9-1.2-1.5-0.7l0.6,1.1L140.2,57.7z M138.4,105.1c0.1-0.6,0-1.2-0.2-1.7
		c-0.1,0.2-0.1,0.4-0.1,0.6c0,0.2,0.1,0.4,0.1,0.6c-0.1,0.3,0,0.7,0.3,0.9c0.3,0.3,0.5,0.7,0.6,1.1h0.4l0,0
		c-0.2-0.3-0.5-0.5-0.5-0.8C138.9,105.6,138.7,105.4,138.4,105.1L138.4,105.1z M140.8,107.5l-0.1,0.1c0.1,0.9-0.2,1.8,0.3,2.8
		c0-0.7,0-1.3-0.1-1.9c0-0.2,0-0.3,0-0.5C140.9,107.8,140.8,107.7,140.8,107.5L140.8,107.5z M141.3,56c0.1,0.1,0.3,0.3,0.3,0.4
		c-0.1,0.2-0.2,0.3-0.4,0.4l0.8,0.6c0-0.2,0-0.4,0-0.6c-0.1-0.3-0.2-0.5-0.3-0.8H141.3z M146.2,75.6c0.1,0.3,0.2,0.6,0.3,0.8
		c0.1,0.3,0.3,0.2,0.4,0C146.8,76.1,146.7,75.8,146.2,75.6L146.2,75.6z M130.1,58.7l-0.6,0.9c0.4,0,0.7-0.1,0.8-0.4
		C130.3,59,130.2,58.9,130.1,58.7L130.1,58.7z M142.4,59.4c0.2,0.1,0.4,0.3,0.6,0.3c0.2,0,0.3-0.2,0.3-0.4
		C143,59.1,142.7,59.3,142.4,59.4L142.4,59.4z M163.8,72.1c-0.6,0-0.6,0-0.9,0.2C163.2,72.5,163.4,72.4,163.8,72.1z M141.9,98.5
		c-0.2,0.4-0.3,0.6,0.1,0.9L141.9,98.5z M141.4,55.3c-0.1-0.2-0.2-0.4-0.5-0.3C141,55.2,141,55.4,141.4,55.3L141.4,55.3z
		 M137.5,59.2h-0.1c-0.1,0.4-0.1,0.4,0.3,0.6L137.5,59.2z M191.7,70.9h0.1c0-0.2,0.2-0.4-0.1-0.6V70.9z M131,92.1l-0.7-0.1
		C130.4,92.2,130.5,92.2,131,92.1L131,92.1z M137.9,102.8c0.3-0.2,0.3-0.3,0.1-0.5h-0.1V102.8z M145.4,75.4
		c-0.3-0.1-0.3-0.1-0.5,0.1L145.4,75.4z M126.3,57.3L126.3,57.3l0.2,0.1v-0.1C126.4,57.3,126.4,57.3,126.3,57.3L126.3,57.3z
		 M138.1,101.8L138.1,101.8l0.2-0.2l-0.1-0.1L138.1,101.8z M142.6,93.9c-0.2-0.1-0.2-0.2-0.3-0.2s-0.1,0.1-0.2,0.1
		c0.1,0,0.1,0.1,0.1,0.1C142.4,94,142.5,93.9,142.6,93.9L142.6,93.9z"/>
	<path id="Tracé_110" class="st4" d="M54.9,48.9c0.7,0,1.2-0.1,1.1-1c0.2-0.1,0.4,0,0.5,0.2l1.7,1.6l0.3-0.9l0.2,0.8
		c0.6-0.6,1.2-0.3,1.8,0c0.6,0.3,1.2,0.5,1.8,0.7c0.1,0,0.1,0,0.2,0c0.6-0.2,0.7-0.1,1,0.4c-0.2,0.1-0.5,0.1-0.5,0.4
		c0.7,0.3,1.6,0.2,2.2-0.2c0.1,0.3,0.6,0.2,0.6,0.6c0.3,0.1,0.2,0.5,0.4,0.6c0.2-0.2,0.2-0.2,0-0.9l0.9-0.6v-0.1L66,50.9l0.3-0.7
		c0.3,0,0.6-0.1,0.9-0.1c0.5,0,0.6,0,0.7,0.5c0,0.1,0,0.1,0.1,0.2l0.4-0.1l0.1,0.2l0,0c0.5-0.2,0.8,0.3,1.2,0.3h0.1
		c0.2-0.1,0.5-0.1,0.8-0.1s0.5,0.1,0.8,0.1c0.1,0,0.1-0.1,0.2-0.1c0-0.2,0-0.3,0-0.5l0.1-0.1l0.8,0.4v0.7l0.6,0.5l0.1-0.1L73,51.5
		c0.3-0.5,0.8-0.9,1.3-1.1H74h-0.2v-0.5c0.4-0.1,0.4-0.1,0.5-0.4h-0.2l-0.2,0.1L73.5,49L73,49.4c0-0.1-0.1-0.1-0.1-0.2
		s0.1-0.1,0-0.2c-0.5-0.3-0.1-0.7-0.2-1.1c0-0.1,0-0.1,0.1-0.2s0.3-0.2,0.3-0.2c-0.1-0.2,0.1-0.3,0.1-0.4c0.1-0.1,0.1-0.3,0.1-0.4
		c0-0.3-0.1-0.5-0.2-0.8S73,45.2,73.2,45c0.3-0.1,0.5-0.2,0.8-0.2c0.1,0,0.2,0,0.3,0c0.5,0.1,1,0.2,1.5,0.3
		c-0.2,0.8-0.3,0.9-1.1,1.1l-0.8,0.1c0,0,0,0-0.1,0.1c0.3,0.3-0.1,0.5-0.1,0.8c0.4,0.6,1.3,0.8,1.9,1.4L75,48.7l0.2,0.2l-0.4,0.4
		c0.2,0.1,0.3,0.2,0.5,0.3c0.3,0.1,0.5,0.3,0.5,0.6c0.1,0.2,0.1,0.5,0.2,0.7c0.2-0.2,0.4-0.4,0.4-0.7c0-0.3,0.2-0.5,0.4-0.5
		c0,0,0,0,0.1,0c0.3,0.4,0.3,0.4,0.2,0.8C77,50.7,77,50.8,76.9,51c0,0.1,0,0.2,0,0.3c0.2,0.2,0.3,0.4,0.5,0.6c0.1,0.1,0.5,0,0.6-0.3
		c0.2-0.4,0.3-0.8,0.5-1.1c0.1-0.3,0.2-0.6,0.2-1l-0.1-0.4c0.4,0,0.8,0.1,1.2,0.1c0.2,0,0.3,0.3,0.4,0.5h0.4v0.1
		c-0.1,0.2-0.1,0.5-0.2,0.7c-0.2,0.4-0.2,0.6,0.1,0.8c0.2,0.1,0.3,0.2,0.3,0.4s-0.2,0.3-0.4,0.4c-0.3,0.1-0.6,0.4-1.1,0.6l-0.5-0.3
		l0.3,0.4c-0.2,0.2-0.4,0.2-0.6,0c-0.2-0.1-0.4-0.2-0.5-0.2c0.2,0.4,0,0.8-0.4,1l0,0c-0.2-0.6-0.8-0.3-1.2-0.5v0.3l1.2,0.2
		c-0.1,0.1-0.1,0.3-0.2,0.4c-0.1,0.3-0.3,0.6-0.6,0.5c-0.3-0.1-0.6,0-0.8,0.1c0.1,0.3,0,0.5-0.3,0.6c0.2,0.4,0.1,0.6-0.3,0.7
		s-0.5,0.4-0.8,0.6c-0.1,0.1-0.2,0.3-0.3,0.4c-0.4,0.4-0.6,0.8-0.8,1.3c-0.1,0.3,0,0.7,0.1,1h0.7l0.6,1.4c0.1,0,0.2-0.1,0.3-0.1
		c0.2,0,0.3,0,0.5,0.1c0.3,0.1,0.6,0.3,0.9,0.4c0.2,0.1,0.4,0.3,0.6,0.5s0.4,0.4,0.7,0.5c0.5,0.3,1,0.4,1.5,0.4
		c0.2,0,0.4,0.1,0.6,0.2c0,0.3,0.1,0.7,0,1c0,0.7,0.2,1.3,0.7,1.7c0.2,0.2,0.5,0.3,0.7,0.1c0.1-0.1,0.1-0.1,0.2-0.2
		c0.1-0.2,0.1-0.4,0.1-0.6s0-0.3,0-0.5s0-0.5-0.2-0.6c-0.2-0.2-0.2-0.4,0-0.6c0,0,0,0,0.1-0.1c0.5-0.3,1-0.8,1.3-1.3
		c-0.2-0.2-0.1-0.4-0.1-0.6s-0.1-0.4-0.2-0.6s-0.2-0.4-0.4-0.6c-0.2-0.2-0.4-0.3-0.6-0.5l0.8-0.9c-0.1-0.3-0.2-0.6-0.3-0.9
		c0-0.1,0-0.2,0.1-0.3c0.2-0.3,0.3-0.5,0-0.7c0.2-0.2,0.4-0.3,0.6-0.2c0.3,0.1,0.6,0.1,0.8,0.1c0.2,0,0.4,0,0.5-0.1
		c0.3-0.1,0.5-0.2,0.8,0.1s0.4,0.5,0.6,0.7l0.6,0.1c-0.1,0.4,0.3,0.2,0.5,0.3c-0.2,0.4-0.3,0.8-0.2,1.3c0,0.1,0.1,0.2,0.2,0.3
		c0.4,0.2,0.8,0.4,1.1,0.7c0.7-0.4,0.8-1.2,1.3-1.9c0.1,0.3,0.1,0.6,0.3,0.9c0.2,0.3,0.4,0.5,0.6,0.7l-0.2,0.3
		c0.1,0.1,0.3,0.1,0.4,0.3c0.3,0.4,0.2,0.9,0.8,1.1l-0.5,0.3c0.1,0.3,0.3,0.5,0.6,0.7c0.4,0.2,0.6,0.7,1.1,0.7
		c0.1,0.2,0.2,0.4,0.5,0.2c0.1-0.1,0.2,0.3,0.2,0.5l0.9,0.6c0,0.1,0,0.2,0,0.2c0,0.5-0.2,0.8-0.7,0.9c-0.4,0-0.8,0.3-0.9,0.7
		c-0.3,0.4-0.9,0.7-1.4,0.5c-0.3,0-0.6,0-0.9,0c-0.4,0-0.8,0-1.2,0c-0.2,0-0.5,0.1-0.6,0.2c-0.3,0.6-1,0.9-1.4,1.5
		c0,0.2,0.2,0.2,0.3,0.1c0.4-0.3,0.8-0.6,1.2-0.9c0.3-0.2,0.6-0.3,1-0.2c0.4,0.1,0.5,0.3,0.3,0.6c-0.1,0.2-0.2,0.3-0.4,0.5
		c-0.1,0.1-0.2,0-0.4,0l0.1,0.3l0.6-0.2l-0.1,0.6l0.2,0.4c-0.2,0.2-0.1,0.3,0.1,0.4c0.1,0,0.2,0.1,0.4,0.1v0.3
		c0.1,0.1,0.3,0.2,0.5,0.2l0.4-0.3c0,0.2,0.1,0.4,0.1,0.5c-0.2,0.2-0.4,0.4-0.6,0.5c-0.3,0.2-0.7,0.1-0.8,0.6
		c-0.1,0.2-0.5,0.3-0.7,0.2c-0.4-0.2-0.5-0.4-0.1-0.7c0.1-0.1,0.2-0.2,0.3-0.3c0.1-0.1,0.3-0.1,0.5-0.1h0.2c0.1,0,0.1-0.1,0.2-0.2
		h-0.3c-0.1,0-0.2,0-0.3,0.1l0.1-0.6c-0.4,0.5-0.6,1-1.3,0.8C88,71,88,71.2,87.9,71.3s-0.3,0.2-0.4,0.2s-0.3,0.1-0.4,0.2
		s-0.3,0.1-0.6,0.2l-0.4,1l0.2,0.3l-0.1,0.1c-0.5,0.1-1,0.2-1.4,0.5c0,0,0,0.1,0,0.2c-0.2,0.1-0.3,0.2-0.2,0.4
		c0.1,0.4-0.2,0.6-0.4,0.8c-0.1,0.1-0.3,0-0.5,0.1c0.1,0.3,0.1,0.7-0.1,1.1l-0.5-0.2c-0.1-0.4,0-0.8,0.3-1.1c-0.3,0-0.4,0-0.5,0.3
		c-0.1,0.4-0.3,0.8,0.1,1.2c0.2,0.2-0.2,0.2-0.1,0.4s0.3,0.2,0.3,0.4s-0.1,0.3-0.1,0.4l0.3,0.3l-0.5,0.1c-0.2,0.6-0.6,1-1.1,1.3
		c-0.7,0.4-1.2,1.1-1.4,1.9c0,0.3,0.1,0.7,0.2,1c0.1,0.4,0.2,0.9,0.4,1.3c0.2,0.5,0.1,1-0.2,1.5c-0.2-0.2-0.3-0.4-0.5-0.6
		c-0.1-0.2-0.2-0.4-0.3-0.6c0-0.2-0.1-0.4-0.1-0.6h-0.2c0-0.3,0-0.5,0-0.8c-0.1-0.2-0.3-0.4-0.4-0.6h-0.1c-0.4,0.4-0.8,0-1.1-0.2
		c-0.2-0.2-0.5-0.2-0.7-0.1c-0.1,0-0.3,0-0.4,0c-0.3-0.1-0.6-0.1-0.8,0.2c0.3,0.1,0.3,0.4,0.4,0.7l-0.7-0.4
		c-0.3,0.5-0.3,0.5-0.8,0.1c-0.3-0.3-0.8-0.3-1.2-0.2c-0.3,0.1-0.6,0.1-0.8,0.5c-0.1,0.2-0.5,0.3-0.7,0.5c-0.4,0.2-0.6,0.8-0.4,1.2
		l0,0c0.2,0.3,0.2,0.7-0.1,1c-0.2,0.3-0.1,0.7-0.1,1s0.1,0.6,0,1c0,0.5,0.2,0.9,0.4,1.3c0.2,0.3,0.4,0.6,0.6,1
		c0.1,0,0.3,0.1,0.4,0.2c0.2,0.3,0.6,0.4,0.9,0.1c0,0,0.1,0,0.1-0.1c0.2-0.2,0.6-0.3,0.8-0.1c0.4-0.4,0.6-0.8,0.6-1.3
		c0-0.3,0.2-0.5,0.5-0.5c0.2-0.1,0.3-0.2,0.5-0.3c0.2-0.1,0.5-0.1,0.6,0c0.2,0.2,0.1,0.4,0,0.6s-0.1,0.4-0.2,0.6
		c-0.1,0.3,0,0.8-0.4,1v0.1c0.1,0.6-0.1,1.1-0.3,1.6c0.4,0,0.9,0,1.3-0.1c0.7-0.2,1.1,0.2,1.6,0.6c0.1,0.2,0.1,0.4,0,0.5
		c-0.2,0.6-0.3,1.2-0.2,1.8c0.1,0.3,0.2,0.6,0.4,0.9c0.1,0.2,0.3,0.4,0.5,0.6c0.4,0.2,0.9,0.1,1.2-0.2c0.2-0.1,0.5-0.1,0.7,0.1
		c0.3,0.3,0.6,0.6,0.9,1c0.1-0.3,0.2-0.5,0.4-0.8c0.2-0.2,0.3-0.5,0.3-0.8c0-0.1,0.2-0.2,0.3-0.3c0.3-0.2,0.6-0.3,0.9-0.5
		c0.2-0.1,0.3-0.2,0.4-0.4c0.2-0.2,0.3-0.2,0.5,0l-0.4,0.4l0.2,0.5c-0.4,0.3-0.3,0.6,0,0.9c0.4-0.2,0.4-0.3,0.2-0.7
		c-0.1-0.2-0.1-0.4,0-0.6c0,0,0.1-0.1,0.2-0.1l0.4-0.1l-0.2-0.3v-0.1l0.9,0.4c0.1,0,0.1,0.1,0.1,0.1c0,0.1,0.1,0.2,0.1,0.3h0.6
		c0.1,0,0.3,0,0.4,0.1c0.3,0.3,0.6,0.2,1,0.1s0.6-0.2,1.1-0.3c-0.1,0.3-0.4,0.5,0,0.6c0.2,0.1,0.4,0.1,0.6,0.2l-0.1,0.6
		c0.4-0.1,0.9,0.1,1.1,0.4c0.3,0.3,0.3,0.3,0.1,0.7c0,0.1,0,0.1,0,0.2l0.3-0.3c0.2,0.1,0.3,0.1,0.5,0.2c0.3,0.3,0.7,0.4,1,0.2
		c0.6,0,1.2,0.2,1.6,0.6c0.3,0.3,0.6,0.7,0.7,1.1c0,0.2,0.1,0.5,0.2,0.7s0.2,0.4,0.3,0.5c0,0.1-0.4,0.3,0.1,0.5l-0.2,0.6
		c-0.2,0.2-0.5-0.3-0.6,0.1c-0.1,0.3-0.5,0.5-0.2,0.9l1.1-1.1c0.2,0.1,0.4,0.2,0.5,0.3s0.1,0.3,0.2,0.5c0.2-0.3,0.6-0.3,0.9-0.1
		c0.1,0,0.1,0.1,0.1,0.1s0.1,0.1,0.2,0.1c0.6,0.1,1,0.7,0.9,1.2c0.1-0.1,0.2-0.1,0.3-0.2c0.1-0.2,0.3-0.2,0.5-0.1l0,0
		c0.4,0.2,0.8,0.3,1.3,0.3c0.3,0.1,0.5,0.2,0.7,0.3c0.3,0.2,0.5,0.5,0.8,0.7c0.1,0.1,0.2,0.1,0.3,0.2c0.7,0,0.9,0.6,1.1,1.1
		c0.2,0.7,0.1,1.4-0.3,2c-0.1,0.1-0.2,0.3-0.4,0.4c-0.4,0.2-0.6,0.6-0.8,1c-0.1,0.3-0.1,0.7-0.6,0.6c-0.1,0.3-0.3,0.6-0.3,0.9
		c0,0.3,0,0.6,0.1,1c0,0.3,0,0.6-0.1,0.9l-0.1,0.6v0.1c-0.2,0.4-0.3,0.9-0.5,1.3s-0.4,0.7-0.6,1c-0.1,0.2-0.1,0.3-0.1,0.5
		c0,0.3-0.2,0.5-0.4,0.7s-0.4,0.1-0.6,0.1c-0.3,0-0.7,0-0.9,0.5c-0.1,0-0.1,0-0.2,0c-0.6,0.3-1.2,0.6-1.7,1
		c-0.2,0.1-0.3,0.4-0.3,0.6c0,0.4,0.1,0.8,0.1,1.1s-0.1,0.6-0.3,0.8c-0.2,0.4-0.5,0.7-0.6,1.1l-0.3-0.2c-0.1,0.2-0.3,0.4-0.4,0.6
		c-0.2,0.3-0.5,0.6-0.4,1c0,0.1-0.1,0.3-0.2,0.4c-0.1,0.1-0.2,0.4-0.4,0.6c-0.2,0.3-0.5,0.5-0.9,0.5c-0.6,0-1.2-0.2-1.6-0.7
		c-0.1,0.3,0,0.5,0.2,0.7s0.5,0.4,0.3,0.7c0,0.1,0.1,0.2,0.2,0.2c0.4,0.2,0.3,0.4,0.1,0.6c0,0,0,0,0,0.1c-0.3,0.9-1,1.1-1.8,1.2
		l-1.1,0.2c0.3,0.3,0.1,0.6,0.1,1c0,0.3-0.1,0.6-0.4,0.7c-0.3,0.1-0.6,0-0.7-0.2c0-0.1-0.1-0.1-0.2-0.1c-0.3,0.4-0.1,0.7,0.1,1
		c0,0.1,0.4,0.1,0.6,0.1c0.1,0.2,0.1,0.4-0.3,0.4c-0.2,0-0.4,0.2-0.5,0.4c-0.1,0.4-0.2,0.8-0.3,1.3c-0.5,0-0.7,0.4-1,0.7
		c-0.2,0.2-0.1,0.4,0.1,0.6c0.2,0.2,0.5,0.3,0.7,0.5l0.1,0.6c-0.3,0.3-0.6,0.6-0.8,0.9c-0.1,0.1-0.1,0.3-0.1,0.4
		c0,0.4-0.2,0.5-0.6,0.2c0.1,0.2,0.2,0.4,0,0.6c-0.2,0.2-0.2,0.6,0,0.9c0.1,0.1,0.1,0.2,0.2,0.3l-0.6,0.2c0.1,0.1,0.2,0.2,0.2,0.2
		c0.3,0,0.3,0.2,0.4,0.4c0.2,0.5,0.5,0.9,1,1c0.2,0.1,0.4,0.1,0.6,0.2c-0.5,0.2-1,0-1.2,0.6c-0.2-0.4-0.5,0-0.7,0s-0.3,0.1-0.5,0.1
		s-0.1-0.2-0.2-0.4c-0.1-0.1-0.1-0.1-0.2-0.2c-0.2-0.1-0.5-0.1-0.7-0.2l0.1-0.3c-0.1-0.1-0.2-0.1-0.2-0.1c-0.5-0.1-0.6-0.2-0.6-0.7
		c0,0-0.1,0-0.2-0.1l0.1-0.7l0.6-0.4l-0.7,0.2c0,0.2-0.1,0.4-0.1,0.6c0,0.1,0.1,0.2,0.1,0.3c-0.1,0-0.2,0.1-0.2,0
		c-0.1-0.1-0.3-0.3-0.4-0.5c-0.3-0.5-0.3-0.5,0.3-0.6c0.1,0,0.2-0.1,0.3-0.1c-0.3-0.3,0.1-0.9-0.5-1.1c-0.1,0.1-0.1,0.2-0.2,0.3h0.5
		c-0.1-0.5-0.1-1-0.1-1.5c0-0.2,0.2-0.4,0.4-0.6l0.3,0.7h0.1c0-0.2,0-0.5,0-0.7c0.1-0.2,0.2-0.4,0.1-0.7l-0.6-0.1l0.1-0.6
		c0.1,0,0.1,0,0.2,0c0.2,0.1,0.4,0.1,0.7,0.2v-0.8c0-0.2,0-0.4,0.1-0.6c0.2-0.7,0.3-1.4,0.4-2.1c0,0-0.1,0-0.1-0.1
		c-0.2,0.2-0.3,0.5-0.2,0.8c0,0.2,0,0.3-0.1,0.5c0,0-0.2,0.1-0.4,0.1c0.3-0.4-0.1-0.9,0.3-1.2c0,0,0-0.1,0-0.2
		c-0.1-0.4,0-0.8,0.2-1.2c0.1-0.2,0.1-0.4,0.1-0.5c0-0.3-0.1-0.6-0.1-1c0-0.3,0.1-0.5,0.2-0.7c0.2-0.3,0.3-0.7,0.3-1.1
		c0-0.3,0.1-0.6,0.3-0.9c0.3-0.6,0.4-1.3,0.2-2c0-0.1,0.1-0.3,0.1-0.4c0.1-0.2,0.1-0.5,0-0.7c0-0.1,0-0.3,0-0.4
		c0.1-0.6,0.3-1.2,0.3-1.8s0-1.3,0.1-2c0-0.4,0.1-0.7,0.2-1.1c0.1-0.7,0.2-1.4,0-2c-0.1-0.5-0.4-0.9-0.8-1.1c-0.6-0.3-1.1-0.6-1.6-1
		c-0.4-0.3-0.6-0.7-0.6-1.2c0-0.2-0.1-0.3-0.1-0.5c-0.3-0.7-0.6-1.3-0.8-2.1c0-0.2-0.1-0.4-0.3-0.6c-0.5-0.6-1-1.2-1.5-1.8
		c0-0.2,0-0.3-0.1-0.5c-0.1-0.3-0.1-0.7,0.2-0.9c0.1-0.1,0.2-0.2,0.4-0.4c-0.2-0.2-0.4-0.4-0.4-0.7s-0.1-0.5,0.1-0.8
		c0.1-0.2,0.2-0.4,0.2-0.6l0.2-0.7c0.3-0.2,0.5-0.5,0.5-0.8c0-0.1,0.1-0.2,0.2-0.3s0.4-0.3,0.5-0.5l-0.1-0.1c0-0.2,0-0.3,0-0.5
		c0.1-0.6,0.1-1.1,0.2-1.6c-0.6-0.4-0.6-0.4-0.5-0.8l-0.6-0.6l-0.5,0.4c0.1,0.2,0.3,0.4-0.1,0.5c-0.4-0.2-0.6-0.7-1.2-0.6
		c-0.1-0.2-0.5-0.1-0.4-0.4c0-0.1-0.1-0.2-0.2-0.3s-0.3-0.2-0.4-0.4l-0.2,0.2c-0.1-0.2-0.4-0.3-0.2-0.6c0.1-0.1,0-0.4-0.1-0.5
		c-0.2-0.3-0.4-0.6-0.6-0.9c-0.1-0.1-0.1-0.2-0.1-0.4c-0.5,0-1,0-1.4-0.2c-0.6-0.3-1-0.7-1.4-1.2c-0.4-0.4-1-0.6-1.6-0.3
		c-0.5,0.1-0.9,0-1.3-0.2c-0.1-0.1-0.3-0.1-0.4-0.2c-0.4-0.1-0.8-0.3-1.1-0.5c-0.2-0.1-0.5-0.2-0.8-0.4c-0.1-0.1-0.2-0.1-0.3-0.2
		c-0.2-0.2-0.5-0.4-0.7-0.6c-0.4-0.3-0.6-0.8-0.4-1.3c0.1-0.4,0-0.8-0.2-1.1c-0.4-0.8-1-1.6-1.7-2.3c-0.2-0.2-0.2-0.2,0-0.5
		c-1-1-1.8-2.2-2.3-3.5c-0.1,0-0.3,0-0.4,0s-0.3-0.1-0.4-0.1c0,0.2,0,0.3,0.1,0.5c0.3,0.5,0.6,1.1,0.9,1.6c0.4,0.8,0.8,1.7,1.1,2.6
		c0.1,0.3,0.3,0.6,0.5,0.8c0.1,0.1,0.2,0.3,0.1,0.5l-0.1,0.1c-0.1-0.2-0.2-0.4-0.4-0.6c-0.4-0.3-0.7-0.8-0.8-1.4
		c0-0.3-0.2-0.4-0.4-0.6l-0.9-0.6c0.1-0.2,0.5-0.2,0.4-0.5s0-0.8-0.4-1c-0.8-0.4-0.9-1.2-1.1-1.9c-0.1-0.3-0.3-0.5-0.5-0.7
		c-0.4-0.2-0.8-0.4-1.2-0.6c-0.2-0.4-0.5-0.8-0.7-1.3c-0.1-0.2-0.1-0.4-0.1-0.5l-0.3-0.2l0.2-0.5l-0.3,0.1c0,0-0.1,0-0.1-0.1
		c-0.1-0.2-0.2-0.5-0.3-0.7c-0.1-0.3-0.3-0.6-0.3-0.8c0-0.3,0.1-0.6,0.1-0.8c0-0.2-0.1-0.4-0.1-0.6c0-0.3-0.1-0.6,0-0.8
		c0.1-0.8,0.2-1.7,0.2-2.6c0-0.3-0.2-0.6-0.3-0.8l-0.2-0.5l1,0.1v-0.9c-0.3,0-0.6-0.1-0.8-0.2c-0.2-0.2-0.5-0.4-0.6-0.6
		c-0.1-0.1-0.5,0-0.5-0.4l-0.6-0.1l-0.2-0.5c0.6-0.5,0.5-1.1-0.1-1.4c-0.4-0.2-0.1-0.4-0.2-0.7l-0.3,0.2c-0.1-0.1-0.2-0.2-0.2-0.4
		c0-0.4-0.2-0.8-0.4-1.2c-0.1-0.1,0-0.2,0-0.3h-1v0.6l-1.1-1.3c0.2-0.1,0.2-0.1,0.5,0.1l0.1-0.3L53.4,60c-0.1-0.2-0.1-0.4-0.3-0.4
		c0-0.1,0-0.2-0.1-0.2c-0.1-0.1-0.2-0.2-0.4-0.2l-0.5,0.4l0.6,0.3v-0.3l0.3,0.1c0,0.1,0,0.3,0.1,0.4c0.1,0.3,0.1,0.4-0.4,0.4v-0.3
		h-0.1l0.1,0.2l0.1,0.3c0.2,0.1,0.4-0.4,0.6-0.1s-0.1,0.5-0.3,0.7C53,61.2,53,61,52.9,61c-0.3-0.1-0.4-0.3-0.6-0.6S52,60,51.9,59.9
		c-0.2-0.4-0.5-0.7-0.9-0.9c-0.2-0.1-0.3-0.3-0.2-0.6c-0.2,0-0.3,0-0.5,0c-0.2-0.1-0.3-0.2-0.4-0.3c-0.2-0.1-0.6-0.2-0.9-0.2
		s-0.5-0.2-0.8-0.1c-0.2,0-0.3,0-0.5-0.1c-0.4-0.2-0.8-0.3-1.1-0.6s-0.7-0.3-1.2-0.2c0.1,0.1,0.2,0.2,0.2,0.3
		c0.2,0.2,0.1,0.6-0.2,0.5c-0.5-0.1-0.8,0.3-1.1,0.5c-0.2,0.2-0.4,0.2-0.7,0.3c-0.1-0.2,0.3-0.2,0.1-0.5s0.1-1,0.4-1.1
		c0.2,0,0.3-0.1,0.5-0.1c0-0.3-0.3-0.2-0.5-0.4c-0.3,0.3-0.6,0.6-1,1s-0.8,0.4-0.9,1l0.3,0.2c-0.2,0.4-0.5,0.7-0.9,0.9
		c-0.6,0.5-1.2,1.2-1.9,1.7c-0.4,0.2-0.8,0.4-1.2,0.5c0,0-0.1-0.1-0.2-0.2c-0.2,0.3-0.3,0.6-0.7,0.6c0.4-0.4,0.5-1.1,1.3-0.8
		c0-0.3,0.3-0.5,0.5-0.6c0.4-0.1,0.6-0.4,0.8-0.8c0.2-0.4,0.4-0.8,0.5-1.2l-1,0.2c-0.2-0.1-0.5-0.4-0.7-0.4s-0.5,0.2-0.7,0.4
		c-0.2-0.4-0.1-0.9-0.4-1.2c-0.2,0.1-0.4,0.2-0.5,0.2s-0.3-0.2-0.4-0.3s-0.3-0.3-0.4-0.6l0.6,0.1V57c-0.4-0.1-0.9-0.1-1.1-0.6
		c0.2-0.2,0.4-0.5,0.6-0.7c0-0.1,0.3-0.1,0.1-0.4s0.3-0.5,0.5-0.3s0.5,0.3,0.7,0.1c0,0,0,0,0.1-0.1s0.2-0.1,0.3-0.1
		c0.5-0.1,0.5-0.1,0.4-0.6c0-0.1,0-0.2,0-0.3c0-0.1,0-0.1,0.1-0.2c0,0-0.1,0-0.1-0.1c-0.4-0.2-0.6,0.3-1.1,0.1
		c-0.3-0.1-0.7,0.1-1,0.1c-0.3,0.1-0.6-0.1-0.8-0.4c-0.1-0.1-0.1-0.3-0.1-0.5l-0.5-0.1c0.1-0.3,0.4-0.5,0.7-0.5
		c0.1,0,0.3-0.1,0.4-0.2c0.2-0.2,0.5-0.3,0.8-0.4l0.1,0.1c0.2,0.2,0,0.5,0.3,0.6c0.3,0,0.6,0.1,0.9,0c0.1,0,0.2,0,0.3-0.1l-0.3-0.1
		l0.6-0.1v-0.1c-0.2,0-0.4-0.1-0.5-0.2c-0.3-0.3-0.4-0.3-0.7-0.3c-0.1,0-0.1,0-0.2,0c-0.2-0.6-0.9-0.6-1.3-1.1l0.1-0.5l1.5-0.2
		c0.1-0.5,0.3-0.9,0.6-1.3c0.1-0.1,0.2-0.2,0.4-0.3c0.3-0.1,0.6-0.3,1-0.3s0.9-0.2,1.2-0.4c0.1-0.1,0.3-0.1,0.4,0
		c0.2,0.1,0.3,0.3,0.4,0.3s0.4-0.1,0.5,0.1c0,0,0.1,0,0.2,0c0.5-0.2,0.9,0.2,1.4,0.2c0.1,0,0.3,0.1,0.4,0.1c0.8-0.3,1.5,0.2,2.3,0.1
		c0.2,0,0.4,0.1,0.6,0.1c0.4,0.2,0.9,0,1.3,0c0.1,0,0.2,0,0.3,0.1c0.4,0.2,0.8,0.3,1.2,0.3c0.1,0,0.2,0,0.3,0c0.5,0.3,1,0.6,1.5,0.8
		l0.4,0.2c-0.1-0.3-0.3-0.2-0.4-0.2c0.1-0.1,0.2-0.3,0.3-0.3c0.3,0,0.6-0.2,0.6-0.5c0.1,0.1,0.2,0.1,0.3,0.2c0.1,0,0.3,0,0.4,0
		c0.2-0.3,0.6-0.5,1-0.4l0.2-0.4l0.6,0.1v0.3L54.9,48.9c-0.2,0.1-0.3,0.2-0.4,0.2c-0.7,0-0.8,0.5-1.1,1h0.2c0,0,0.1,0,0.1-0.1
		c0.1-0.4,0.5-0.6,0.9-0.6C54.9,49.4,55,49.2,54.9,48.9L54.9,48.9z M79,69.2c-0.1-0.2-0.2-0.4-0.2-0.6s-0.1-0.5-0.2-0.5
		c-0.5-0.1-0.6-0.4-0.7-0.7c-0.3-0.2-0.7-0.1-1,0.1c-0.5,0.4-1,0.7-1.5,1.1c-0.1,0.1-0.1,0.2-0.2,0.3h0.1h0.2c0.5,0.3,0.8,0,1.2-0.3
		c0.1-0.1,0.3-0.2,0.4-0.2l0.1,0.1l-0.3,0.3c0.2,0.1,0.4,0.1,0.4,0.2c0.2,0.3,0.4,0.3,0.7,0.2s0.4-0.1,0.6-0.2
		C78.7,69.3,78.8,69.4,79,69.2l0.1,0.4c-0.1,0-0.2,0-0.3,0c-0.4-0.2-0.7,0.1-1,0.2c-0.2,0.1-0.2,0.4-0.4,0.5c0.4,0.2,0.1,0.5,0,0.7
		c-0.2,0.5-0.2,1.1,0,1.6c0.1,0.2,0.3,0.2,0.4,0.1c0.1-0.3,0.4-0.6,0.2-1.1c0-0.2,0-0.4,0-0.6c0.1-0.6,0.5-0.8,0.8-1.2
		c0.6,0.2,0.8,0.6,0.5,1.5l0.4-0.1l0.2,0.6c0.3,0,0.3-0.2,0.3-0.4c0-0.3,0.1-0.6,0.4-0.8l0.5,0.2l0.2-0.3c-0.1-0.2-0.1-0.3-0.1-0.4
		s-0.4-0.4-0.6-0.5C80.1,69.6,79.6,69.4,79,69.2L79,69.2z M58.4,52.2c0.4,0.2,1-0.1,1.3,0.5l-0.6-0.1c0.3,0.4-0.3,0.6-0.2,1l0.6,0.2
		c0.4-0.6,0.4-0.7,0.9-0.5l-0.3,0.3v0.1l0.6-0.2l-0.1-0.4l0.8,0.1l0.2-0.7l-1.3-0.3l0.5-0.3C60,51.8,59.2,52,58.4,52.2L58.4,52.2z
		 M63.8,56.5c0.2,0.1,0.6,0.1,0.7-0.2c0,0,0,0,0-0.1c0.1-0.1,0.3-0.3,0.4-0.4l0.8-0.7L65.6,55c-0.1,0-0.3-0.1-0.4,0
		c-0.2,0.1-0.5,0.3-0.6,0.5c-0.3,0.4-0.8,0.2-1.2,0.2c-0.1,0-0.2-0.1-0.2-0.2c0-0.4-0.3-0.4-0.7-0.6l0.5,1c-0.2,0.1-0.4,0.3-0.6,0.4
		s-0.5,0.2-0.7,0.2l0.8,0.5C63,57,63.6,57.2,63.8,56.5L63.8,56.5z M71.7,62.9c-0.2,0.1-0.3,0.2-0.4,0.3c-0.2,0.3-0.1,0.7,0.2,0.9
		c0,0,0,0,0.1,0c0.3,0.2,0.6,0.5,0.8,0.9c0.1,0.1,0.1,0.3,0.1,0.4c0,0.2,0,0.3,0.1,0.5c0.5-0.2,0.2-0.5,0.2-0.7
		C72.2,64.5,71.9,63.7,71.7,62.9L71.7,62.9z M79.5,72.7c0.4,0.5,0.4,0.5,0.9,0.1c0.1-0.1,0.3-0.1,0.5-0.2c0.3-0.2,0.7-0.2,0.8-0.8
		c-0.2,0-0.5,0.1-0.7,0.2C80.5,72.2,80,72.4,79.5,72.7L79.5,72.7z M82.5,71l0.3,0.3c-1-0.1-1-0.1-1.3,0.4c0.6,0.1,1.1,0,1.7-0.2
		l0.2-0.6L82.5,71z M56.5,65.8L56.5,65.8c0.2,0.1,0.4,0.1,0.6,0.2c0.2,0,0.4,0.1,0.4,0.2c0.3,0.6,1.1,0.6,1.4,1.2
		c0.1-0.1,0.1-0.2,0.1-0.3c-0.1-0.1-0.2-0.2-0.3-0.3c-0.1-0.1-0.1-0.3-0.3-0.2c0-0.1-0.1-0.2-0.2-0.3c-0.1-0.1-0.4-0.2-0.6-0.4
		C57.2,66.2,56.9,65.6,56.5,65.8L56.5,65.8z M66.7,58.3l-0.8-0.1L65,59.3c0.2,0.2,0.3,0.2,0.4,0c0.3-0.4,0.7-0.7,1.1-0.8
		C66.6,58.5,66.6,58.4,66.7,58.3L66.7,58.3z M69.6,60.9l0.3-1.1C69.3,59.9,69.2,60.3,69.6,60.9L69.6,60.9z M85.9,138.2
		c-0.1,0.2-0.1,0.2,0.1,1c0.3-0.1-0.1-0.3,0.1-0.5S85.8,138.4,85.9,138.2L85.9,138.2z M70.5,63.8l0.3,0.9c0.2-0.3,0.2-0.7-0.1-1l0,0
		L70.5,63.8z M60.2,55.1c0.4,0,0.8,0.3,1.1-0.1C61,55,60.6,54.6,60.2,55.1L60.2,55.1z M71.1,64.9l0.6,1.2
		C71.8,65.6,71.5,65.1,71.1,64.9L71.1,64.9z M77.2,66.7l-0.3-0.5C76.6,66.6,76.6,66.6,77.2,66.7L77.2,66.7z M91.6,64l0.7-0.4v-0.1
		l-0.8,0.3L91.6,64z M78.8,93.8l-0.5-0.5l-0.1,0.1C78.2,93.6,78.2,93.8,78.8,93.8L78.8,93.8z M84.7,65.7L84.7,65.7
		c0.3,0,0.5-0.2,0.5-0.4L84.7,65.7z M64.4,73.2c0.1-0.4,0-0.5-0.3-0.5c0,0,0,0-0.1,0.1L64.4,73.2z M85.1,139l0.3-0.2l-0.3-0.2V139z
		 M84.3,135.4l-0.1-0.1l-0.1,0.3l0,0L84.3,135.4z M86.9,64.2L86.9,64.2l-0.2,0.2l0.1,0.1L86.9,64.2z M86.2,111.2
		c0.1,0.1,0.2,0.1,0.3,0.1l0.1-0.1c0-0.1-0.1-0.1-0.1-0.2C86.4,111.1,86.3,111.2,86.2,111.2L86.2,111.2z"/>
	<path id="Tracé_111" class="st4" d="M110,47.5c0,0.3,0,0.3-0.3,0.5l0.3,0.3l-0.5,0.2c0,0.1,0.1,0.2,0.1,0.2c0.2,0,0.3,0,0.5,0
		s0.4-0.1,0.6,0c0.3,0.1,0.7,0.2,1,0.2c-0.1,0.1-0.2,0.2-0.4,0.4c-0.2,0.3-0.4,0.4-0.7,0.4c-0.4,0.1-0.8,0.2-1.1,0.5
		c-0.5,0.3-1,0.5-1.5,0.5c-0.2,0-0.5,0.1-0.7,0.2c-0.3,0.2-0.7,0.2-1.1,0c0,0.1,0.1,0.2,0.1,0.3c0,0.1,0,0.1,0,0.2l-0.6,0.5
		c-0.1,0.1-0.1,0.2-0.2,0.2c-0.4,0.1-0.7,0.4-0.9,0.7c-0.1,0.1-0.1,0.4-0.4,0.2c-0.1,0-0.2,0.2-0.4,0.3l-0.3-0.2
		c-0.3,0.1-0.6,0.1-0.9,0.1c-0.4,0-0.3,0.6-0.7,0.4c0.1,0.3,0.3,0.5,0.2,0.6c-0.2,0.3-0.1,0.7-0.3,0.9s-0.1,0.6-0.5,0.5
		c0.1,0.3-0.2,0.4-0.2,0.6c0,0.3-0.1,0.5-0.2,0.8c-0.1,0.3-0.2,0.6-0.2,0.9c0,0.4-0.1,0.4-0.4,0.3s-0.5-0.1-0.5-0.5
		c-0.5,0-0.6-0.1-0.7-0.5l-0.9,0.4l-0.8-1.4c-0.1,0-0.3,0.3-0.4-0.1c-0.3,0-0.2-0.4-0.5-0.4c-0.2,0-0.1-0.4-0.4-0.5
		c-0.1,0,0-0.3-0.1-0.5c0.3,0,0.5-0.2,0.5-0.5l-0.6,0.3c-0.1-0.6-0.4-1.1-0.9-1.4l0.2-0.6c-0.1-0.2-0.3-0.4-0.2-0.5s-0.1-0.3,0-0.4
		s0.3-0.3,0.4-0.5s0.2-0.3,0.4-0.4c0.2,0,0.4-0.1,0.6-0.1L96.3,50h0.4c0-0.2-0.2-0.3-0.2-0.5s0-0.4,0.1-0.6c-0.3,0-0.5,0-0.8,0
		c-0.2-0.1-0.4-0.2-0.6-0.4l-0.1,0.1l0.8,0.8c-0.6,0.6-1,0.6-1.5,0.4c0,0,0.1,0,0.2-0.1c0.1,0,0.1,0,0.1-0.1l-0.6-0.1l0.2-0.9
		l0.5-0.1l-0.5-0.3c0.4-0.3,0.4-0.3,2,0.3c0-0.2-0.1-0.3-0.1-0.5c0-0.1,0.1-0.3,0.2-0.4L94.7,47c-0.1,0.1-0.2,0.3-0.3,0.3
		c-0.2,0-0.4,0-0.6-0.1c0.1-0.3,0.2-0.5,0.2-0.8c0-0.2,0-0.3,0.2-0.3c0.1-0.1,0.2-0.2,0.1-0.4c-0.2-0.3-0.4-0.7-0.6-1
		c-0.1-0.1-0.2-0.1-0.4-0.2l0.2-0.4c-0.4-0.4-0.7-0.7-1.1-1L92.3,43c-0.6-0.3-1.3-0.6-1.9-0.8c-0.1,0-0.3,0.1-0.4,0.2l-0.2-0.2
		l-1.2,0.3c-0.2-0.2-0.4-0.4-0.8-0.1c0,0-0.2-0.1-0.4-0.1l-0.1,0.4c-0.4,0.1-0.8,0-1-0.2c-0.1-0.3-0.3-0.5-0.6-0.6
		c-0.1,0-0.1-0.2-0.2-0.3c0.2-0.1,0.5,0,0.7,0.1c0.7-0.4,1.6-0.6,2.4-0.5C88.5,41,88.2,40.9,88,41c-0.2,0-0.4,0.1-0.6,0.1
		S87,41,86.8,40.9c-0.2,0.3-0.5,0.3-0.8,0.2c-0.4-0.2-0.7-0.4-0.9-0.8c0.1-0.2,0.3-0.3,0.5-0.4c0.6-0.1,1.3-0.2,1.9-0.3
		c0.3,0,0.5-0.1,0.8,0c0.5,0,1-0.3,1-0.9c0-0.1,0-0.2,0-0.3h-1.7c0-0.5,0-0.5,0.4-0.6c0.5-0.2,1-0.4,1.5-0.5c0.3,0,0.6,0,0.9,0
		l0.2-0.7c0.4-0.2,0.5,0.1,0.6,0.2c0.1-0.1,0.1-0.3,0.2-0.3c0.1-0.1,0.3-0.1,0.4-0.2c0.3-0.1,0.6-0.1,1-0.2s0.6,0.2,0.8,0
		c0.1,0,0.2,0,0.2,0c0.4-0.2,0.6-0.2,0.7,0.3c0,0.2,0,0.3,0,0.5c0.3-0.2,0.6-0.3,0.9-0.2c-0.2-0.2-0.6-0.3-0.8-0.7l1.4,0.6l-0.4,0.2
		l0.6,0.3l0.1-1.4c0.5-0.1,1,0.2,1.2,0.6s0.6,0.7,1.1,0.8c0.2-0.1,0.4-0.4,0.7-0.2c-0.6-0.3-1.1-0.8-1.5-1.3c0.4,0,0.7-0.1,1.1-0.1
		c0.4,0,0.7-0.3,0.7-0.7l0,0l1-0.2c0.1,0.1,0.1,0.2,0.2,0.3c0.1,0.2,0.3,0.2,0.5,0.1c0.2-0.2,0.5-0.4,0.8-0.6
		c0.2-0.1,0.4-0.2,0.6-0.2c0.4-0.1,0.7-0.2,1.1-0.1c0.4,0.1,0.8,0,1.1,0c0.5,0.1,1-0.1,1.4,0.1c0.2,0,0.4,0,0.6,0
		c0.2,0,0.4-0.1,0.6-0.1c0.5,0,0.9,0.1,1.5,0.2l-0.5,0.4v0.1c0.2,0,0.3-0.1,0.5-0.1c0.6-0.2,0.6-0.2,0.9,0.3l2,0.5
		c-0.4,0.3-0.6,0.5-1.1,0.5c-0.2,0-0.4,0-0.6,0.1c-0.1,0-0.2,0-0.3,0c-1-0.2-2,0-3-0.1c-0.3,0-0.6,0.1-0.7,0.3l2.5-0.1l0.1,0.4h0.1
		c0.2,0,0.5,0,0.7-0.1c0.1,0,0.2,0,0.2,0c0.3-0.6,0.7-0.2,1.1-0.3c0,0.8-0.7,0.8-1.2,1c0.5,0.1,1,0.2,1.4-0.2
		c0.2-0.1,0.4-0.2,0.6-0.3c0.1,0,0.2,0,0.3,0c0.4,0.1,0.8,0,1.2-0.2c0.3-0.1,0.6-0.1,0.9-0.1c0.5,0,0.9,0.1,1.4,0.1
		c0.2,0,0.4,0,0.5,0.3c-0.5,0.2-0.9,0.4-1.4,0.6c-0.1,0-0.2,0.1-0.3,0.2c-0.2,0.5-0.7,0.7-1.2,0.6c-0.4-0.1-0.8-0.1-1.3-0.1l0.2,0.5
		c0.5-0.2,0.9-0.4,1.4-0.1c-0.2,0.4-0.4,0.6-0.8,0.6l-0.7,1.3c-0.3,0.1-0.6-0.3-0.8,0c0.4,0.4,0.9,0,1.2,0.5h0.2v0.3l0.8-0.1
		l0.3,0.8l-1.3-0.3l-0.4,0.6c0.1,0,0.2,0,0.2,0c0.4-0.1,0.4-0.1,0.5,0.2c0.2,0.2,0.2,0.5,0.1,0.8l-0.6-0.1l0.3,0.9
		c0.2,0,0.3-0.1,0.5-0.1c0.1,0,0.2,0.1,0.2,0.2c-0.1,0.1-0.2,0.1-0.2,0.2c-0.1,0-0.1,0-0.2,0c-0.2-0.2-0.4-0.1-0.6,0l0,0
		c-0.1,0.1-0.4,0-0.6,0c0.1,0.3,0.3,0.1,0.4,0.2c0.2,0.1,0.3,0.1,0.5,0.2c-0.4,0.5-1.1,0.7-1.7,0.4l1,0.6l0.1,0.9l-0.6-0.1
		c0.4,0.5,1,0.9,0.7,1.5c-0.6,0.1-1.2-0.2-1.5-0.8c-0.1-0.1-0.3-0.2-0.5-0.3l-1.4-0.3c0.1,0.1,0.1,0.3,0.2,0.3
		C109.1,47.4,109.5,47.4,110,47.5L110,47.5z M110.8,46.3l-0.5-0.2l-0.1,0.2l0.4,0.4h0.3L110.8,46.3z M108.4,35.1
		c-0.5-0.1-1.1-0.1-1.6,0.2L108.4,35.1z M113.5,37.9L113.5,37.9h1.1C114.2,37.6,113.8,37.6,113.5,37.9L113.5,37.9z M109.3,46
		l-0.1,0.1l0.4,0.3l0.1-0.1L109.3,46z M108.7,48.4L108.7,48.4l0.4,0.1l0,0L108.7,48.4z M110.2,45.6c0.2,0,0.4,0,0.4-0.3L110.2,45.6z
		"/>
	<path id="Tracé_112" class="st4" d="M182,118.7c-0.2-0.2,0.2-0.2,0.2-0.4c-0.1-0.4,0-0.8-0.4-1.1c0.5-0.4,0.1-0.9,0.3-1.4
		c0.2,0.2,0.3,0.1,0.5,0c0.3-0.3,0.5-0.7,1-0.8l0.4-0.1c0.2-0.1,0.4-0.1,0.5-0.2c0.3-0.3,0.6-0.4,1-0.5c0.5-0.2,0.9-0.6,1-1.2
		c0.1-0.3,0-0.7,0.4-0.8l0.3,0.4v-0.8h0.4c0.2-0.5,0.5-0.9,0.9-1.2c0.4-0.4,0.5-0.4,0.9,0.1c0.1,0.1,0.1,0.2,0.2,0.3l0.8,0.2
		l-0.2-0.5l0.4-0.5l0.1-0.1c-0.2-0.2,0-0.4,0.2-0.5s0.4-0.1,0.6-0.1c0.2,0,0.3,0,0.5,0.1c0.2-0.4-0.3-0.4-0.4-0.7
		c0.3,0.1,0.6,0.2,0.9,0.3c0.5,0.1,0.9,0.1,1.4,0.2c0.1,0,0.2,0.1,0.3,0.1c0,0,0,0.1-0.1,0.2c0,0.1-0.1,0.2-0.1,0.3
		c-0.1,0.1-0.2,0.2-0.3,0.2l-0.2,1c0.3,0.2,0.5,0.3,0.8,0.5c0.4,0.3,0.8,0.6,1.2,1c0.3,0.2,0.2,0.3,0.7,0.2c0.1-0.4,0.3-0.7,0.4-1.1
		c0-0.3,0-0.6,0-0.8c0-0.5,0.1-1.1,0.1-1.6c0-0.3,0.1-0.5,0.2-0.8c0.6,0.6,0.9,1.5,0.8,2.4l0.5-0.2c0.3,0.2,0.5,0.6,0.5,1
		c0,0.1,0,0.2,0.1,0.3c0.3,0.4,0.4,0.9,0.4,1.5c0,0.2,0.1,0.4,0.3,0.4c0.2,0.1,0.4,0.2,0.6,0.3c0.2,0.2,0.5,0.2,0.4,0.6
		c0,0.1,0,0.1,0.1,0.2c0.3,0.2,0.4,0.6,0.3,0.9l0.3,0.1c0.2,0.1,0.3,0.3,0.3,0.5s0.1,0.4,0.3,0.6c0.3,0.3,0.5,0.6,0.7,1
		c0.1,0.2,0.1,0.4,0.1,0.6c-0.1,0.4,0,0.9,0.2,1.3c0.1,0.1,0.1,0.3,0,0.4c-0.1,0.4-0.1,0.9-0.2,1.3c0,0.6-0.3,1.1-0.7,1.5
		c-0.2,0.2-0.3,0.4-0.3,0.6c-0.1,0.4-0.2,0.7-0.4,1.1s-0.3,0.7-0.4,1.1c0,0.1,0,0.2,0.1,0.3c0.1,0.3-0.1,0.5-0.4,0.5h-0.6l-0.8,1.1
		c-0.3-0.4-0.8-0.5-0.7-1.2l-0.8,1c-0.2-0.1-0.3-0.3-0.5-0.4s-0.2-0.2-0.3-0.2c-0.5,0-0.7-0.3-0.9-0.5c-0.1-0.1-0.2-0.3-0.2-0.4
		c-0.1-0.4-0.1-0.7-0.2-1.1h-0.4c-0.1-0.3,0-0.7-0.3-1c-0.2,0.2-0.1,0.6-0.5,0.6l0.4-1.3l-0.1-0.1l-1.1,0.9
		c-0.1-0.2-0.3-0.3-0.3-0.5s-0.1-0.5-0.4-0.6c0,0,0-0.1-0.1-0.2c-0.1-0.1-0.1-0.3-0.2-0.4c0-0.1-0.1-0.1-0.2-0.1
		c-0.5,0.2-0.8-0.5-1.3-0.3c-0.8,0.2-1.6,0.3-2.4,0.5c-0.4,0.2-0.8,0.4-1.1,0.7c-0.2,0.2-0.3,0.3-0.6,0.3s-0.5,0-0.8,0
		c-0.4,0.1-0.8-0.1-1,0.4c-0.4-0.1-0.6,0.5-1.2,0.4s-0.8-0.5-1.3-0.9l0.4-0.1c0.1-0.7,0.1-1.3-0.1-2c-0.1-0.2-0.1-0.5-0.1-0.8
		c0-0.2-0.1-0.4-0.2-0.5C182.4,119.7,182.2,119.2,182,118.7L182,118.7z"/>
	<path id="Tracé_113" class="st4" d="M83.1,39.7l1.3,0.1c-0.2,0.4-0.6,0.5-0.9,0.7c-0.3,0.4-0.7,0.2-1.1,0.3l-0.1,0.4l-0.7,0.1
		l0.8,0.6c-0.2,0.2-0.3,0.4-0.6,0.4c-0.1,0-0.3,0.1-0.4,0.2s-0.2,0.1-0.4,0.3l-0.1-0.6c-0.2,0-0.5,0.1-0.7,0.1s-0.6,0.2-0.9-0.1
		c-0.1,0-0.2,0-0.3,0.1c-0.2,0.3-0.4,0.3-0.6,0.2s-0.6-0.1-0.9-0.2c-0.1,0.1-0.3,0.2-0.4,0.2c-0.2-0.2-0.7,0.1-0.7-0.4
		c0.3-0.5,0.9-0.4,1.3-0.6L77.2,41c0.5-0.3,1.2-0.2,1.6,0.2c0.2,0.2,0.5,0.1,0.7,0.2c0.1-0.1,0.2-0.1,0.3-0.2
		c-0.3,0-0.5-0.1-0.8-0.2c-0.2-0.1-0.2-0.3-0.1-0.5l0.1-0.1c-0.3,0.1-0.6,0.2-0.8,0.2c-0.3,0-0.5,0.1-0.8,0.1
		c-0.1-0.4-0.1-0.5,0.3-0.6c0.1,0,0.2-0.1,0.3-0.1v-0.1c-0.4-0.2-0.6,0.1-0.9,0.2s-0.5,0.4-0.7,0.5c0,0-0.1,0.1-0.1,0
		c-0.4-0.2-0.8,0.2-1.2,0.1c-0.1-0.3-0.2-0.7-0.4-1c0.2,0.2,0.4,0.1,0.6-0.1l-0.6,0.1h-0.6v-0.1l0.2-0.2c-0.5-0.1-0.8-0.5-0.8-1
		c0.1-0.5,0.5-0.3,0.9-0.4c-0.4-0.4-1,0-1.4-0.5c0.3-0.2,0.6,0,0.8,0c0-0.3,0-0.3-0.7-0.5H74c0.3,0,0.6,0.1,0.8,0.2
		c0.3,0,0.5,0.2,0.6,0.5c0.2,0.5,0.3,0.5,0.8,0.5c0.4-0.1,0.9,0,1.3,0c0.3,0.1,0.4,0.1,0.4,0.5c0.3,0,0.4-0.3,0.4-0.6
		c0.5,0,0.9,0,1.3,0c0.3,0,0.5,0.2,0.6,0.5c0.2,0.4,0.2,0.4,0.7,0.4c-0.5-0.2-0.5-0.2-0.6-0.7l2-0.2l-0.4-0.2l0.9-0.2l-0.1-0.2
		c-1.1,0.1-2.1,0.3-3.2,0.4c-0.2,0-0.5-0.1-0.7,0.2c-0.2,0.1-0.4,0.1-0.5,0c-0.4-0.1-0.8-0.2-1.1-0.1H76v-0.2h-0.2v-0.1l0.5-0.3
		c-0.3,0-0.6,0-0.7-0.3c0.3-0.2,0.6-0.1,0.9,0c0.1-0.1,0.2-0.2,0.4-0.3c0.1-0.1,0.3-0.1,0.4-0.2c0.6,0.4,1.1,0.2,1.7,0.2
		c-0.4-0.2-0.9,0.2-1.4-0.4l0.8-0.1v-0.7c0.6,0.3,1.3,0.2,1.8,0.8l0.3-0.6c0.2,0.1,0.4,0.2,0.5,0.2c0.3-0.2,0.6,0.1,0.9-0.2
		c0-0.1,0.2,0,0.3-0.1c0.1,0,0.4,0,0.5-0.1c0.2-0.2,0.6-0.3,0.9-0.2c0.4,0,0.9-0.1,1.3,0.2c0.2-0.1,0.4-0.2,0.6-0.2
		c0.1,0,0.2,0,0.3-0.1c0.3-0.4,0.7-0.2,1-0.2c0.4,0,0.6,0,0.8,0c0.2,0,0.5,0,0.7,0l-0.2,0.4h0.2c0.2-0.3,0.6-0.4,1-0.3
		c0.7,0.2,1.4,0.4,2.2,0.7c-0.8,0.5-1.7,0.9-2.5,1.1l1-0.3c-0.3,0.4-0.7,0.7-1.2,0.6c-0.5,0-0.9,0.2-1.3,0.5
		c-0.2,0.2-0.6,0.1-0.8,0.3c-0.2,0.2-0.5,0.3-0.8,0.4c-0.1,0.1-0.3,0.1-0.3,0.2C85.4,39,85.2,39,84.9,39h-0.8C84,39,84,39,84,39.1
		c0.2,0.2,0.7,0,0.6,0.5c-0.1,0-0.2,0-0.3-0.1C83.8,39.3,83.4,39.5,83.1,39.7c-0.3,0-0.3,0-0.6,0.3L83.1,39.7z M80.1,39.8
		c-0.4-0.2-0.7,0-1-0.2l0.3-0.2c-0.4,0-0.4,0-1,0.4L80.1,39.8z M83.6,39.1c-0.1-0.3-0.3-0.1-0.4-0.1v0.1H83.6z M87.7,35.6L87.7,35.6
		l-0.5,0.1v0.1L87.7,35.6z"/>
	<path id="Tracé_114" class="st4" d="M87.3,48.2l-0.2,0.3l0.3,0.2l0.2-0.3c0.5,0.3,0.4,0.3-0.1,0.8l0.6,0.3c0,0,0,0.1,0.1,0.1
		l-0.4,0.1c0.1,0.3,0.1,0.3-0.2,0.6l1.2,0.8l0.5-0.2v0.3c0.4-0.1,0.4,0.2,0.5,0.5c0.2,0,0.5-0.1,0.6,0c0.3,0.2,0.4,0,0.6-0.1
		l0.3,0.4l-0.2,0.5l-0.3-0.2l-0.4,0.9l-0.2,0.1l0.1,0.5c-0.1,0-0.1,0.1-0.2,0.1c-0.3,0-0.5-0.2-0.7-0.4c-0.1-0.1-0.2-0.2-0.3-0.3
		c-0.4-0.2-0.7-0.5-0.9-0.8c-0.1,0.2-0.2,0.3-0.2,0.5c0,0.3-0.3,0.1-0.3,0.3c0.5,0.3,0.6,1,1.4,1.1c0.2,0,0.3,0.4,0.2,0.5
		c-0.2,0.3-0.1,0.5,0,0.8c-0.4-0.3-0.6-0.5-1-0.4c-0.4,0-0.8-0.1-1.2-0.2c0.5,0.7,1.3,0.8,1.8,1.3v0.4c-1-0.5-2-0.1-3.1-0.4l0.4-0.3
		c-0.5,0-0.5,0-0.9-0.6c-0.1-0.2-0.3-0.4-0.6-0.5c-0.1,0-0.1-0.1-0.2-0.1c-0.3,0.3-0.7,0.1-0.9,0.4c-0.2,0.2-0.4,0.3-0.6,0.2
		c-0.4-0.1-0.5-0.2-0.4-0.6c0-0.2,0.1-0.4,0.1-0.5l2.5-0.3l-0.6-0.9l0.4-0.5c0.1-0.1,0.3-0.3,0.2-0.5c0-0.1,0.1-0.2,0.2-0.4
		c0-0.2-0.1-0.3-0.2-0.5s-0.1-0.4-0.3-0.5c-0.3-0.1-0.2-0.3-0.1-0.6l-0.7,0.5c-0.3-0.3-0.3-0.3-0.1-0.7c-0.2-0.2-0.4-0.4-0.6-0.6
		s-0.3-0.2-0.5,0l-0.2-0.4c0,0-0.1-0.1-0.1,0c-0.4,0.1-0.8,0.1-1.2,0c-0.1,0-0.1,0-0.2,0h-0.3l0.3,0.7l-0.7-1l0.1,0.3l-2.2-0.3
		L78,48.2l-0.3,0.1c-0.2-0.1-0.4-0.3-0.6-0.4c0,0,0.1-0.2,0.1-0.3c-0.6,0.2-0.8-0.3-1.1-0.6c0.3-0.6,0.6-1.1,0.9-1.7
		c0.2-0.3,0.5-0.3,0.8-0.3c0.4,0,0.9,0,1.3,0c0.1,0,0.2,0.1,0.4,0.2c0.4-0.3,0.9-0.3,1.2,0c0.3-0.2,0.6-0.4,1-0.2
		c0.1,0,0.2,0,0.3-0.1c0.5-0.1,0.6-0.1,0.8,0.4c0,0.1,0.1,0.2,0.1,0.3l-0.6,0.2c0.4,0.2,0.8,0.3,1.2,0.4c0.1,0,0.3,0,0.4,0
		c0.3,0,0.5,0,0.6,0.3s0.3,0.5,0,0.7c0,0,0.1,0.2,0.1,0.3l0.3-0.3l0.2,0.3l0.5-0.4c0,0.3,0.4,0.2,0.4,0.5l0,0
		c0.3-0.2,0.5,0.2,0.7,0.2C86.9,48,87.1,48.1,87.3,48.2L87.3,48.2z M79,46.5L79,46.5c-0.1-0.1-0.1-0.1-0.2-0.1
		c-0.2-0.1-0.3-0.2-0.2-0.4c0-0.1,0.1-0.1,0.1-0.1l0.6-0.6c-0.5,0-0.9,0.1-1,0.5c-0.2,0.4-0.2,0.9,0.1,1.3c0.1,0.1,0.1,0.3,0.2,0.4
		h0.3L79,47l-0.4-0.4L79,46.5z M87.2,52.4c-0.2-0.5-0.8-0.4-1.1-0.8c-0.3,0.5,0,0.8,0.1,1.1L87.2,52.4z M80.7,47
		c0.4,0,0.1-0.3,0.2-0.4s0.3-0.3,0.5-0.1c0.2,0.1,0.3,0.2,0.4,0.3l0.2-0.3l0.5,0.1c-0.5-0.6-1.2-0.4-1.8-0.4V47z M85.8,53.6v0.7
		l0.6-0.1l-0.1-0.6H85.8z"/>
	<path id="Tracé_115" class="st4" d="M63.6,50.2c0-0.3-0.2-0.5-0.5-0.5H63c-0.3,0-0.6-0.1-0.8-0.4c-0.2-0.2-0.2-0.4-0.1-0.6
		c0.7,0.1,1.4-0.3,2.1-0.2c0.3,0.1,0.5-0.1,0.6-0.3l0,0c-0.2,0-0.3-0.1-0.5-0.1h-0.8c-0.5,0-1,0.1-1.6,0.1c-0.2,0-0.3-0.1-0.4-0.1
		V48l1.1-0.4v-0.1l-1.2,0.1l0.1-0.3h-0.7c0.1-0.1,0.1-0.3,0.2-0.4c0.2-0.2,0.4-0.4,0.5-0.7c0.1-0.2,0.5-0.4,0.7-0.4
		c0.3,0,0.7-0.2,0.9-0.4c0.1-0.1,0.3-0.2,0.4-0.1s0.1,0.3,0.1,0.4c0,0.6,0.1,0.7,0.7,0.9l0.1-1c0.4,0,0.7,0.3,0.9,0.6l0.5-0.5
		c0.3,0,0.6,0.2,0.6,0.5s0,0.6-0.1,0.8l0.1,0.1l0.4-0.6h0.6c0.3,0,0.5,0.2,0.6,0.4c0.2,0.4,0.4,0.8,0.6,1.1c0.1,0.2,0.3,0.2,0.5,0
		c0.2,0.5,0.7,0.6,1.2,0.5l0.1,0.8l-0.7-0.4l0.2,0.7C69.3,50,69,50,67.7,49.5l0.1-0.4c-0.1,0-0.1,0-0.1,0c-0.6,0.4-1.2,0.7-1.8,0.9
		c-0.3,0.1-0.5,0.1-0.8,0.1h-0.5C64.4,50.4,64,50.4,63.6,50.2L63.6,50.2z M69.2,49.1L69.2,49.1c0,0.3,0.1,0.5,0.5,0.3L69.2,49.1z"/>
	<path id="Tracé_116" class="st4" d="M197.5,106.6c-0.2,0.3-0.3,0.6-0.5,0.6c-0.4,0.1-0.8,0.1-1.2,0c-0.1,0-0.2-0.1-0.2-0.2
		c-0.1-0.5-0.5-0.4-0.8-0.3c-0.2,0-0.3,0.1-0.5,0.1l-0.1-0.1l0.6-0.5c0-0.1-0.1-0.2-0.1-0.3c-0.1-0.2-0.1-0.5-0.2-0.7
		s-0.1-0.4-0.2-0.4c-0.5-0.1-0.8-0.6-1.4-0.6c-0.2,0-0.3-0.1-0.4-0.2c-0.2-0.3-0.4-0.4-0.7-0.1l-0.5-0.7l0.7-0.2v-0.1
		c-0.5,0.1-0.8-0.3-1.3-0.5c0.1-0.1,0.1-0.3,0.2-0.4c0.4-0.3,0.9-0.2,1.4-0.1c0,0.3,0,0.6,0,0.8c0.1,0.2,0.3,0.5,0.4,0.7
		c0.4,0,0.4-0.4,0.6-0.5c0.2-0.2,0.4-0.3,0.6-0.5c0.4,0.3,0.9,0.5,1.4,0.5c0.1,0,0.3,0.2,0.4,0.3c0.3,0.2,0.7,0.3,1,0.5
		s0.7,0.4,1,0.6l0,0c0.2,0.5,0.7,0.9,1.2,1c0.2,0.1,0.2,0.3,0,0.5c-0.2,0.1-0.3,0.4-0.1,0.6c0,0,0,0.1,0.1,0.1
		c0.3,0.3,0.5,0.6,0.8,0.9l0.7,0.8c-0.5,0-1-0.1-1.5-0.4c-0.3-0.3-0.6-0.5-0.7-0.9c0-0.1-0.1-0.2-0.2-0.2
		C198.1,106.7,197.8,106.6,197.5,106.6L197.5,106.6z"/>
	<path id="Tracé_117" class="st4" d="M225.7,52.6l0.1-0.2l-0.1-0.1c-0.3,0-0.6-0.1-0.8-0.2c-0.2-0.2-0.4-0.4-0.6-0.6
		c-0.2-0.1-0.3-0.2-0.5-0.3v-0.6h0.9c0.3,0,0.7-0.2,0.7-0.5c0-0.2,0.1-0.4,0.2-0.5c0.3-0.5,0.4-0.6,1.3-0.6v10.2l-0.8,0.4l-0.5-1.2
		l-0.6,0.3c-0.2-0.3-0.4-0.6-0.5-0.8c0-0.1,0-0.2,0.1-0.3c-0.6-0.2-0.7-0.6-0.2-1c0.2-0.1,0.3-0.3,0.5-0.4l-0.2-0.4l0.1-0.1
		c0.1,0,0.2,0,0.2,0c0.5,0.5,0.9-0.1,1.3-0.2c0.1,0,0.3-0.4,0.3-0.4c-0.1-0.2-0.1-0.5,0-0.8c-0.5,0-0.9,0.3-1.4,0.2
		c-0.4-0.1-0.9-0.1-1.3-0.1l-0.7-1c0.1-0.4,0.4-0.2,0.7-0.2c0.2-0.5,0.6-0.5,1.1-0.6l0.1,0.6c0.4,0.1,0.8,0.3,1.2,0L226,53h0.6v-0.1
		L225.7,52.6z"/>
	<path id="Tracé_118" class="st4" d="M183.9,98.7c0,0.5,0.1,0.9,0.2,1.4c0.1,0.2,0.2,0.4,0.4,0.6l-0.5,0.2c0,0.5-0.1,1-0.3,1.5
		c-0.1,0.1,0,0.4-0.2,0.6c-0.2,0.3-0.5,0.5-0.8,0.6c-0.3-0.2-0.7-0.3-1-0.2c-0.2,0-0.4,0.1-0.5-0.1c-0.1-0.1-0.2-0.1-0.3-0.1
		c-0.3,0.1-0.4-0.1-0.5-0.3c0-0.2-0.1-0.3-0.1-0.5c0-0.1-0.1-0.2-0.1-0.3c-0.6-0.6-0.7-1.5-0.2-2.2l0,0l0.7,0.3
		c0.1-0.1,0.2-0.2,0.2-0.3c0-0.3,0.2-0.5,0.5-0.6c0,0,0,0,0.1,0c0.3,0,0.5-0.2,0.6-0.4c0.1-0.3,0.4-0.5,0.6-0.6
		c0.2-0.1,0.5-0.2,0.4-0.6l0.1-0.2l0.5-0.7c0.3,0,0.6,0.2,0.6,0.5c0.1,0.2,0.4,0.3,0.5,0.5c-0.1,0.3-0.5,0.2-0.5,0.6
		C184.2,98.6,184.1,98.6,183.9,98.7L183.9,98.7z"/>
	<path id="Tracé_119" class="st4" d="M148.4,109.4c0.2,0.2,0.4,0.5,0.5,0.7c0.3,1,0.3,1,0,1.5l-0.2-0.2l-0.1,0.1
		c0.1,0.7,0.1,1.4-0.2,2c-0.1,0.4-0.2,0.8-0.3,1.1c-0.1,0.5-0.3,1.1-0.4,1.6c-0.1,0.4-0.2,0.7-0.3,1.1c-0.1,0.4-0.5,0.6-0.8,0.6
		s-0.6-0.2-0.7-0.4c-0.3-0.5-0.4-1.1-0.6-1.6c-0.1-0.5,0.1-1,0.4-1.3c0.2-0.2,0.3-0.6,0.2-0.9c-0.1-0.2-0.1-0.3-0.1-0.5
		c-0.2-0.6,0.1-1.3,0.7-1.5l0,0l0.3-0.1c0.3,0,0.5-0.2,0.6-0.4s0.4-0.3,0.4-0.6c0,0,0,0,0-0.1c0.1-0.2,0.4-0.2,0.4-0.5
		c0-0.2,0-0.4,0.1-0.6L148.4,109.4z"/>
	<path id="Tracé_120" class="st4" d="M153,48.4l-0.6-0.1c-0.1,0.2-0.3,0.3-0.5,0.2c-0.4,0-0.7,0-1.1,0c0-0.3,0-0.6,0.5-0.6
		c-0.3-0.1-0.7-0.1-0.6-0.5l-0.8,0.2c-0.3-0.6-0.2-0.6,0.3-0.8l0.2-1l0.5-0.2c0-0.3,0.1-0.5-0.3-0.6c0.5-0.3,1-0.7,1.4-1.1
		c0.2-0.2,0.4-0.3,0.7-0.3c0.4-0.1,0.7-0.2,1.1-0.4c0.4-0.1,0.7-0.3,1.2-0.4c0.2-0.3,0.2-0.3,0.6-0.1c0.4,0.1,0.8,0.1,1.1-0.1
		c0.4-0.1,0.8-0.3,1.2-0.5c0.3-0.1,0.4-0.1,0.6,0.1s0.1,0.4-0.2,0.5s-0.6,0.3-0.8,0.3c-0.6,0.2-1.3,0.3-2,0.4
		c-0.1,0-0.3,0.1-0.4,0.1c-0.4,0.3-0.8,0.5-1.3,0.6c-0.1,0-0.1,0.1-0.2,0.1c-0.4,0.4-0.8,0.8-1.1,1.3c-0.4,0.5-0.5,1.3-0.3,1.9
		c0.2,0.3,0.4,0.4,0.9,0.7L153,48.4z"/>
	<path id="Tracé_121" class="st4" d="M120.4,59.4c0.1,0,0.3-0.1,0.4-0.1c0.1,0,0.3,0,0.4,0.1c0,0.1-0.1,0.3-0.2,0.4
		c-0.1,0.2-0.3,0.3-0.4,0.5l1.3-0.1c-0.2,0.4-0.3,0.6-0.4,0.9c-0.1,0.2-0.1,0.4-0.1,0.6c0.3,0.2,0.6,0.6,0.7,0.9
		c0.1,0.2,0.3,0.4,0.5,0.6s0.4,0.2,0.3,0.5c0,0.2,0.1,0.4,0.2,0.6c0.2,0,0.3,0,0.5,0.1c0.1,0,0.1,0.1,0.1,0.2
		c0.1,0.5-0.3,0.7-0.7,0.9l0.5,0.1c-0.1,0.2-0.3,0.3-0.5,0.3c-0.4-0.1-0.8,0-1.1,0.1h-0.3l-0.5,0.1c-0.1,0-0.2,0.1-0.2,0.1
		c-0.3-0.1-0.5,0-0.7,0.3c0,0.1-0.2,0-0.4,0c0.2-0.3,0.4-0.6,0.6-0.9c0.1-0.1,0.4-0.1,0.6-0.1s0.4,0,0.3-0.3c-0.3,0.1-0.7,0.1-1.1,0
		c-0.1,0-0.2-0.1-0.2-0.1c0-0.1,0-0.2,0.1-0.2c0.1-0.1,0.3-0.2,0.3-0.3c0.1-0.1,0-0.2-0.1-0.3h-0.1l0.1-0.6l0.7,0.1l0.2-0.6
		c-0.1-0.2-0.6-0.1-0.2-0.6l-0.9,0.1v-1l-0.3-0.1l0.2-0.3C119.6,60.7,120.2,60.1,120.4,59.4L120.4,59.4z"/>
	<path id="Tracé_122" class="st4" d="M176.7,101.8l0.5,0.2c0.1,0.3,0,0.6,0.5,0.8c0.1,0,0.3,0.4,0.3,0.7c0,0.4-0.1,0.7-0.1,1.1
		l-0.5,0.2c-0.1,0-0.2,0-0.2,0c-0.4-0.4-0.9-0.5-1.1-1.1c-0.2-0.6-0.5-1.3-0.9-1.8c-0.2-0.3-0.4-0.5-0.6-0.7
		c-0.1-0.1-0.2-0.3-0.2-0.4c-0.1-0.4-0.1-0.8-0.6-0.9c-0.2-0.6-0.8-1-1.2-1.6c-0.2-0.2-0.3-0.5-0.2-0.8c0.1,0,0.2,0,0.4,0
		c0.1,0,0.2,0.2,0.2,0.1c0.8-0.1,0.9,0.5,1.3,0.9l0.4,0.4c0.1,0.1,0.2,0.1,0.2,0.1c0.1,0.5,0.6,0.7,0.9,1.1c0.1,0.1,0.3,0.2,0.4,0.3
		C176.7,100.7,177,101.2,176.7,101.8C176.8,101.8,176.7,101.8,176.7,101.8L176.7,101.8z"/>
	<path id="Tracé_123" class="st4" d="M75.8,42.2l0.5,0.3l-0.4,0.3c0,0,0,0,0.1,0s0.3,0,0.4,0.1c0.3,0.2,0.7,0.3,1.1,0.3
		c0.6,0,1.1-0.1,1.6-0.2s0.9,0,1.4,0.1c0.1,0,0.2,0.1,0.4,0.1c0.3,0,0.6,0.2,0.8,0.4l-0.5,0.8c-0.2,0-0.4,0.1-0.6,0.1
		c-0.8-0.1-1.5,0.1-2.3,0.1h-1c-0.3,0-0.3,0-0.6-0.3c-0.3,0.5-0.9,0.3-1.4,0.4c0-0.3,0-0.7,0-1c0.1-0.3,0.1-0.5-0.2-0.6
		c-0.2-0.2-0.5-0.3-0.8-0.3c-0.5,0.1-1.1-0.1-1.4-0.6c0.1-0.3,0.3-0.3,0.5-0.3S73.8,42,74,42c0.1,0,0.2,0.1,0.4,0.1
		c0.1,0.1,0.3,0.2,0.3,0.1C75,42,75.4,42.1,75.8,42.2L75.8,42.2z"/>
	<path id="Tracé_124" class="st4" d="M195.8,73.3c0.2,0.2,0.4,0.4,0.6,0.6c0.3,0.5,0.3,1.1-0.2,1.5c-0.1,0.1-0.2,0.1-0.2,0.2
		c0.1,0.6-0.2,1.2-0.1,1.8c0,0.2,0,0.4-0.1,0.5c-0.2,0.2-0.4-0.2-0.5,0.1l-0.2,0.3c-0.1,0-0.3,0-0.4,0c-0.2,0.1-0.5,0.1-0.8,0
		c-0.1,0.2-0.3,0.4-0.4,0.6c-0.1,0.1-0.3,0.2-0.4,0.1c-0.1-0.1-0.2-0.3-0.2-0.4s0-0.2,0-0.2l-0.5-0.1l0.3,0.5c0,0.4-0.3,0.4-0.6,0.4
		l-0.2,0.5l-0.4-0.6c0.1-0.3,0.4-0.5,0.7-0.6c-0.5-0.1-1,0.4-1.5,0.1c0.4-0.1,0.7-0.3,1-0.6c0.1-0.1,0.2-0.1,0.2-0.1
		c0.2-0.1,0.4-0.1,0.6-0.1c0.2,0,0.4,0,0.6,0.1l0.5-1.3l0.2,0.3c0.3-0.1,0.6-0.2,0.8-0.6s0.4-0.5,0.6-0.8c0.2-0.3,0.3-0.6,0.2-1
		C195.6,74,195.7,73.6,195.8,73.3L195.8,73.3z"/>
	<path id="Tracé_125" class="st4" d="M58.2,44.7c0.5-0.2,1-0.3,1.5-0.4c0.1,0,0.2,0,0.3,0.1c0.5,0.3,1,0.4,1.5,0.3
		c0.5,0,1,0.2,1.4,0.6c0,0.2-0.2,0.2-0.4,0.2c-0.6,0.1-1.2,0.4-1.6,0.9c-0.1,0.1-0.2,0.3-0.3,0.4c-0.2,0.6-0.4,0.7-1.2,0.5
		c-0.1,0.1-0.2,0.3-0.3,0.4c-0.1,0.1-0.4,0.2-0.5,0c0,0,0,0-0.1-0.1l-0.6-0.7C58.3,46.2,58.3,45.4,58.2,44.7z"/>
	<path id="Tracé_126" class="st4" d="M131.7,40.7l-1-0.5c-0.2,0.1-0.5,0.5-0.8,0.4c-0.2-0.2-0.3-0.5-0.4-0.7
		c-0.1-0.2,0-0.5-0.2-0.7c0,0,0.1-0.2,0.2-0.2c0.2-0.1,0.5-0.1,0.7-0.1l-0.1,0.5c0.4-0.5,0.4-0.5,1,0.2c0-0.4,0.2-0.7,0.5-0.9
		c0.2,0.1,0.4,0.2,0.6,0.3c0.3,0.2,0.5,0.5,0.6,0.8s0.4,0.5,0.7,0.5c0.1,0,0.2,0.1,0.3,0.1c-0.2,0.1-0.3,0.1-0.5,0.2
		s-0.4,0.2-0.4,0.5c0,0.2,0,0.4-0.2,0.6c-0.3,0.2-0.4,0.6-0.8,0.6c0,0-0.1,0.1-0.1,0.2c-0.1,0.3-0.3,0.3-0.4,0.1s-0.5-0.3-0.8-0.5
		s-0.3-0.1-0.3-0.5h0.5l0.2-0.4h-0.8l-0.1-0.4c0.3-0.1,0.6-0.1,0.9-0.1S131.4,40.7,131.7,40.7L131.7,40.7z"/>
	<path id="Tracé_127" class="st4" d="M110.7,54l0.6-0.3v-0.3l-0.8,0.2l0.4-0.7l0.5,0.3l-0.1-0.4c0.5-0.1,0.5,0,0.6,0.8l0.6-0.7h0.1
		l0.1,0.1l0.5-0.4l0.1,0.3c0.4-0.3,1,0,1.2-0.5c0.6,0.3,0.6,0.3,0.7,0.7c0.1,0,0.2,0,0.2,0.1l0.3,0.1v0.5c-0.7,0.4-1.2,1.1-2.2,0.9
		c-0.1,0.1,0.1,0.4-0.3,0.4s-0.6,0.2-0.9-0.1c-0.2-0.2-0.6-0.3-0.9-0.3H111v-0.1l0.4-0.2C111.4,54.1,111.4,54.1,110.7,54L110.7,54z"
		/>
	<path id="Tracé_128" class="st4" d="M83,155c0.3-0.4,0.8-0.5,1.2-0.3c0.6,0.3,0.9-0.2,1.3-0.3c0.1,0,0.2-0.3,0.1-0.4
		c0-0.3-0.1-0.5-0.2-0.8c-0.2-0.5-0.1-0.7,0.3-0.9c0.1-0.1,0.2-0.1,0.3-0.1c0.1,0.1,0.1,0.2,0.1,0.3c0.2,0.6,0.3,1.2,0.6,1.8
		c0.2,0.4,0.2,0.8,0.1,1.2c0,0.2-0.1,0.4-0.1,0.6C85.5,156.7,83.8,156.3,83,155L83,155L83,155z"/>
	<path id="Tracé_129" class="st4" d="M212.6,128.8l0.3,0.6h0.6c0,0.6-0.3,1.1-0.6,1.5c-0.2,0.2-0.2,0.2-0.1,0.5l-0.8,0.4
		c-0.1,0.6-0.4,1.1-0.8,1.5c-0.2,0.2-0.5,0.3-0.7,0.1l-1-0.4c0.2-0.7,0.7-1.3,1.4-1.6c0.5-0.2,0.9-0.6,1.1-1.1
		c0.1-0.4,0.4-0.6,0.4-1C212.3,129.1,212.5,129,212.6,128.8z"/>
	<path id="Tracé_130" class="st4" d="M63.4,44.3c0.5-0.4,1-0.6,1.7-0.6c-0.2-0.2-0.6-0.3-0.9-0.2c-0.2,0-0.4,0.1-0.7,0.1L63.4,43
		c-0.1,0.2-0.1,0.3-0.1,0.3c-0.1,0.4-0.1,0.3-0.5,0.3c-0.3,0-0.5-0.1-0.8-0.1l0.3-0.2l-0.2-0.1l0.4-0.2l-0.1-0.4
		c0.5-0.2,1-0.2,1.5,0c0.3,0.2,0.7,0.3,1,0.4s0.7,0.1,1.1,0.1c-0.2-0.2,0-0.5-0.3-0.6c0,0,0-0.2,0-0.3c0-0.2,0-0.4,0.1-0.6
		c0.2-0.1,0.3,0,0.3,0.2c0,0.3,0.3,0.4,0.5,0.6c0.1,0,0.2,0,0.3-0.1c0,0.3,0.2,0.5,0.4,0.6l0.1-0.5c0.2,0,0.3,0.1,0.4,0.3
		c0.1,0.2,0.1,0.5,0.1,0.7c0,0.1-0.2,0.2-0.3,0.2c-0.3,0.1-0.7,0.2-1,0.1c-0.4,0-0.7,0-1.1,0.1c-0.2,0-0.4,0.1-0.6,0.3
		c-0.2,0.3-0.6,0.4-0.9,0.3C63.7,44.4,63.6,44.4,63.4,44.3z"/>
	<path id="Tracé_131" class="st4" d="M24.6,128.4c0.4,0.2,0.4,0.6,0.8,0.6c0.2,0,0.2,0.3,0.1,0.5c-0.1,0.3-0.3,0.6-0.5,0.8
		s-0.2,0.4-0.3,0.7c-0.4,0-0.7,0.3-0.9,0.8c-0.2,0.4-0.4,0.7-0.6,1c-0.2,0.2-0.5,0.2-0.7,0.1c-0.1-0.1-0.2-0.1-0.4-0.2
		c-0.2,0-0.4,0-0.5-0.2c-0.1-0.3,0-0.5,0.2-0.7c0.3-0.3,0.6-0.5,1-0.8c0.7-0.4,1.2-1,1.6-1.7c0.1-0.1,0-0.3,0.1-0.4
		C24.5,128.7,24.5,128.5,24.6,128.4L24.6,128.4z"/>
	<path id="Tracé_132" class="st4" d="M186.8,104.3c-0.3-0.1-0.4,0.1-0.5,0.4c-0.4-0.4-0.3-0.9-0.6-1.3c-0.1,0.1-0.2,0.2-0.2,0.3
		c-0.1,0.4-0.1,0.8-0.1,1.2l-0.5,0.1c-0.1-0.2-0.1-0.5,0-0.7s0.1-0.4-0.1-0.5c-0.3-0.2-0.2-0.4-0.1-0.6c0-0.2,0.1-0.4,0.1-0.6
		c0.1-0.4,0.2-0.8,0.2-1.3c0-0.4,0.5-0.6,0.9-0.5c0.5,0.3,1.2,0.2,1.6-0.2c0.1,0,0.1-0.1,0.2-0.1c0,0.6-0.4,0.9-0.9,0.9
		s-0.9-0.1-1.3-0.1c-0.2,0.7-0.2,0.7,0.2,1l1.1-0.1v0.5l-1,0.2C186.3,103.2,186.6,103.7,186.8,104.3L186.8,104.3z"/>
	<path id="Tracé_133" class="st4" d="M72.3,45.4l-0.5,0.2l0.6,0.6l0.3-0.1c0,0.2,0.1,0.3,0.1,0.5s-0.1,0.4-0.3,0.6
		c-0.4,0.2-0.8,0.4-1.2,0.6l-1.1-1c-0.6,0.2-0.9-0.1-0.9-0.8c0.4,0.1,0.8,0.5,1.3,0.2v-0.3l-0.5-0.2c0.1-0.5,0.2-0.5,0.6-0.5
		c0.3,0.1,0.5-0.2,0.8-0.3c0.1,0,0.2-0.1,0.3-0.2c0.1,0.2,0.1,0.3,0.2,0.4S72.3,45.1,72.3,45.4L72.3,45.4z"/>
	<path id="Tracé_134" class="st4" d="M133,38.7c0.3-0.1,0.4-0.4,0.5-0.6l1.6,0.7l0.6-0.4l0.2,0.4c0.5-0.6,1,0.1,1.5,0
		c-0.1,0.5-0.5,0.6-0.7,0.9c-0.1,0.1-0.4,0.1-0.5,0.3c0,0.1-0.2,0.1-0.4,0.1c-0.5-0.1-0.9-0.1-1.4-0.2c-0.3,0-0.5-0.1-0.8-0.1
		s-0.2,0-0.3-0.3l0.8-0.1v-0.1c-0.2-0.1-0.4-0.1-0.6,0c-0.2,0.1-0.5,0.1-0.6-0.1L133,38.7L133,38.7z"/>
	<path id="Tracé_135" class="st4" d="M95.4,68.1c-0.1,0-0.2-0.1-0.3,0c-0.2,0.1-0.3,0.3-0.5,0.5L94.5,68H93c-0.2,0-0.4,0.1-0.5,0.1
		s-0.2,0-0.2-0.1s0-0.2,0-0.3c0.1-0.1,0.3-0.2,0.1-0.5l0.5-0.4c0,0-0.1-0.1-0.1-0.2c0-0.2,0.1-0.5,0.1-0.7c0-0.5,0.4-0.8,0.8-0.8
		l0,0c0,0.5-0.5,0.8-0.5,1.3c0.5-0.2,0.5-0.2,0.6,0.3l1.1-0.1c-0.1,0.3-0.1,0.6,0.1,0.8l0.4-0.1C95.5,67.6,95.7,67.9,95.4,68.1
		L95.4,68.1z"/>
	<path id="Tracé_136" class="st4" d="M212.8,124.8c0.6,0.2,1,0.3,1,1c0,0.3,0.1,0.5,0.2,0.8l0.3-0.2c0.1,0.1,0.1,0.2,0.2,0.3
		c0.1,0.6,0.3,0.7,0.9,0.5c0.1,0,0.2,0,0.3,0c0,0.1,0,0.2,0,0.4c-0.1,0.3-0.2,0.6-0.5,0.7c-0.1,0-0.1,0.1-0.1,0.2
		c0,0.5-0.5,0.8-0.6,1.3c0,0-0.1,0.1-0.2,0.1l-0.5-0.2c0.1-0.3,0.3-0.6,0.1-0.9c-0.2-0.2-0.4-0.4-0.7-0.6c0.1-0.1,0.2-0.1,0.2-0.2
		c0.3-0.2,0.4-0.6,0.3-0.9c0-0.5-0.2-0.9-0.5-1.3C213,125.4,212.9,125.1,212.8,124.8L212.8,124.8z"/>
	<path id="Tracé_137" class="st4" d="M173.1,37.5c0.3,0.3,0.6,0.5,1,0.8c0.1,0.1,0.1,0.3,0.1,0.4l0.6,0.5L175,39l0.3,0.4
		c0,0.1-0.1,0.1-0.1,0.2c-0.4,0.4-1,0.6-1.5,0.4c-0.5-0.1-1-0.2-1.6-0.4l1.1-0.8c-0.3,0.1-0.5,0.1-0.8,0.1c-0.3-0.1-0.5-0.2-0.8-0.3
		c0.3-0.1,0.6-0.3,0.8-0.6C172.5,37.7,172.8,37.6,173.1,37.5z"/>
	<path id="Tracé_138" class="st4" d="M58.8,42.9l-0.4-0.5c0.6-0.4,1.3-0.9,1.9-1.3c0.4-0.2,0.9-0.2,1.3-0.1
		c0.4-0.5,0.5-0.5,0.7-0.4c0.3,0.2,0.4,0.4,0.1,0.9h-0.3c0.1,0.5-0.4,0.5-0.6,0.7c-0.4-0.1-0.1-0.4-0.2-0.6c-0.3,0.4-0.6,0.7-0.9,1
		c-0.1,0.2-0.2,0.2-0.5,0.1C59.6,42.8,59.2,42.9,58.8,42.9z"/>
	<path id="Tracé_139" class="st4" d="M25.4,127.5c0.4-0.3,0.6-0.7,0.6-1.2c0-0.3-0.2-0.5-0.1-0.8l-0.1-0.1
		c-0.1-0.1-0.2-0.3-0.4-0.4c-0.1-0.2-0.1-0.4-0.2-0.6c0.9,0.2,0.7,0.9,0.9,1.6l0.4-0.1c0.1,0.2,0.1,0.4,0.2,0.6
		c0.3,0.3,0.8,0.3,1.2,0c0.1,0.4-0.1,0.8-0.4,1.1c-0.1,0.1-0.2,0.3-0.3,0.4c-0.2,0.4-0.4,0.8-0.7,1.2l-0.4-0.2
		c0.1-0.3,0.1-0.6,0-0.8C25.9,127.9,25.6,127.7,25.4,127.5L25.4,127.5z"/>
	<path id="Tracé_140" class="st4" d="M119.8,62.6l0.2,0.6c-0.2,0.1-0.4,0.2-0.4,0.4c-0.1,0.2-0.1,0.4,0,0.6c0.1,0.3,0,0.6-0.3,0.8
		c-0.3,0.2-0.5,0.4-0.8,0.5s-0.5,0.1-0.8-0.1c-0.1-0.1-0.2-0.2-0.1-0.3c0,0,0,0,0-0.1c0.1-0.1,0.2-0.3,0.3-0.4s0.1-0.3,0.2-0.4
		l-0.5-0.2c0-0.3,0.6-0.3,0.2-0.7c0.1,0,0.3,0,0.4-0.1c0.3,0,0.3-0.2,0.4-0.3s0.1-0.3,0.2-0.4c0.2,0,0.3,0,0.5,0
		C119.5,62.5,119.6,62.5,119.8,62.6L119.8,62.6z"/>
	<path id="Tracé_141" class="st4" d="M182.6,106.7c-0.1,0-0.3,0.1-0.4,0c-0.7-0.4-1.6-0.2-2.3-0.6c-0.1,0-0.2,0-0.3,0
		c-0.5,0.1-1-0.2-1.5-0.3c-0.2,0-0.3-0.4-0.6-0.2l0.3-0.7h1c0.2,0,0.3,0.1,0.5,0.2c0.3,0.1,0.6,0.2,0.9,0.2c0.3-0.1,0.7-0.1,1,0
		c0.1,0,0.2,0,0.3,0l0.1,0.6l0.7,0.1L182.6,106.7L182.6,106.7z"/>
	<path id="Tracé_142" class="st4" d="M197.2,64.3c0-0.3-0.2-0.6,0.1-0.7c0,0,0.1,0,0.1,0.1c0.1,0.5,0.2,1.1,0.2,1.7
		c0,0.4,0,0.9,0,1.3c0,0.1,0.1,0.2,0.2,0.3c0.1,0.2,0.2,0.4,0.3,0.6l-0.2-0.1c-0.3-0.2-0.5-0.2-0.5,0.2c-0.1,0.6-0.4,1.3,0.1,1.9
		c0.1,0.1,0.1,0.2,0.1,0.5l-0.5-0.4l-0.3,0.2v-0.3c0.1-1.1,0.1-2.1,0.1-3.2c0-0.3-0.1-0.6-0.1-1C196.6,64.9,196.8,64.5,197.2,64.3z"
		/>
	<path id="Tracé_143" class="st4" d="M69.7,43h0.4l-0.3-0.8l0.1-0.1c0.4,0.2,0.4,0.6,0.8,0.8c0.1-0.2-0.1-0.4-0.2-0.6l0.3-0.1
		l-0.2-0.3c0.3-0.2,0.3-0.2,0.6,0.4l0.2-0.4h0.1c0.6,0.4,0.5,1.1,0.8,1.7c0,0.1-0.1,0.3-0.2,0.3h-1.6l0.2-0.6l-1.1,0.3L69.7,43
		L69.7,43z"/>
	<path id="Tracé_144" class="st4" d="M198.5,71.9c-0.1,0.1-0.3,0.1-0.4,0.1c-0.4-0.1-0.8,0.2-0.8,0.6l0,0c-0.5,0-0.5,0-0.8-0.3
		l-0.6,0.1l0.3,0.4l-0.4,0.2l-0.2-0.7l0.4-0.5l0.3,0.1c0.1,0,0.1-0.1,0.1-0.1c0.1-0.2,0.1-0.4,0.1-0.5c0-0.3,0.2-0.6,0-0.9
		c0-0.1,0-0.2,0-0.3c0.1,0,0.2,0.1,0.3,0.1c0.1,0.2,0.2,0.3,0.4,0.5c0.2,0.3,0.3,0.5,0.7,0.4c0.1,0,0.4,0.1,0.6,0.2L198.5,71.9z"/>
	<path id="Tracé_145" class="st4" d="M185.8,92.5c-0.1-0.2-0.3-0.4-0.2-0.7v-0.1c-0.4-0.1-0.3-0.6-0.5-0.9c0.4-0.1,0.4-0.4,0.4-0.7
		s0.1-0.7,0.1-1.1l0.8,0.1c0,0.1-0.1,0.4,0,0.5c0.2,0.3,0.1,0.8-0.2,1c-0.3,0.4-0.3,0.8-0.1,1.2l1,0.1l0.2,0.8h-0.1
		c-0.1-0.1-0.3-0.2-0.3-0.3c-0.1-0.3-0.5-0.2-0.7-0.3C186.1,92.2,185.9,92.4,185.8,92.5L185.8,92.5z"/>
	<path id="Tracé_146" class="st4" d="M79.2,86.6c-0.1-0.3,0.1-0.7,0.4-0.8c0.1,0,0.1,0,0.2,0c0.5,0,1,0,1.4,0.1
		c0.5,0.5,1.2,0.6,1.8,1c0.4,0.3,0.8,0.5,1.2,0.7c-0.3,0.3-0.3,0.3-1.6,0.4l0.1-0.4c-0.2-0.1-0.3-0.2-0.4-0.3
		c-0.1-0.1-0.2-0.3-0.3-0.5c-0.3,0-0.6-0.1-0.9-0.3c-0.3-0.2-0.6-0.4-0.9-0.5c-0.2,0-0.4,0-0.5,0.1C79.5,86.3,79.3,86.4,79.2,86.6
		L79.2,86.6z"/>
	<path id="Tracé_147" class="st4" d="M186.9,95.7l0.2,0.2c0.4,0,0.8-0.3,1-0.7c0.3,0.3,0.5,0.7,0.4,1.1c-0.1,0.2-0.2,0.4-0.3,0.6
		c-0.1,0.2-0.1,0.5-0.2,0.7c-0.9-0.2-1-0.5-0.8-1c-0.6-0.2-0.7-0.2-1,0.1C186.1,96.1,186.5,95.9,186.9,95.7z"/>
	<path id="Tracé_148" class="st4" d="M197.7,128.9c0.7,0,1.2,0.6,1.8,0.1c0.5,0.6-0.1,1.1,0,1.7l-0.3-0.1c-0.1,0.1-0.1,0.4-0.3,0.4
		s-0.4-0.1-0.5-0.3s-0.2-0.4-0.3-0.6c-0.1-0.2-0.2-0.4-0.3-0.6S197.8,129.2,197.7,128.9L197.7,128.9z"/>
	<path id="Tracé_149" class="st4" d="M68.3,40.5c0.2-0.6-0.4-0.6-0.6-0.8c0.2-0.4,0.5-0.4,1,0.1l0.2-0.3l0.3,0.1
		c0.1,0,0.2,0.1,0.3,0.1c0.2,0,0.3,0.1,0.5,0.1c0.3,0.1,0.6,0.4,1,0.4c0.2,0,0.3,0.3,0.4,0.6c0,0.1-0.1,0.3-0.1,0.3
		c-0.1,0-0.2,0-0.4,0c-0.2-0.1-0.4-0.3-0.6-0.4c-0.5-0.4-1.2-0.5-1.8-0.2C68.4,40.5,68.3,40.5,68.3,40.5L68.3,40.5z"/>
	<path id="Tracé_150" class="st4" d="M38.9,162.8l-0.1,0.6c-0.4,0.3-0.9,0.4-1.4,0.2c-0.3-0.2-0.4-0.4-0.2-0.7
		c0.1-0.3,0.1-0.6-0.1-0.9c0.5-0.2,0.6-0.1,0.9,0.2C38.3,162.4,38.6,162.6,38.9,162.8L38.9,162.8z"/>
	<path id="Tracé_151" class="st4" d="M79.3,54.9c0-0.2,0.2-0.4-0.1-0.5c-0.1,0-0.3,0.2-0.3,0.3s-0.1,0.4-0.1,0.5
		c-0.1,0.1-0.2,0.2-0.4,0.1c-0.1,0-0.1-0.1-0.1-0.1c-0.1-0.1-0.1-0.1-0.2-0.2c-0.1,0-0.2-0.1-0.2-0.1c0-0.1,0.1-0.2,0.1-0.3
		c0.1-0.1,0.2-0.2,0.4-0.2c-0.1-0.4-0.1-0.8,0.1-1.2h0.2l-0.2,0.4c0.8-0.1,1.1,0.4,1.4,1h0.5l-0.1,0.5L79.3,54.9z"/>
	<path id="Tracé_152" class="st4" d="M226.3,163.3v0.2c0,0.6-0.1,0.6-0.5,0.7c-0.4,0.1-0.8,0-1.1-0.4c-0.1-0.1-0.1-0.3,0-0.4
		c0.2-0.3,0.1-0.6-0.1-0.9c0.2-0.2,0.6-0.2,0.8,0L226.3,163.3z"/>
	<path id="Tracé_153" class="st4" d="M87.5,88.9c-0.5-0.2-0.9,0.2-1.3,0.1c-0.1,0-0.2,0.1-0.4,0.2c-0.3-0.3-0.8-0.1-1.1-0.2
		s-0.3,0-0.5-0.3l1.1,0.1L85.1,88h0.8c0.1,0,0.2,0,0.3,0c0.4,0.1,0.7,0.3,1.1,0.5C87.3,88.6,87.4,88.7,87.5,88.9L87.5,88.9z"/>
	<path id="Tracé_154" class="st4" d="M177.5,40.3l-0.7,0.2c-0.1,0-0.2,0.1-0.3,0.1c-0.5-0.1-1,0-1.4,0.2H175c0.3-0.5,0.5-1,0.8-1.5
		c0.1-0.1,0.2-0.1,0.3-0.1c0.4,0.2,0.8,0.4,1.1,0.6C177.3,40,177.4,40.1,177.5,40.3L177.5,40.3z"/>
	<path id="Tracé_155" class="st4" d="M164.5,95c0.3,0.4,0.6,0.9,0.8,1.3c0.2,0.3,0.1,0.8-0.2,0.9c0,0,0,0-0.1,0
		c-0.3,0.2-0.6,0.1-0.6-0.2c-0.1-0.4-0.2-0.8-0.1-1.2C164.3,95.6,164.4,95.3,164.5,95L164.5,95z"/>
	<path id="Tracé_156" class="st4" d="M195.1,43c0.1,0.1,0.3,0.2,0.4,0.3c0.4,0.4,0.5,0.6,0.1,1.1c0,0.1-0.1,0.1-0.1,0.1
		c-0.1,0.1-0.3,0.3-0.5,0.4c-0.3,0-0.4-0.2-0.5-0.5C194.4,43.8,194.5,43.5,195.1,43L195.1,43z"/>
	<path id="Tracé_157" class="st4" d="M71.2,49.9l0.7-0.9c0.6,0.1,1.2,0.3,1.2,1.1c-0.2,0.1-0.5,0.2-0.7,0.3c-0.1,0-0.2,0-0.3,0
		C71.8,50.1,71.5,50,71.2,49.9z"/>
	<path id="Tracé_158" class="st4" d="M63.9,41c0.6-0.1,1.2-0.6,2-0.3l-0.5,0.4c0,0.1,0,0.3,0,0.4s-0.2,0.2-0.3,0.2
		c-0.1,0.1-0.2,0.1-0.3,0.1C64.3,41.9,63.9,41.6,63.9,41z"/>
	<path id="Tracé_159" class="st4" d="M135.7,41.7c-0.4,0.3-0.9,0.4-1.4,0.2c-0.2,0-0.4,0-0.5,0.1l0.1-0.8l-0.5-0.4
		c0.4-0.3,0.4-0.3,1-0.1l-0.1,0.5c0.3-0.1,0.7,0,0.9,0.2C135.3,41.6,135.5,41.7,135.7,41.7z"/>
	<path id="Tracé_160" class="st4" d="M190.2,79.1l0.7-0.5l0.5,0.8l-0.5,1.3l-0.5-0.2l0.2-0.7C190.2,79.7,190.5,79.2,190.2,79.1z"/>
	<path id="Tracé_161" class="st4" d="M73.5,40.8l-0.9,0.3c-0.4-0.1-0.3-0.8-0.9-0.8l0.1-0.6l1.2,0.5C73.4,40.4,73.4,40.4,73.5,40.8
		z"/>
	<path id="Tracé_162" class="st4" d="M145.1,38.3c0.4-0.3,0.9-0.5,1.4-0.5c0.7-0.2,1.4-0.1,2,0.3l-1.1,0.1h-0.2
		c-0.3,0.3-0.7,0.2-1.1,0.3C145.8,38.4,145.5,38.4,145.1,38.3z"/>
	<path id="Tracé_163" class="st4" d="M41.9,163.9c-0.2,0.6-0.7,1-1.3,0.9c0-0.2,0-0.5-0.1-0.7c0-0.2,0.1-0.5,0.4-0.5l0,0
		C41.3,163.6,41.7,163.7,41.9,163.9z"/>
	<path id="Tracé_164" class="st4" d="M180.7,88.5c-0.2,0.3-0.2,0.7-0.5,0.9c-0.2,0.2-0.6,0.1-0.8-0.1l0,0c-0.1-0.1-0.1-0.4,0-0.5
		l0,0c0.3-0.2,0.6-0.4,0.9-0.5c0.1,0,0.2,0,0.3,0.1S180.7,88.5,180.7,88.5z"/>
	<path id="Tracé_165" class="st4" d="M197.6,46l-1.8-0.3c0.4-0.4,0.6-0.9,1.3-0.6C197.4,45.3,197.6,45.7,197.6,46z"/>
	<path id="Tracé_166" class="st4" d="M74,44.3l-1.2-0.4c0-0.4,0.3-0.6,0.5-0.8s0.8,0.1,0.8,0.5C74.1,43.9,74.1,44.1,74,44.3
		L74,44.3z"/>
	<path id="Tracé_167" class="st4" d="M185.8,86.6c-0.3-0.1-0.4-0.4-0.3-0.6c0.1-0.6,0.4-1.1,0.9-1.5c0,0.2,0.1,0.3,0.1,0.4
		C186.1,85.4,186.3,86.1,185.8,86.6L185.8,86.6z"/>
	<path id="Tracé_168" class="st4" d="M201.4,43.7c-0.3,0.4-0.9,0.6-1.3,0.3c-0.4-0.1-0.4-0.2-0.4-0.6
		C200.2,43.3,200.8,43.4,201.4,43.7z"/>
	<path id="Tracé_169" class="st4" d="M127.3,73.7l0.5-0.4c0.1,0.2,0.3,0.4,0.3,0.6c0,0.3,0,0.6-0.1,0.9c-0.1,0.1-0.2,0.2-0.3,0.2
		s-0.2-0.1-0.2-0.3C127.3,74.4,127.3,74.1,127.3,73.7z"/>
	<path id="Tracé_170" class="st4" d="M200.1,105.2l0.7-0.3h0.1c0.4,0.3,0.5-0.1,0.7-0.4s0.2-0.3,0.5-0.3l-0.2-0.5
		c0.1,0,0.2,0,0.2,0.1c0.3,0.3,0.3,0.3,0,0.6c-0.2,0.2-0.4,0.5-0.6,0.7C201.1,105.5,200.5,105.5,200.1,105.2z"/>
	<path id="Tracé_171" class="st4" d="M29.5,47.1c0.2,0.4,0.9-0.1,1.1,0.6c-0.6,0.2-1.2,0.2-1.8,0.1C28.9,47.4,29.2,47.2,29.5,47.1z
		"/>
	<path id="Tracé_172" class="st4" d="M186.5,108.4c0.3-0.3,0.6-0.6,0.9-0.9c0.4-0.4,0.9-0.5,1.4-0.5c-0.3,0.4-0.7,0.7-1.1,0.9
		C187.3,108.1,187,108.5,186.5,108.4L186.5,108.4z"/>
	<path id="Tracé_173" class="st4" d="M149.8,38.1c-0.1,0.1-0.1,0.2-0.2,0.2c-0.7,0.1-1.3,0.6-2,0.3l-0.1-0.4c0.2,0,0.4,0,0.6,0
		c0.3,0.1,0.7,0,1-0.3c0.1-0.1,0.1-0.1,0.2-0.1C149.4,37.9,149.6,38,149.8,38.1L149.8,38.1z"/>
	<path id="Tracé_174" class="st4" d="M63.6,40.3c0.3-0.3,0.9-0.4,1.3-0.2c0.1-0.1,0.3-0.2,0.4-0.3c0.2-0.1,0.3-0.1,0.5,0
		c0.1,0,0.2,0.1,0.3,0.2c0,0.1-0.1,0.3-0.2,0.3l0,0c-0.1,0-0.1,0-0.2,0c-0.3,0-0.7-0.3-1,0.1C64.4,40.2,64,40.4,63.6,40.3z"/>
	<path id="Tracé_175" class="st4" d="M82.9,154.1c0-0.2,0-0.3,0.1-0.5c0.1-0.4,0.5-0.6,0.9-0.5c0.1,0,0.1,0,0.2,0.1
		s0.2,0.2,0.1,0.3c-0.1,0.2-0.2,0.4-0.4,0.4C83.5,154.1,83.2,154.1,82.9,154.1z"/>
	<path id="Tracé_176" class="st4" d="M155.5,37.9c-0.1,0.1-0.2,0.1-0.3,0.1h-0.3v0.4c-0.2,0-0.5,0-0.7-0.1s-0.1-0.3,0-0.5
		C154.5,37.4,154.9,37.4,155.5,37.9L155.5,37.9z"/>
	<path id="Tracé_177" class="st4" d="M69.7,43L69,43.3l-0.1-0.1L69,43l-0.5-0.5l0.2-0.3l0.3-0.1c0.4-0.2,0.4,0.2,0.6,0.4
		C69.8,42.6,69.7,42.8,69.7,43L69.7,43z"/>
	<path id="Tracé_178" class="st4" d="M130.9,75.8l-0.1,0.9c-0.5-0.2-1-0.5-1.4-0.9H130.9z"/>
	<path id="Tracé_179" class="st4" d="M216.2,48.4l0.7-0.5l0.8,0.2c0.2,0.1,0.4,0.2,0.3,0.4h-1.7L216.2,48.4z"/>
	<path id="Tracé_180" class="st4" d="M67.8,46.4c-0.8,0-1.1-0.4-0.8-1.1C67.4,45.5,67.8,45.9,67.8,46.4z"/>
	<path id="Tracé_181" class="st4" d="M43.5,60.2c-0.8,0.5-1.1,0.6-1.3,0C43.2,59.7,43.2,59.7,43.5,60.2z"/>
	<path id="Tracé_182" class="st4" d="M210.5,161.7c-0.4,0-0.8,0-1.2,0s-0.4-0.3-0.2-0.6l1.4,0.5V161.7z"/>
	<path id="Tracé_183" class="st4" d="M53.5,63.3H54l0.4,1.3C53.8,64.3,53.7,63.8,53.5,63.3z"/>
	<path id="Tracé_184" class="st4" d="M208.3,114.8c0,0,0.1-0.1,0.1,0c0.5,0.5,0.9,1,1.4,1.5C209.1,116.1,208.4,115.5,208.3,114.8
		L208.3,114.8z"/>
	<path id="Tracé_185" class="st4" d="M74.7,41.1c-0.2,0.5-0.2,0.5-1.7,0.2C73.5,41,74.1,40.9,74.7,41.1z"/>
	<path id="Tracé_186" class="st4" d="M171,39.5c-0.3-0.3-0.1-0.5,0-0.7c0.4,0,0.8,0.2,1,0.6L171,39.5z"/>
	<path id="Tracé_187" class="st4" d="M222,162.8c0.1-0.1,0.2-0.3,0.2-0.3c0.3,0,0.5,0.1,0.8,0.2c0.1,0.1,0.3,0.2,0.4,0.3
		C223,163.3,222.4,163.2,222,162.8z"/>
	<path id="Tracé_188" class="st4" d="M189.3,99.8l0.1,0.6h0.3v0.6l-0.4-0.1v0.5C188.9,101,188.9,100.3,189.3,99.8L189.3,99.8z"/>
	<path id="Tracé_189" class="st4" d="M36,162.6c-0.5,0.2-1,0.2-1.4-0.2c0.2-0.4,0.2-0.4,0.6-0.2c0.1,0,0.3,0.1,0.4,0.1
		C35.7,162.3,35.8,162.4,36,162.6L36,162.6z"/>
	<path id="Tracé_190" class="st4" d="M156.3,38l-0.3-0.3c0-0.1,0.1-0.2,0.1-0.2c0.4-0.1,0.7-0.6,1.2-0.2L156.3,38z"/>
	<path id="Tracé_191" class="st4" d="M127.7,73.2c-0.6-0.3-0.6-0.7,0.1-1.2C128,72.4,128,72.9,127.7,73.2z"/>
	<path id="Tracé_192" class="st4" d="M21.3,160.5c0.2,0.3,0.4,0.5,0.8,0.4c0.2,0,0.4,0.1,0.5,0.2c-0.3,0.2-0.3,0.2-0.6,0.1
		c-0.1,0-0.2-0.1-0.3-0.1C21.2,161.1,21.2,161.1,21.3,160.5z"/>
	<path id="Tracé_193" class="st4" d="M129.2,62.8l-0.6-0.6c0.1-0.1,0.2-0.2,0.2-0.2c0.2,0,0.3,0,0.3-0.2c0.1,0,0.1-0.1,0.2-0.1
		c0.1,0,0.1,0,0.1,0.1c0,0.2,0,0.4,0,0.6C129.5,62.5,129.4,62.6,129.2,62.8z"/>
	<path id="Tracé_194" class="st4" d="M187.4,93.1c0.5-0.1,0.5-0.1,0.5,0.2s0,0.8,0.1,1.3c-0.2-0.1-0.3-0.1-0.3-0.4
		C187.7,93.8,187.6,93.4,187.4,93.1L187.4,93.1z"/>
	<path id="Tracé_195" class="st4" d="M185,94c0,0.2,0,0.4-0.1,0.5c-0.4,0.4-0.5,1-1.1,1.1c0-0.1,0-0.2,0-0.2
		c0.4-0.3,0.7-0.7,0.9-1.2c0.1-0.1,0.1-0.2,0.2-0.3L185,94z"/>
	<path id="Tracé_196" class="st4" d="M186.7,94.1c0.2-0.1,0.3,0.2,0.5,0.1c0.1,0,0.1,0,0.1,0.4c-0.3,0.1-0.5,0.4-0.5,0.6l-0.6-0.5
		C186.5,94.8,186.7,94.5,186.7,94.1L186.7,94.1z"/>
	<path id="Tracé_197" class="st4" d="M226.5,62c0.1-0.1,0.1-0.2,0.3-0.4c0,0.1,0.1,0.2,0.1,0.3c-0.1,0.3-0.3,0.4-0.9,0.4l-0.3,0.4
		c-0.1-0.1-0.1-0.2-0.1-0.2C225.6,62.2,226,61.9,226.5,62C226.4,62,226.5,62,226.5,62L226.5,62z"/>
	<path id="Tracé_198" class="st4" d="M220.9,55.8v-0.3l0.8-0.1l0.7,0.5l-0.2,0.3l-0.4-0.6L220.9,55.8z"/>
	<path id="Tracé_199" class="st4" d="M152.1,37.5l0.3-0.1l-0.4-0.3c0.3-0.2,0.7-0.2,1,0C152.7,37.6,152.7,37.6,152.1,37.5
		L152.1,37.5z"/>
	<path id="Tracé_200" class="st4" d="M197.4,43.4c0.2,0,0.3,0,0.5,0.1c0.1,0,0.2,0.1,0.2,0.2s0,0.2-0.1,0.3
		c-0.1,0.1-0.2,0.2-0.4,0.2C197.4,44,197.4,44,197.4,43.4L197.4,43.4z"/>
	<path id="Tracé_201" class="st4" d="M153.7,38.2c-0.2,0.2-0.3,0.5-0.6,0.3H153c-0.2,0.3-0.4,0.1-0.6,0.1c0.2-0.3,0.6-0.2,0.6-0.4
		C153.2,37.9,153.4,38.2,153.7,38.2z"/>
	<path id="Tracé_202" class="st4" d="M89.3,66.5c0.6,0,1.1,0.3,1.5,0.8C90.2,67.2,89.7,66.9,89.3,66.5z"/>
	<path id="Tracé_203" class="st4" d="M186.7,107c-0.5,0.3-1.1,0.3-1.6,0.1c0.2-0.2,0.2-0.2,0.8-0.2L186.7,107z"/>
	<path id="Tracé_204" class="st4" d="M153.7,48.7l1,0.7c-0.5,0.2-0.8-0.1-1.1-0.3C153.4,49,153.5,48.8,153.7,48.7z"/>
	<path id="Tracé_205" class="st4" d="M203.8,106c-0.6-0.2-0.8-0.5-0.8-1.2C203.3,105.2,203.7,105.4,203.8,106z"/>
	<path id="Tracé_206" class="st4" d="M92.7,137.1l-1.2,0.6c0-0.3,0.2-0.6,0.5-0.8C92.1,136.8,92.4,137,92.7,137.1L92.7,137.1z"/>
	<path id="Tracé_207" class="st4" d="M184,106.8l0.6,0.3v0.1c-0.3,0.1-0.6,0.1-0.9,0.1c-0.1,0-0.1-0.1-0.2-0.2
		c0.1,0,0.2-0.1,0.2-0.1C184,107.1,184.1,107.1,184,106.8L184,106.8z"/>
	<path id="Tracé_208" class="st4" d="M82.1,88.9c0.4-0.2,0.8-0.1,1.2,0.2C82.8,89.5,82.7,89.5,82.1,88.9z"/>
	<path id="Tracé_209" class="st4" d="M34.8,55.1l-0.2,0.2c-0.2-0.1-0.4-0.3-0.6-0.4c-0.2,0-0.5,0-0.7,0c-0.1-0.1-0.1-0.3,0.1-0.3
		c0.3,0,0.7-0.2,1,0.3C34.5,55,34.7,55.1,34.8,55.1z"/>
	<path id="Tracé_210" class="st4" d="M84,50.9c-0.2,0.2-0.3,0.4-0.4,0.5s-0.3-0.1-0.3-0.4s0.1-0.4,0.3-0.4
		C83.6,50.6,83.8,50.8,84,50.9z"/>
	<path id="Tracé_211" class="st4" d="M87,150.1c0.1,0.4-0.1,0.7-0.2,1.1C86.3,150.8,86.4,150.5,87,150.1z"/>
	<path id="Tracé_212" class="st4" d="M91.6,68.9L91.2,70c-0.1,0-0.3-0.1-0.3-0.3v-0.1c0.1-0.3,0.3-0.6,0.5-0.8L91.6,68.9z"/>
	<path id="Tracé_213" class="st4" d="M95.4,68.1c0.2,0,0.4-0.1,0.4-0.5c0.1,0.2,0.1,0.4,0.2,0.6c0,0.1,0,0.3-0.1,0.3
		c-0.1,0.1-0.2,0-0.2-0.1h-0.3C95.4,68.3,95.4,68.2,95.4,68.1L95.4,68.1z"/>
	<path id="Tracé_214" class="st4" d="M140.7,77.6c0.1,0.3-0.1,0.4-0.3,0.5s-0.5,0.1-0.6-0.1l0,0C140.1,77.7,140.4,77.7,140.7,77.6z
		"/>
	<path id="Tracé_215" class="st4" d="M190.6,103.6l-1.3-0.1v-0.2c0.4-0.1,0.9,0,1.3,0.2V103.6z"/>
	<path id="Tracé_216" class="st4" d="M131.3,50.2h0.5c-0.2,0.5-0.4,0.6-0.8,0.4l0.2-0.2L131.3,50.2z"/>
	<path id="Tracé_217" class="st4" d="M61.3,43.4l-0.4-0.1l0.6-0.8C61.7,42.9,61.7,42.9,61.3,43.4z"/>
	<path id="Tracé_218" class="st4" d="M35.7,57.8c0.2-0.1,0.3-0.1,0.5-0.2c0.1,0,0.2,0.1,0.3,0.1c-0.1,0.1-0.1,0.3-0.2,0.3
		c-0.2,0-0.4,0-0.6-0.1L35.7,57.8z"/>
	<path id="Tracé_219" class="st4" d="M149,49.7l-0.3,0.6c-0.3-0.2-0.5-0.4-0.3-0.6C148.6,49.5,148.8,49.5,149,49.7z"/>
	<path id="Tracé_220" class="st4" d="M135.3,77.7c0.4,0.2,1-0.1,1.4,0.2C136.2,78.1,135.7,78,135.3,77.7z"/>
	<path id="Tracé_221" class="st4" d="M134.5,60l-0.1-0.1c0-0.1,0-0.1-0.1-0.2c0.2-0.1,0.4-0.3,0.7-0.1
		C135,59.9,134.7,59.9,134.5,60z"/>
	<path id="Tracé_222" class="st4" d="M63.5,40.7c-0.2,0.1-0.3,0.2-0.4,0.2s-0.3-0.1-0.3-0.2v-0.1c0-0.1,0.2-0.3,0.3-0.3
		S63.3,40.6,63.5,40.7z"/>
	<path id="Tracé_223" class="st4" d="M92.3,147.6c0.5,0,0.5,0,0.5,0.5C92.4,148.1,92.4,148.1,92.3,147.6z"/>
	<path id="Tracé_224" class="st4" d="M78.9,56.1l1-0.5C79.8,55.9,79.3,56.2,78.9,56.1L78.9,56.1z"/>
	<path id="Tracé_225" class="st4" d="M220.9,58.2c-0.2,0.2-0.4,0.4-0.6,0.2c-0.1-0.1-0.1-0.2-0.1-0.3c0,0,0-0.1,0.1-0.1
		C220.5,57.9,220.7,58,220.9,58.2z"/>
	<path id="Tracé_226" class="st4" d="M113.4,43.3l0.6,0.3c-0.2,0.1-0.4,0.4-0.6,0.2C113.3,43.7,113.3,43.5,113.4,43.3
		C113.3,43.3,113.3,43.3,113.4,43.3L113.4,43.3z"/>
	<path id="Tracé_227" class="st4" d="M133,60.3l-0.3,0.8C132.3,60.7,132.4,60.5,133,60.3z"/>
	<path id="Tracé_228" class="st4" d="M46.5,158.4l-1.1,0.3C45.7,158.3,45.9,158.3,46.5,158.4L46.5,158.4z"/>
	<path id="Tracé_229" class="st4" d="M201.8,47.8l0.6,0.6l-0.8,0.1L201.8,47.8z"/>
	<path id="Tracé_230" class="st4" d="M186.7,94.1c-0.1,0.1-0.2,0.1-0.3,0.2c-0.1,0-0.2,0.1-0.3,0.1l0.1-0.7
		C186.5,93.7,186.6,93.9,186.7,94.1L186.7,94.1z"/>
	<path id="Tracé_231" class="st4" d="M185.6,108.2c-0.4,0.2-0.6-0.2-0.9-0.3C185.2,107.7,185.3,107.8,185.6,108.2z"/>
	<path id="Tracé_232" class="st4" d="M185.7,92.4l0.2,0.7l-0.1,0.1l-0.5-0.8L185.7,92.4L185.7,92.4z"/>
	<path id="Tracé_233" class="st4" d="M89.4,69c0.1,0,0.1,0,0.2,0c0.1,0.3,0.4,0.3,0.7,0.3c0.1,0,0.2,0.1,0.3,0.2c0,0,0,0,0,0.1
		L90,69.5L89.4,69L89.4,69z"/>
	<path id="Tracé_234" class="st4" d="M215.2,113.4c0.1-0.3,0.3-0.3,0.5-0.2c0.1,0,0.1,0.2,0.1,0.3S215.6,113.6,215.2,113.4
		L215.2,113.4z"/>
	<path id="Tracé_235" class="st4" d="M223.1,58.4l0.7-0.2c0.1,0.2,0.1,0.3-0.1,0.4C223.5,58.7,223.3,58.6,223.1,58.4z"/>
	<path id="Tracé_236" class="st4" d="M91.2,136.9h0.4c0,0,0.1,0,0.1,0.1c-0.1,0.3-0.4,0.5-0.7,0.6L91.2,136.9z"/>
	<path id="Tracé_237" class="st4" d="M178.3,103.2c-0.4-0.1-0.3-0.5-0.6-0.7C178.2,102.5,178.3,102.7,178.3,103.2z"/>
	<path id="Tracé_238" class="st4" d="M208,59.7c-0.1-0.3,0-0.6,0.3-0.7c0,0,0,0,0.1,0C208.5,59.4,208.1,59.5,208,59.7z"/>
	<path id="Tracé_239" class="st4" d="M42,88.2l-0.4,0.2c-0.1,0-0.1-0.1-0.1-0.1c-0.1-0.2,0-0.4,0.2-0.5L42,88.2z"/>
	<path id="Tracé_240" class="st4" d="M83.7,137l0.1-0.7l0.4,0.4l-0.3,0.4L83.7,137z"/>
	<path id="Tracé_241" class="st4" d="M75.6,41.3l0.1-0.6h0.1c0.1,0.1,0.2,0.2,0.2,0.3C76.1,41.3,75.9,41.3,75.6,41.3z"/>
	<path id="Tracé_242" class="st4" d="M45.5,160.7l-0.1-0.9c0.5,0.2,0.5,0.4,0.2,0.7L45.5,160.7L45.5,160.7z"/>
	<path id="Tracé_243" class="st4" d="M189,103.6c-0.2,0.2-0.6,0.1-0.8-0.1l0,0C188.5,103.4,188.8,103.1,189,103.6z"/>
	<path id="Tracé_244" class="st4" d="M119.3,60.2c0.1-0.3,0-0.6,0.4-0.8C119.7,59.8,119.7,60.1,119.3,60.2z"/>
	<path id="Tracé_245" class="st4" d="M192.5,105.9l0.1-0.7C192.9,105.3,192.9,105.5,192.5,105.9z"/>
	<path id="Tracé_246" class="st4" d="M132.4,49.9l-0.4,0.2c0-0.4,0-0.4,0.4-0.6C132.3,49.6,132.4,49.7,132.4,49.9L132.4,49.9z"/>
	<path id="Tracé_247" class="st4" d="M199.5,70.8l0.8-0.6c0,0.6-0.5,0.5-0.7,0.8L199.5,70.8z"/>
	<path id="Tracé_248" class="st4" d="M163.3,46.9c0.4-0.5,0.4-0.5,0.8-0.3L163.3,46.9z"/>
	<path id="Tracé_249" class="st4" d="M186.8,104.3h0.2c-0.2,0.2,0.1,0.5-0.2,0.7l-0.3-0.3L186.8,104.3L186.8,104.3z"/>
	<path id="Tracé_250" class="st4" d="M89.3,148.2l0.4-0.4l0.1,0.6l-0.5-0.1V148.2z"/>
	<path id="Tracé_251" class="st4" d="M88.2,89h0.6C88.6,89.3,88.5,89.3,88.2,89z"/>
	<path id="Tracé_252" class="st4" d="M225.1,63.1l-0.8,0.2C224.4,62.9,224.6,62.9,225.1,63.1z"/>
	<path id="Tracé_253" class="st4" d="M82,49c-0.3,0.5-0.3,0.5-0.8,0.3L82,49z"/>
	<path id="Tracé_254" class="st4" d="M84.7,73.3h0.7v0.1l-0.8,0.2L84.7,73.3L84.7,73.3z"/>
	<path id="Tracé_255" class="st4" d="M84.5,132.1c-0.2,0.1,0.2,0.6-0.3,0.5C84,132.1,84,132.1,84.5,132.1z"/>
	<path id="Tracé_256" class="st4" d="M37.7,62.6l-0.8,0.3C37.1,62.4,37.1,62.4,37.7,62.6z"/>
	<path id="Tracé_257" class="st4" d="M91.9,69.4c-0.1,0.4-0.1,0.4-0.3,0.5C91.5,69.5,91.5,69.5,91.9,69.4z"/>
	<path id="Tracé_258" class="st4" d="M150.3,38.4c0.3-0.2,0.5-0.3,0.7,0.1C150.7,38.7,150.5,38.5,150.3,38.4L150.3,38.4z"/>
	<path id="Tracé_259" class="st4" d="M159.8,45.3c0.3,0.4,0.3,0.4-0.2,0.5L159.8,45.3z"/>
	<path id="Tracé_260" class="st4" d="M210.1,111.9c0.2,0.1,0.3,0.1,0.3,0.2s0,0.3,0,0.3c-0.2,0.1-0.2-0.1-0.3-0.2
		C210.1,112.1,210.1,112,210.1,111.9z"/>
	<path id="Tracé_261" class="st4" d="M206.2,107.8c-0.3,0.2-0.3,0.2-0.5-0.1L206.2,107.8z"/>
	<path id="Tracé_262" class="st4" d="M71.2,38.4l0.3,0.5C71.1,38.8,71.1,38.8,71.2,38.4z"/>
	<path id="Tracé_263" class="st4" d="M93.8,147c-0.2,0.2-0.3,0.4-0.6,0.1C93.3,146.8,93.5,146.8,93.8,147z"/>
	<path id="Tracé_264" class="st4" d="M129.4,62.8c-0.4,0.4-0.4,0.4-0.6,0.2L129.4,62.8z"/>
	<path id="Tracé_265" class="st4" d="M152,36.4l0.6-0.2c-0.1,0.2-0.3,0.4-0.5,0.3L152,36.4z"/>
	<path id="Tracé_266" class="st4" d="M216.4,112.2c-0.1,0.4-0.3,0.4-0.6,0.5C215.9,112.4,216.2,112.3,216.4,112.2z"/>
	<path id="Tracé_267" class="st4" d="M28.1,112.8l-0.6,0.1C27.7,112.5,27.9,112.5,28.1,112.8L28.1,112.8z"/>
	<path id="Tracé_268" class="st4" d="M153.7,39c0.1-0.2,0.3-0.4,0.4-0.2c0,0.1,0,0.2,0,0.2H153.7z"/>
	<path id="Tracé_269" class="st4" d="M210,133.4l0.3,0.5l-0.4,0.1L210,133.4z"/>
	<path id="Tracé_270" class="st4" d="M69.1,42.1l-0.3,0.1c-0.1-0.1-0.2-0.3,0-0.4S69.1,41.9,69.1,42.1z"/>
	<path id="Tracé_271" class="st4" d="M89.4,55.3l0.5,0.1c-0.2,0.1-0.3,0.2-0.4,0.2S89.4,55.5,89.4,55.3L89.4,55.3z"/>
	<path id="Tracé_272" class="st4" d="M211.1,49.2c-0.1,0-0.2,0.1-0.2,0.1c-0.1,0-0.2-0.1-0.3-0.2V49c0.1,0,0.2,0,0.3,0.1
		C211,49,211,49.1,211.1,49.2z"/>
	<path id="Tracé_273" class="st4" d="M205.6,106.9l-0.5-0.4C205.5,106.4,205.5,106.7,205.6,106.9z"/>
	<path id="Tracé_274" class="st4" d="M23.3,48.7L23,48.2C23.5,48.3,23.5,48.3,23.3,48.7z"/>
	<path id="Tracé_275" class="st4" d="M164.5,46c-0.1,0.1-0.2,0.2-0.2,0.2c-0.1-0.1-0.2-0.1-0.3-0.2c0.1-0.1,0.1-0.2,0.2-0.2
		S164.4,45.9,164.5,46z"/>
	<path id="Tracé_276" class="st4" d="M68.4,41.3c-0.1-0.1-0.4-0.2-0.2-0.5C68.5,40.9,68.5,41.1,68.4,41.3z"/>
	<path id="Tracé_277" class="st4" d="M75,101.7l-0.3,0.2v-0.6L75,101.7z"/>
	<path id="Tracé_278" class="st4" d="M179.3,103.3l-0.5,0.1c0-0.1-0.1-0.2,0-0.2S179.1,103,179.3,103.3L179.3,103.3z"/>
	<path id="Tracé_279" class="st4" d="M75.8,42.2L75.8,42.2c0-0.2-0.2-0.3,0-0.4c0.1,0,0.1,0,0.2,0.1C76,42.1,76,42.2,75.8,42.2
		L75.8,42.2z"/>
	<path id="Tracé_280" class="st4" d="M91.8,146.1l0.5-0.3l0.1,0.1l-0.5,0.3L91.8,146.1z"/>
	<path id="Tracé_281" class="st4" d="M124.7,74.2l0.2,0.3l-0.4,0.3v-0.6L124.7,74.2z"/>
	<path id="Tracé_282" class="st4" d="M134.3,48.1l0.6-0.3c-0.1,0.2-0.3,0.4-0.5,0.4L134.3,48.1z"/>
	<path id="Tracé_283" class="st4" d="M138,40l0.5,0.1v0.1H138V40z"/>
	<path id="Tracé_284" class="st4" d="M170.3,37.4h0.5c-0.2,0.3-0.3,0.3-0.5,0.2V37.4z"/>
	<path id="Tracé_285" class="st4" d="M194,110.7c-0.1,0.1-0.1,0.1-0.2,0.1s-0.1-0.1-0.1-0.1l0.2-0.2L194,110.7z"/>
	<path id="Tracé_286" class="st4" d="M152.8,114.4c0.1,0.1,0.1,0.3-0.1,0.4h-0.1C152.5,114.5,152.6,114.5,152.8,114.4z"/>
	<path id="Tracé_287" class="st4" d="M81.6,56.1l-0.1,0.5C81.1,56.3,81.4,56.2,81.6,56.1L81.6,56.1z"/>
	<path id="Tracé_288" class="st4" d="M191.1,101.5c-0.3,0.2-0.4,0.2-0.6,0H191.1z"/>
	<path id="Tracé_289" class="st4" d="M133.4,58.3l-0.3-0.2l0.1-0.1c0.1,0.1,0.2,0.1,0.3,0.2L133.4,58.3z"/>
	<path id="Tracé_290" class="st4" d="M80.9,64.3l-0.6-0.2C80.6,64,80.6,64,80.9,64.3z"/>
	<path id="Tracé_291" class="st4" d="M35.7,63.9c0.1-0.1-0.1-0.6,0.4-0.4L35.7,63.9z"/>
	<path id="Tracé_292" class="st4" d="M91.1,94.1l0.1,0.4H91C90.9,94.4,90.8,94.2,91.1,94.1L91.1,94.1z"/>
	<path id="Tracé_293" class="st4" d="M149.5,39l0.3-0.2C150,39.1,149.7,39.1,149.5,39z"/>
	<path id="Tracé_294" class="st4" d="M119.6,60.4l0.3,0.6C119.6,60.9,119.5,60.7,119.6,60.4L119.6,60.4z"/>
	<path id="Tracé_295" class="st4" d="M182.6,106.7l-0.1-0.2l0.4,0.1C182.9,106.9,182.8,107,182.6,106.7L182.6,106.7z"/>
	<path id="Tracé_296" class="st4" d="M187.2,94.6L187.2,94.6l0.4,0.1l-0.1,0.1C187.3,94.9,187.2,94.8,187.2,94.6L187.2,94.6z"/>
	<path id="Tracé_297" class="st4" d="M135.1,48.6l-0.2-0.2c0.1-0.1,0.1-0.1,0.2-0.1l0.1,0.1C135.2,48.4,135.2,48.5,135.1,48.6z"/>
	<path id="Tracé_298" class="st4" d="M194.7,63.1c-0.1,0-0.2,0.1-0.2,0.1s-0.1-0.1-0.2-0.2c0.1-0.1,0.1-0.1,0.2-0.1
		s0.2,0.1,0.3,0.1L194.7,63.1z"/>
	<path id="Tracé_299" class="st4" d="M201.1,69.8l-0.2,0.3l-0.1-0.1l0.2-0.4L201.1,69.8z"/>
	<path id="Tracé_300" class="st4" d="M182,118.7l-0.1,0.2l-0.2-0.4L182,118.7z"/>
	<path id="Tracé_301" class="st4" d="M90.3,153.1l-0.1-0.5c0.1,0,0.1,0,0.2,0.1C90.6,152.8,90.5,153,90.3,153.1z"/>
	<path id="Tracé_302" class="st4" d="M69.9,40.8l0.4,0.1c0,0.1,0,0.1,0,0.1C70.1,41.2,69.9,41.1,69.9,40.8z"/>
	<path id="Tracé_303" class="st4" d="M133.1,38.6c-0.2,0.1-0.4,0-0.5-0.2C132.8,38.4,133,38.4,133.1,38.6L133.1,38.6z"/>
	<path id="Tracé_304" class="st4" d="M111.5,52.6l-0.3-0.1v-0.1L111.5,52.6L111.5,52.6z"/>
	<path id="Tracé_305" class="st4" d="M89.5,139.5h-0.3v-0.1h0.3V139.5z"/>
	<path id="Tracé_306" class="st4" d="M79.8,86.8v-0.3h0.1c0,0.1,0,0.2,0.1,0.3H79.8z"/>
	<path id="Tracé_307" class="st4" d="M84.6,50.9c-0.1,0-0.2,0.1-0.2,0.1l-0.1-0.1C84.4,50.9,84.4,50.8,84.6,50.9
		C84.6,50.8,84.5,50.9,84.6,50.9L84.6,50.9z"/>
	<path id="Tracé_308" class="st4" d="M187.2,93.6l-0.4-0.1l0.1-0.1l0.4,0.1L187.2,93.6z"/>
	<path id="Tracé_309" class="st4" d="M82.4,85c-0.1,0-0.2,0.1-0.3,0.1C82,85.1,82,85,82,84.9l0.1-0.1C82.3,84.8,82.4,84.9,82.4,85z
		"/>
	<path id="Tracé_310" class="st4" d="M174.4,102l0.2,0.5C174.3,102.4,174.3,102.2,174.4,102z"/>
	<path id="Tracé_311" class="st4" d="M194,125.2h0.4C194.3,125.5,194.1,125.5,194,125.2z"/>
	<path id="Tracé_312" class="st4" d="M181.7,44.9c0,0.1,0,0.1-0.1,0.2c-0.1,0-0.2,0-0.3,0l0.3-0.2H181.7z"/>
	<path id="Tracé_313" class="st4" d="M91.2,146.6l-0.3-0.1v-0.1L91.2,146.6L91.2,146.6z"/>
	<path id="Tracé_314" class="st4" d="M201.2,103.4l0.4,0.2v0.1L201.2,103.4L201.2,103.4z"/>
	<path id="Tracé_315" class="st4" d="M222.3,64.4l0.3-0.4l0.1,0.1l-0.3,0.4L222.3,64.4z"/>
	<path id="Tracé_316" class="st4" d="M22.1,133.2v0.3h-0.2v-0.3H22.1z"/>
	<path id="Tracé_317" class="st4" d="M204.1,105.9l0.4,0.4C204.2,106.3,204.1,106.1,204.1,105.9z"/>
	<path id="Tracé_318" class="st4" d="M181.7,105.5h0.4v0.1h-0.4V105.5z"/>
	<path id="Tracé_319" class="st4" d="M81.7,61v0.4h-0.1L81.7,61L81.7,61z"/>
	<path id="Tracé_320" class="st4" d="M35.2,63.8L34.9,64l-0.1-0.1L35.2,63.8L35.2,63.8z"/>
	<path id="Tracé_321" class="st4" d="M183.5,106.8l-0.1,0.3h-0.2l0.1-0.3H183.5z"/>
	<path id="Tracé_322" class="st4" d="M204.6,107.1c0-0.1-0.1-0.2-0.1-0.3h0.1l0.2,0.3H204.6z"/>
	<path id="Tracé_323" class="st4" d="M132.8,49l0.1-0.4C133.1,48.9,133.1,48.9,132.8,49L132.8,49z"/>
	<path id="Tracé_324" class="st4" d="M132.8,49v0.2c-0.1,0-0.2,0-0.2,0C132.6,49.1,132.6,49,132.8,49C132.8,49,132.8,49,132.8,49
		L132.8,49z"/>
	<path id="Tracé_325" class="st4" d="M43.5,59.4l-0.3,0.1C43.2,59.2,43.2,59.2,43.5,59.4z"/>
	<path id="Tracé_326" class="st4" d="M90.1,148.1c-0.1-0.3,0-0.4,0.3-0.4L90.1,148.1z"/>
	<path id="Tracé_327" class="st4" d="M81.3,42.8l0.3-0.1l0.1,0.1c0,0.1-0.1,0.1-0.1,0.2c-0.1,0-0.1,0-0.2,0L81.3,42.8z"/>
	<path id="Tracé_328" class="st4" d="M88.2,149.2l-0.2,0.1l-0.1-0.1H88.2L88.2,149.2z"/>
	<path id="Tracé_329" class="st4" d="M223.4,64l-0.2,0.2l-0.1-0.1l0.2-0.3L223.4,64z"/>
	<path id="Tracé_330" class="st4" d="M63.2,41.8c-0.1,0.1-0.1,0.1-0.2,0.1l-0.1-0.1c0-0.1,0-0.1,0.1-0.1S63.2,41.8,63.2,41.8z"/>
	<path id="Tracé_331" class="st4" d="M153.2,36.1c-0.1,0-0.1,0.1-0.1,0.1c-0.1,0-0.1-0.1-0.1-0.1c0.1,0,0.1-0.1,0.1,0
		S153.1,36.1,153.2,36.1z"/>
	<path id="Tracé_332" class="st4" d="M173.8,100.6l-0.3-0.3l0.4,0.2L173.8,100.6z"/>
	<path id="Tracé_333" class="st4" d="M189.6,99.9l-0.1-0.3h0.1l0.1,0.3H189.6z"/>
	<path id="Tracé_334" class="st4" d="M206.7,108.3l0.3,0.2l-0.1,0.1l-0.3-0.1L206.7,108.3z"/>
	<path id="Tracé_335" class="st4" d="M151.9,37.4l-0.3-0.1v-0.1L151.9,37.4L151.9,37.4z"/>
	<path id="Tracé_336" class="st4" d="M46.5,164.5l-0.2-0.1h0.2V164.5z"/>
	<path id="Tracé_337" class="st4" d="M29.5,52.9c-0.3-0.2-0.3-0.2,0-0.5C29.8,52.6,29.5,52.7,29.5,52.9L29.5,52.9z"/>
	<path id="Tracé_338" class="st4" d="M64.4,73.2l-0.3-0.4c0,0,0-0.1,0.1-0.1C64.4,72.7,64.5,72.9,64.4,73.2z"/>
	<path id="Tracé_339" class="st4" d="M52.8,60.5l-0.1-0.2h0.1V60.5L52.8,60.5z"/>
	<path id="Tracé_340" class="st4" d="M80.1,69.9l-0.4-0.1v-0.1L80.1,69.9L80.1,69.9z"/>
	<path id="Tracé_341" class="st5" d="M249.2,161.2c-3,6.1-7.4,11.5-12.9,15.5c-0.3,0.1-0.5,0.1-0.8,0.1c-0.1-2.5,0-7.3-0.2-9.8
		c-0.7-10.3-6-20-12.9-27.7c-1.5-1.7-3.2-3.6-3.2-5.9c0-0.8,0.4-1.6,1.1-2.1c1.1-0.6,2.4-0.1,3.5,0.5c1.6,0.8,6.9,4.7,8.6,4.4
		c2-0.4,1.2-5.8,1.2-7.3c0.1-6.6,0.3-13.3,0.4-19.9c6,6.1,10.1,13.7,12,22c0.7,3.3,1.2,6.7,1.4,10
		C248.3,147.7,248.9,154.5,249.2,161.2L249.2,161.2z"/>
	<path id="Tracé_342" class="st5" d="M28.1,133.5c0.1,2.3-1.6,4.2-3.2,5.9c-6.9,7.7-12.1,17.3-12.9,27.7c-0.2,2.3-0.1,4.5-0.1,6.8
		c-4.7-0.3-9.3-1.3-13.1-4.1c-0.2-0.2-0.5-0.4-0.7-0.6c-0.1-0.7-0.1-1.5-0.1-2.3c0.2-8.7,0.8-17.3,1.8-25.9c0.3-3.4,0.8-6.7,1.4-10
		c1.9-8.3,6-15.9,12-22c0.1,6.6,0.3,13.3,0.4,19.9c0,1.6-0.8,6.9,1.2,7.3c1.7,0.3,7-3.6,8.6-4.4c1.1-0.6,2.5-1.1,3.5-0.5
		C27.7,131.8,28.1,132.6,28.1,133.5z"/>
	
		<linearGradient id="Rectangle_64_1_" gradientUnits="userSpaceOnUse" x1="-383.4323" y1="-23.6162" x2="-387.3213" y2="-20.8262" gradientTransform="matrix(108.194 0 0 70.957 41725.2656 1710.8889)">
		<stop  offset="0" style="stop-color:#000000;stop-opacity:0"/>
		<stop  offset="0.99" style="stop-color:#000000"/>
	</linearGradient>
	<path id="Rectangle_64" class="st6" d="M120.3,30.6h108.2v71H120.3V30.6z"/>
	
		<linearGradient id="Rectangle_65_1_" gradientUnits="userSpaceOnUse" x1="-383.8616" y1="-23.208" x2="-382.2936" y2="-24.288" gradientTransform="matrix(101.044 0 0 70.957 38860.9727 1780.9163)">
		<stop  offset="0" style="stop-color:#000000;stop-opacity:0"/>
		<stop  offset="0.99" style="stop-color:#000000"/>
	</linearGradient>
	<path id="Rectangle_65" class="st7" d="M19.5,100.6h101v71h-101V100.6z"/>
</g>
</svg>
